<svg width="395" height="360" viewBox="0 0 395 360" fill="none" xmlns="http://www.w3.org/2000/svg">
<path d="M221.003 236.504C220.266 233.977 219.554 231.595 218.414 229.221H176.52C175.354 231.595 174.626 233.977 173.872 236.504C172.849 239.889 171.114 242.609 169.001 245.423L168.068 246.696C162.017 254.282 151.978 257.891 142.615 259.04C133.143 259.978 123.889 259.394 114.509 257.969C104.747 256.515 95.9277 258.797 86.7927 262.029C79.9023 264.398 74.1039 263.085 67.264 261.125C60.4592 259.28 54.8902 259.676 48.1572 261.59C43.2848 262.9 38.7318 263.921 33.6614 263.941C36.7072 266.988 42.2254 266.758 46.8627 266.564L46.8927 266.562C47.9846 266.517 49.0274 266.473 49.9767 266.476C57.3595 266.51 64.0379 267.36 70.6773 270.885C65.7143 273.477 60.718 275.795 55.4957 277.819C52.3673 279.079 49.3452 280.592 46.964 283.037V284.773L48.3944 284.226C50.7227 283.529 52.9042 283.314 55.3144 283.109C65.9104 282.035 75.3303 278.214 84.7387 273.381C91.6048 269.861 98.0919 267.889 105.813 267.883L107.291 267.862C110.825 267.854 114.089 268.338 117.526 269.149L115.725 270.571C111.97 273.564 108.303 276.523 104.982 279.999C97.3549 287.835 88.6343 290.854 78.293 293.649C71.6545 295.483 64.8852 297.683 61.2066 303.941L60.2888 305.465L59.6882 306.763L60.2666 307.92L61.3283 307.116C68.6584 301.745 75.9515 300.344 84.8471 299.457L87.125 299.222C88.9683 299.032 90.8117 298.845 92.6556 298.661C92.389 299.678 92.1194 300.693 91.8489 301.709L91.3949 303.422C89.8009 308.807 85.7711 311.84 81.5261 315.034L81.4906 315.061C80.996 315.433 80.4983 315.808 80.0015 316.188C78.2998 317.562 76.8103 319.067 75.3043 320.651L75.8827 321.808L77.1478 320.795C78.9877 319.55 80.8374 319.008 82.968 318.409C87.8947 316.958 92.3268 314.964 95.3031 310.614C96.4878 308.4 97.4013 306.082 98.3194 303.75C98.423 303.487 98.527 303.223 98.6312 302.959C103.461 290.905 114.343 281.477 126.093 276.238C131.773 274.027 137.584 273.212 143.589 272.403L143.59 272.403C162.011 269.911 162.011 269.911 170.158 265.099C163.304 278.087 152.813 286.381 139.878 293.047C130.89 297.688 123.538 303.623 117.454 311.79C112.9 317.876 108.07 321.084 101.16 324.129C97.5395 325.793 94.1061 328.374 92.6556 332.224L93.2339 333.96L94.0424 333.408C99.2052 330.019 104.596 328.375 110.585 327.016L110.007 328.173C109.681 332.06 110.089 335.956 110.513 339.819L110.65 341.15C110.778 342.231 110.966 343.305 111.164 344.376L112.32 344.955L112.725 342.688C115.171 329.44 120.048 318.078 131.262 309.982C137.582 305.822 144.281 301.998 151.071 298.661C149.524 309.87 147.165 319.007 139.571 327.682C134.352 333.684 130.739 339.762 130.756 347.848L130.752 349.946C130.819 351.64 131.014 353.147 131.407 354.792L132.563 354.214C132.67 353.744 132.73 353.478 132.779 353.211C132.843 352.869 132.889 352.523 132.994 351.739L132.997 351.718C134.712 342.534 140.974 336.455 148.18 331.067L148.611 332.506C149.456 334.875 150.537 337.044 151.686 339.276C154.425 344.626 155.548 349.092 154.025 355.095C153.468 356.751 152.881 358.38 152.228 360C154.728 359.573 155.669 358.457 157.205 356.528C160.109 352.361 160.482 347.607 159.747 342.64C158.923 338.971 157.812 335.381 156.661 331.804C154.732 325.201 156.087 319.534 157.979 313.1C158.371 311.764 158.747 310.423 159.122 309.082C160.99 302.524 163.093 296.113 167.916 291.102L168.732 290.242C170.404 288.506 172.163 286.891 173.973 285.3C179.816 280.149 183.577 273.8 187.351 267.057C187.951 266 188.594 264.968 189.244 263.941H190.401L190.329 265.908C190.329 268.251 190.714 270.371 191.224 272.651C193.061 280.859 194.809 291.007 190.83 298.822C188.038 303.188 184.841 307.087 181.327 310.885C173.625 319.312 171.441 327.289 171.748 338.373C171.787 340.357 171.817 342.342 171.848 344.326L171.873 345.743C171.922 348.997 171.754 352.142 171.314 355.371C174.605 351.078 176.055 346.523 176.556 341.194C177.536 330.814 182.146 323.924 189.244 316.6L190.541 315.253C192.351 313.407 194.198 311.671 196.185 310.017L197.485 308.499L199.182 310.017C201.125 311.671 202.931 313.407 204.701 315.253L205.969 316.6C212.911 323.924 217.42 330.814 218.378 341.194C218.868 346.523 220.287 351.078 223.505 355.371C223.075 352.142 222.911 348.997 222.958 345.743L222.983 344.326C223.013 342.342 223.043 340.357 223.081 338.373C223.381 327.289 221.245 319.312 213.712 310.885C210.275 307.087 207.149 303.188 204.418 298.822C200.527 291.007 202.236 280.859 204.033 272.651C204.532 270.371 204.908 268.251 204.909 265.908L204.838 263.941H205.969C206.605 264.968 207.234 266 207.821 267.057C211.512 273.8 215.19 280.149 220.905 285.3C222.674 286.891 224.395 288.506 226.03 290.242L226.828 291.102C231.545 296.113 233.602 302.524 235.429 309.082C235.796 310.423 236.164 311.764 236.547 313.1C238.398 319.534 239.722 325.201 237.836 331.804C236.71 335.381 235.623 338.971 234.818 342.64C234.099 347.607 234.463 352.361 237.304 356.528C238.806 358.457 239.726 359.573 242.171 360C241.532 358.38 240.958 356.751 240.414 355.095C238.924 349.092 240.023 344.626 242.701 339.276C243.825 337.044 244.882 334.875 245.708 332.506L246.131 331.067C253.177 336.455 259.302 342.534 260.979 351.718L260.982 351.739C261.085 352.523 261.13 352.869 261.192 353.211C261.241 353.478 261.299 353.744 261.403 354.214L262.534 354.792C262.918 353.147 263.11 351.64 263.175 349.946L263.171 347.848C263.187 339.762 259.654 333.684 254.549 327.682C247.123 319.007 244.815 309.87 243.302 298.661C249.943 301.998 256.495 305.822 262.676 309.982C273.643 318.078 278.413 329.44 280.806 342.688L281.201 344.955L282.332 344.376C282.525 343.305 282.709 342.231 282.834 341.15L282.968 339.819C283.383 335.956 283.782 332.06 283.464 328.173L282.898 327.016C288.756 328.375 294.028 330.019 299.077 333.408L299.867 333.96L300.433 332.224C299.014 328.374 295.656 325.793 292.116 324.129C285.357 321.084 280.634 317.876 276.18 311.79C270.23 303.623 263.04 297.688 254.25 293.047C241.599 286.381 231.338 278.087 224.636 265.099C232.603 269.911 232.603 269.911 250.619 272.403L250.62 272.403C256.493 273.212 262.176 274.027 267.731 276.238C279.223 281.477 289.866 290.905 294.589 302.959C294.691 303.223 294.792 303.487 294.894 303.75C295.792 306.082 296.685 308.4 297.844 310.614C300.755 314.964 305.089 316.958 309.908 318.409C311.991 319.008 313.8 319.55 315.6 320.795L316.837 321.808L317.403 320.651C315.93 319.067 314.473 317.562 312.809 316.188C312.323 315.808 311.836 315.433 311.352 315.061L311.318 315.034C307.166 311.84 303.225 308.807 301.666 303.422L301.222 301.709C300.957 300.693 300.694 299.678 300.433 298.661C302.236 298.845 304.039 299.032 305.842 299.222L308.07 299.457C316.77 300.344 323.902 301.745 331.071 307.116L332.109 307.92L332.675 306.763L332.088 305.465L331.19 303.941C327.592 297.683 320.972 295.483 314.48 293.649C304.366 290.854 295.837 287.835 288.378 279.999C285.13 276.523 281.544 273.564 277.871 270.571L276.11 269.149C279.472 268.338 282.663 267.854 286.12 267.862L287.565 267.883C295.116 267.889 301.461 269.861 308.176 273.381C317.377 278.214 326.59 282.035 336.953 283.109C339.31 283.314 341.443 283.529 343.721 284.226L345.119 284.773V283.037C342.791 280.592 339.835 279.079 336.775 277.819C331.668 275.795 326.782 273.477 321.928 270.885C328.421 267.36 334.953 266.51 342.173 266.476C343.101 266.473 344.121 266.517 345.189 266.562L345.218 266.564C349.754 266.758 355.151 266.988 358.129 263.941C353.17 263.921 348.718 262.9 343.953 261.59C337.368 259.676 331.921 259.28 325.266 261.125C318.577 263.085 312.906 264.398 306.167 262.029C297.233 258.797 288.607 256.515 279.06 257.969C269.887 259.394 260.837 259.978 251.572 259.04C242.415 257.891 232.598 254.282 226.68 246.696L225.767 245.423C223.701 242.609 222.004 239.889 221.003 236.504Z" fill="#5E4D4D"/>
<path d="M121.348 0.0296291C145.852 -0.636888 168.867 9.99527 186.5 26.5143C190.355 30.1975 193.978 33.955 197.074 38.3146C199.234 37.5945 199.734 36.7366 201.123 34.951C210.369 23.3911 221.024 13.9587 234.733 8.1118C235.708 7.69526 236.674 7.25998 237.64 6.82223C240.894 5.38311 244.211 4.23444 247.61 3.19649C248.171 3.02061 248.171 3.02061 248.744 2.84118C255.578 0.840395 262.546 0.513964 269.624 0.55631C270.37 0.551834 271.116 0.547358 271.885 0.542747C279.081 0.55717 286.112 1.35862 293.085 3.16033C293.817 3.34858 293.817 3.34858 294.565 3.54064C307.278 6.92394 319.23 13.6483 328.817 22.6656C330.106 23.882 330.106 23.882 331.592 25.03C338.248 30.4113 342.871 38.3836 346.873 45.8373C347.147 46.3438 347.421 46.8503 347.702 47.3721C357.386 65.9952 359.361 89.1113 354.971 109.491C354.836 110.119 354.836 110.119 354.699 110.759C353.643 115.495 352.617 119.686 348.789 122.981C345.858 124.476 343.41 124.912 340.17 124.213C336.985 123.135 334.837 121.7 332.99 118.863C331.538 115.66 332.268 112.713 333.209 109.455C338.486 91.138 335.96 71.1278 327.132 54.4586C324.329 49.4062 320.889 45.2615 316.798 41.2079C316.318 40.7156 315.839 40.2233 315.345 39.716C302.12 26.8285 284.88 22.3266 266.89 22.53C249.572 23.0223 234.267 31.8677 221.944 43.5226C221.518 43.9187 221.092 44.3148 220.652 44.7229C217.159 48.0757 214.222 51.807 211.288 55.6427C209.929 57.4168 208.558 59.1814 207.186 60.9461C206.486 61.8468 205.788 62.7482 205.09 63.6505C204.158 64.8534 203.221 66.0522 202.28 67.2481C202.008 67.5951 201.736 67.9421 201.457 68.2996C200.262 69.7875 199.487 70.6748 197.725 71.4796C195.301 71.2371 194.521 70.3239 192.924 68.5524C191.421 66.694 190.027 64.7705 188.643 62.8222C175.373 44.2787 158.24 27.0685 134.871 22.9948C118.348 20.4225 100.986 23.2309 87.1471 32.9754C72.1099 44.3791 61.9107 60.0066 59.1344 78.9526C57.8512 89.6083 59.0844 100.103 61.2649 110.54C61.939 113.86 62.2459 116.392 60.5419 119.437C59.01 121.63 57.4021 123.202 54.7943 123.958C51.5304 124.379 48.8225 124.425 45.8295 122.981C38.311 116.023 37.8492 103.131 37.361 93.3867C36.6175 71.2518 42.6612 47.6316 57.6862 30.7918C58.1022 30.3062 58.5182 29.8206 58.9468 29.3203C72.7628 13.4558 91.741 3.17455 112.632 0.700977C113.574 0.587967 113.574 0.587967 114.536 0.472674C116.805 0.247794 119.072 0.148412 121.348 0.0296291Z" fill="#C03221"/>
<path d="M272.935 117.679C279.993 112.831 288.831 110.243 297.265 115.064L297.667 115.3L297.716 115.33L297.765 115.362C301.766 118.095 305.183 121.406 306.413 126.522L306.525 127.023L306.547 127.131L306.558 127.24C307.211 134.078 305.714 140.169 301.037 145.668L300.968 145.748L300.893 145.82C297.049 149.483 292.958 150.92 287.703 150.985H287.652C284.317 150.943 281.679 150.542 279.216 149.517C276.768 148.499 274.642 146.924 272.25 144.784L272.195 144.735L272.143 144.681C268.155 140.543 266.983 135.923 267.056 130.714L267.057 130.644L267.063 130.576C267.438 126.064 268.964 121.304 272.713 117.856L272.818 117.76L272.935 117.679Z" fill="#EA9A13" stroke="white" stroke-width="4"/>
<path d="M341.735 126.088C339.414 124.348 336.206 124.175 333.48 124.638C330.757 125.101 327.965 126.289 326.132 127.975L324.952 128.98C322.217 131.345 319.589 133.847 317.008 136.274C314.039 139.066 311.122 141.767 308.067 144.178C301.989 148.974 295.479 152.523 287.294 153.147C276.053 153.435 267.491 148.956 259.099 141.77C256.784 139.682 254.405 137.161 252.494 135.004C251.258 133.609 249.158 132.216 246.633 131.778C244.009 131.323 241.027 131.924 238.287 134.389L238.199 134.468L238.122 134.557C237.315 135.478 235.962 136.847 235.119 138.204C234.223 139.648 233.505 141.702 234.746 143.84C235.553 145.23 236.699 146.607 237.816 147.878C238.984 149.207 240.1 150.4 241.09 151.62H241.091C243.675 154.801 246.295 157.713 248.633 160.43C250.998 163.178 253.107 165.765 254.823 168.436C258.2 173.694 260.068 179.299 259.023 187.009C256.128 206.488 243.241 227.415 231.028 243.642L229.848 245.199L229.743 245.335L229.664 245.487C228.118 248.452 227.777 251.269 228.615 253.694C229.452 256.112 231.344 257.797 233.568 258.729C237.946 260.564 244.034 259.703 248.341 255.592C258.682 245.724 263.264 236.111 265.389 232.979C269.247 227.293 272.502 220.791 275.365 215.944C276.835 213.453 278.21 211.376 279.568 209.849C280.742 208.528 281.78 207.765 282.709 207.422C282.786 207.527 282.884 207.67 282.995 207.866C283.515 208.775 284.078 210.262 284.649 212.266C285.778 216.232 286.799 221.703 287.658 227.296C288.515 232.871 289.2 238.492 289.672 242.725C289.908 244.84 290.09 246.606 290.213 247.841C290.275 248.459 290.321 248.945 290.353 249.275C290.368 249.44 290.38 249.566 290.388 249.651C290.392 249.693 290.395 249.725 290.397 249.747C290.398 249.757 290.398 249.765 290.399 249.77C290.399 249.773 290.4 249.775 290.4 249.776V249.777L290.401 249.792L290.403 249.806L292.392 249.596C290.403 249.806 290.402 249.807 290.403 249.808V249.81C290.403 249.812 290.403 249.814 290.404 249.816C290.404 249.82 290.404 249.824 290.405 249.829C290.406 249.838 290.408 249.85 290.409 249.864C290.413 249.892 290.417 249.928 290.423 249.972C290.435 250.06 290.454 250.179 290.481 250.324C290.533 250.614 290.618 251.013 290.751 251.485C291.016 252.421 291.486 253.685 292.306 254.95C294.011 257.578 297.154 260.049 302.498 259.782C307.734 259.52 310.623 257.09 312.096 254.512C312.8 253.28 313.146 252.079 313.318 251.193C313.404 250.747 313.449 250.371 313.472 250.096C313.483 249.959 313.489 249.846 313.492 249.761C313.494 249.719 313.495 249.684 313.495 249.657C313.496 249.643 313.496 249.631 313.496 249.621V249.599C313.496 249.598 313.496 249.596 311.496 249.596H313.496V249.543L313.493 249.489V249.486C313.493 249.484 313.493 249.48 313.492 249.476C313.492 249.468 313.491 249.456 313.49 249.44C313.489 249.408 313.486 249.362 313.483 249.3C313.476 249.178 313.466 248.997 313.452 248.763C313.425 248.297 313.385 247.619 313.331 246.775C313.224 245.086 313.063 242.728 312.853 240.046C312.433 234.696 311.807 228.006 310.99 222.782C307.423 199.988 309.703 184.939 315.431 172.575C321.213 160.094 330.554 150.195 341.652 137.657C342.715 136.456 343.814 134.565 344.167 132.513C344.537 130.366 344.087 127.853 341.735 126.088Z" fill="#EA9A13" stroke="white" stroke-width="4"/>
<path d="M229.195 230.549C229.195 237.179 229.056 240.662 228.91 242.508C228.838 243.424 228.76 243.993 228.682 244.365C228.649 244.52 228.607 244.681 228.55 244.84C228.115 246.771 227.015 248.788 225.527 250.327C223.992 251.914 221.787 253.241 219.211 253.049C216.361 252.837 214.223 252.172 212.617 251.213C210.993 250.243 210.015 249.034 209.41 247.91C208.817 246.808 208.17 244.678 207.645 242.471C207.102 240.192 206.625 237.551 206.448 235.29V235.288C206.301 233.388 206.27 229.269 206.131 224.422C205.989 219.496 205.735 213.658 205.146 208.077C204.552 202.463 203.632 197.256 202.217 193.525C201.508 191.656 200.726 190.302 199.917 189.452C199.289 188.793 198.695 188.479 198.089 188.4C197.424 188.814 196.947 189.407 196.527 190.221C195.978 191.286 195.659 192.411 195.098 193.936C193.095 199.814 192.106 207.006 191.55 214.044C190.987 221.164 190.89 227.687 190.575 232.759C190.265 237.756 189.641 241.128 189.072 243.291C188.788 244.373 188.517 245.155 188.305 245.688C188.198 245.954 188.106 246.158 188.035 246.306C188.01 246.358 187.987 246.403 187.967 246.442V246.444C187.939 246.509 187.902 246.595 187.853 246.7C187.755 246.908 187.611 247.192 187.418 247.523C187.033 248.181 186.436 249.052 185.577 249.91C183.827 251.661 181.012 253.324 176.922 253.051C174.157 252.867 171.568 251.933 169.643 250.188C167.683 248.411 166.543 245.906 166.555 242.903C166.188 224.57 168.027 206.872 170.748 188.829C173.59 169.909 173.498 152.127 162.393 136.534C160.501 133.998 158.408 131.625 156.255 129.15L156.249 129.142C152.305 124.562 149.388 121.175 147.257 118.499C145.132 115.831 143.696 113.757 142.779 111.799C141.436 108.929 140.554 107.553 140.049 103.952C139.513 100.134 140.715 96.9223 143.527 95.1566C144.062 94.8207 144.215 94.6809 144.821 94.2826C145.306 93.9641 145.894 93.62 146.631 93.3851C148.148 92.9017 149.878 93.0079 152.253 93.6781C155.109 94.484 157.386 96.7951 159.209 99.056C160.148 100.221 161.04 101.469 161.874 102.648C162.722 103.846 163.504 104.96 164.274 105.944C172.654 116.505 181.532 127.228 194.727 128.912C203.307 129.725 210.981 126.54 217.893 121.145C223.149 116.626 227.45 111.314 231.811 105.689L231.812 105.687C233.713 103.243 235.694 100.852 237.614 98.4915L237.623 98.4808L237.633 98.4691C239.689 96.0166 241.859 93.937 245.654 93.3714L245.942 93.3285L246.231 93.3695C248.676 93.7188 250.165 94.5716 251.763 95.8138L252.457 96.3705L252.716 96.5814L252.891 96.8656C254.983 100.247 254.836 103.631 254.323 106.908L254.293 107.101L254.225 107.285C250.736 116.807 243.478 124.334 237.425 131.435C227.047 143.713 222.642 158.07 223.687 174.145C224.185 179.592 224.878 185.029 225.623 190.48L226.381 195.944V195.945C227.98 207.397 229.132 218.894 229.195 230.538V230.549Z" fill="#298D3F" stroke="white" stroke-width="4"/>
<path d="M218 103C218 107.43 217.954 110.421 217.295 112.943C216.604 115.589 215.279 117.594 213.129 120.206L213.099 120.242L213.067 120.279C209.59 124.115 205.369 126.166 200.284 126.749L200.201 126.759L200.117 126.762C194.602 126.93 189.747 126.043 185.035 122.522L184.91 122.429L184.8 122.318C179.899 117.3 178.339 111.903 178.339 105.218V105.189L178.34 105.159C178.493 99.9123 180.174 95.6601 183.859 91.801L183.933 91.7229L184.015 91.6536C191.672 85.1891 201.539 84.9229 209.973 89.8225L210.072 89.8801L210.163 89.9475C214.323 93.0433 216.476 98.1036 217.897 102.367L218 102.676V103Z" fill="#288C3F" stroke="white" stroke-width="4"/>
<path d="M52.4053 125.727C54.7262 123.987 57.934 123.814 60.6602 124.277C63.3834 124.74 66.175 125.928 68.0078 127.614L69.1875 128.619C71.9232 130.984 74.5508 133.486 77.1318 135.913C80.1007 138.705 83.0174 141.406 86.0732 143.817C92.1508 148.613 98.6605 152.162 106.846 152.786C118.087 153.074 126.649 148.595 135.041 141.409C137.356 139.321 139.735 136.8 141.646 134.643C142.882 133.248 144.982 131.855 147.507 131.417C150.131 130.962 153.113 131.563 155.853 134.028L155.94 134.107L156.018 134.196C156.825 135.117 158.178 136.486 159.021 137.843C159.917 139.287 160.635 141.341 159.394 143.479C158.587 144.868 157.44 146.246 156.324 147.516C155.156 148.846 154.04 150.039 153.05 151.259H153.049C150.465 154.44 147.845 157.352 145.507 160.069C143.142 162.817 141.033 165.403 139.317 168.075C135.94 173.333 134.072 178.938 135.117 186.648C138.011 206.127 150.899 227.054 163.112 243.281L164.292 244.838L164.396 244.974L164.476 245.126C166.022 248.09 166.363 250.907 165.524 253.333C164.688 255.751 162.796 257.436 160.572 258.368C156.194 260.203 150.106 259.342 145.799 255.231C135.458 245.363 130.876 235.75 128.751 232.618C124.893 226.932 121.638 220.43 118.775 215.583C117.304 213.092 115.93 211.015 114.572 209.488C113.398 208.167 112.36 207.404 111.431 207.061C111.353 207.166 111.256 207.309 111.145 207.505C110.625 208.414 110.062 209.901 109.491 211.905C108.361 215.871 107.341 221.342 106.481 226.935C105.625 232.51 104.94 238.131 104.468 242.364C104.232 244.479 104.05 246.245 103.927 247.48C103.865 248.098 103.818 248.584 103.787 248.914C103.771 249.079 103.76 249.205 103.752 249.29C103.748 249.332 103.745 249.364 103.743 249.386C103.742 249.396 103.742 249.404 103.741 249.409C103.741 249.412 103.74 249.414 103.74 249.415V249.416L103.739 249.431L103.737 249.445L101.748 249.235C103.737 249.445 103.737 249.446 103.737 249.447V249.449C103.737 249.451 103.737 249.453 103.736 249.455C103.736 249.459 103.736 249.463 103.735 249.468C103.734 249.477 103.732 249.489 103.73 249.503C103.727 249.531 103.723 249.567 103.717 249.611C103.704 249.699 103.685 249.818 103.659 249.963C103.607 250.253 103.522 250.652 103.389 251.124C103.124 252.06 102.654 253.324 101.834 254.589C100.129 257.217 96.9854 259.688 91.6416 259.421C86.4061 259.159 83.5169 256.729 82.0439 254.151C81.3397 252.919 80.9942 251.718 80.8223 250.832C80.7357 250.386 80.6909 250.01 80.668 249.735C80.6565 249.598 80.6508 249.485 80.6475 249.4C80.6458 249.358 80.6451 249.323 80.6445 249.296C80.6443 249.282 80.6436 249.27 80.6436 249.26V249.238C80.6436 249.237 80.6436 249.235 82.6436 249.235H80.6436V249.182L80.6465 249.128V249.125C80.6466 249.123 80.6472 249.119 80.6475 249.115C80.6479 249.107 80.6485 249.095 80.6494 249.079C80.6512 249.047 80.6538 249.001 80.6572 248.939C80.6641 248.817 80.6739 248.636 80.6875 248.402C80.7147 247.936 80.7548 247.258 80.8086 246.414C80.9161 244.725 81.0764 242.367 81.2871 239.684C81.7074 234.335 82.3331 227.645 83.1504 222.421C86.7165 199.627 84.4369 184.578 78.709 172.214C72.927 159.733 63.5858 149.834 52.4883 137.296C51.4253 136.095 50.3258 134.204 49.9727 132.152C49.6031 130.005 50.0527 127.492 52.4053 125.727Z" fill="#145F97" stroke="white" stroke-width="4"/>
<path d="M97.3389 117.005C104.306 111.78 113.091 111.387 120.648 115.491L120.73 115.535L120.808 115.587C125.147 118.493 128.962 122.768 130.025 128.203L130.042 128.287L130.051 128.373C130.626 133.71 129.484 138.815 126.068 143.291L126.026 143.346L125.98 143.397C123.95 145.708 121.861 147.461 119.425 148.715C116.991 149.968 114.313 150.669 111.175 151.014L111.106 151.021L111.037 151.024C106.069 151.222 101.368 150.368 97.208 147.122L97.1162 147.051L97.0332 146.969C92.3782 142.377 90.2096 136.548 90.2949 130.296L90.2969 130.211L90.3047 130.126C90.8289 124.847 93.2698 120.649 97.2031 117.117L97.2686 117.058L97.3389 117.005Z" fill="#145F97" stroke="white" stroke-width="4"/>
<path d="M361.472 149.673C365.55 152.141 367.664 155.593 368.881 160.144C369.437 164.529 368.241 168.747 365.695 172.384C362.883 175.478 359.823 176.639 355.729 177.106C351.424 177.297 348.407 176.506 345.201 173.589C342.077 170.274 340.528 167.084 340.251 162.531C340.395 158.616 341.92 155.428 344.553 152.555C349.277 148.231 355.451 146.968 361.472 149.673Z" fill="#E6701A"/>
<path d="M386.773 163.097C383.724 164.293 381.049 167.648 378.638 170.518C372.827 177.06 365.531 182.649 356.616 183.463C348.41 183.86 341.605 179.959 335.515 174.815C333.006 172.521 330.954 169.924 328.904 167.22C325.237 163.211 320.496 172.936 320.26 174.67C320.025 176.404 321.571 177.925 323.08 179.48C328.454 185.304 333.065 191.496 335.723 199.019C339.356 211.892 334.828 227.329 331.278 239.727C330.846 241.258 329.138 248.446 329.138 248.446C329.138 248.446 327.774 254.814 334.142 256.634C340.51 258.453 343.362 252.54 344.149 251.175C344.937 249.811 348.347 238.613 348.347 238.613C348.347 238.613 350.423 231.735 352.541 226.658C353.909 223.378 357.677 223.787 359.615 226.658C363.074 231.78 367.803 247.081 368.258 248.446C368.713 249.811 370.987 254.359 375.991 253.45C380.995 252.54 381.289 248.901 381.45 247.536C381.61 246.172 379.487 234.791 378.084 230.069C376.179 223.684 374.889 217.182 374.57 210.511C374.052 198.087 378.968 188.161 387.284 179.232C388.362 178.073 389.45 176.925 390.544 175.782C392.492 173.487 394.641 172.026 394.581 168.232C394.524 164.583 389.822 161.9 386.773 163.097Z" fill="#E6701A"/>
<path d="M7.80928 163.097C10.8584 164.293 13.5332 167.648 15.9449 170.518C21.756 177.06 29.0519 182.649 37.9661 183.463C46.1729 183.86 52.9778 179.959 59.0677 174.815C61.5765 172.521 63.6288 169.924 65.6784 167.22C69.346 163.211 74.0869 172.936 74.3223 174.67C74.5578 176.404 73.0118 177.925 71.5028 179.48C66.1284 185.304 61.5172 191.496 58.8599 199.019C55.2261 211.892 59.754 227.329 63.3048 239.727C63.736 241.258 65.4442 248.446 65.4442 248.446C65.4442 248.446 66.8088 254.814 60.4405 256.634C54.0721 258.453 51.221 252.54 50.4331 251.175C49.6452 249.811 46.235 238.613 46.235 238.613C46.235 238.613 44.1592 231.735 42.0418 226.658C40.674 223.378 36.9054 223.787 34.9671 226.658C31.5086 231.78 26.7793 247.081 26.3244 248.446C25.8695 249.811 23.5951 254.359 18.5914 253.45C13.5877 252.54 13.2935 248.901 13.1328 247.536C12.9721 246.172 15.0954 234.791 16.4985 230.069C18.4038 223.684 19.6934 217.182 20.0122 210.511C20.5306 198.087 15.6148 188.161 7.29869 179.232C6.22059 178.073 5.13232 176.925 4.03855 175.782C2.09074 173.487 -0.0587479 172.026 0.00122709 168.232C0.058918 164.583 4.76016 161.9 7.80928 163.097Z" fill="#603875"/>
<path d="M47.1274 149.529C50.5009 151.569 53.217 154.73 54.3932 158.498C54.989 163.637 54.707 168.182 51.5014 172.387C48.462 175.384 45.2262 176.993 40.946 177.233C37.2913 177.122 33.9986 176.072 31.2108 173.659C27.6458 169.792 26.2426 166.115 26.394 160.852C26.9782 156.482 29.1272 153.23 32.5054 150.487C36.6471 147.889 42.6357 147.538 47.1274 149.529Z" fill="#5F3673"/>
</svg>
