<svg width="9774" height="9591" viewBox="0 0 9774 9591" fill="none" xmlns="http://www.w3.org/2000/svg">
<rect width="9774" height="9591" fill="white"/>
<path opacity="0.708915" fill-rule="evenodd" clip-rule="evenodd" d="M8443.34 8206.52C8443.34 7880.39 6564.42 7616 4246.67 7616C1928.92 7616 50 7880.39 50 8206.52C50 8395.37 680.049 8563.53 1660.49 8671.63C1574.34 8749.88 1526.69 8835.89 1526.69 8926.17C1526.69 9287.85 2291.17 9581.05 3234.19 9581.05C4011.14 9581.05 4666.87 9136.54 4873.75 8979.97C4919.14 8945.6 4968.2 8935.3 5016.17 8950.44C5237.4 9020.32 5910.91 9217 6482.64 9217C7425.66 9217 8190.14 8923.8 8190.14 8562.1C8190.14 8514.48 8176.75 8468.03 8151.56 8423.29C8339.87 8356.16 8443.34 8283.05 8443.34 8206.52Z" fill="#96DAD5"/>
<path fill-rule="evenodd" clip-rule="evenodd" d="M7150.84 3626.42C6745.57 3215.19 5904.75 3401.69 5272.63 4042.89C4640.71 4684.29 4456.93 5537.5 4862.2 5948.73C5267.47 6359.96 6108.29 6173.46 6740.41 5532.26C7372.33 4890.87 7556.11 4037.65 7150.84 3626.42Z" fill="#BCD3D2"/>
<path fill-rule="evenodd" clip-rule="evenodd" d="M7370.89 1028.84C8030.21 2067.83 7255.41 3751.58 5640.67 4789.46C4025.86 5827.41 2182.31 5826.49 1523.09 4787.5C863.868 3748.5 1638.51 2064.83 3253.41 1026.87C4868.16 -11.0142 6711.7 -10.2224 7370.89 1028.84Z" fill="#58928E" fill-opacity="0.4"/>
<path fill-rule="evenodd" clip-rule="evenodd" d="M8333.02 310.055C8333.02 310.055 8717.94 269.792 8612.01 1195.39C8506.01 2120.91 8259.76 3183.02 8685.67 3698.9L5675.93 3401.47C5675.93 3401.47 5474.12 1986.71 5651.38 1210.53C5881.91 201.153 5406.7 180 5406.7 180L8333.02 310.055Z" fill="#CACACA"/>
<path fill-rule="evenodd" clip-rule="evenodd" d="M7716.22 4738.53L4493.23 4620.85C4467.47 4619.97 4447 4599.49 4447 4574.54V4425.11C4447 4398.76 4469.67 4377.72 4496.82 4378.72L7719.81 4496.41C7745.57 4497.29 7765.96 4517.76 7765.96 4542.71V4692.23C7765.96 4718.5 7743.37 4739.53 7716.22 4738.53Z" fill="#635E5A"/>
<path fill-rule="evenodd" clip-rule="evenodd" d="M6504.92 8577.37C6499.6 8577.37 6494.16 8576.93 6488.72 8576.05C6435.1 8567.49 6398.83 8518.19 6407.75 8466.08L6579.61 7456.12L6689.46 4550.83C6691.42 4498.05 6738.4 4456.38 6791.35 4458.74C6845.69 4460.66 6888.15 4505.12 6886.16 4557.87L6774.75 7481.35L6601.88 8497.35C6593.89 8544.14 6552.22 8577.37 6504.92 8577.37Z" fill="#635E5A"/>
<path fill-rule="evenodd" clip-rule="evenodd" d="M7205.77 8777.31C7175.38 8777.31 7146.23 8760.27 7132.68 8731.4L6604.28 7605.99L5791.62 8684.85C5765.27 8719.8 5714.92 8727.24 5679.21 8701.45C5643.54 8675.5 5635.95 8626.19 5662.38 8591.12L6636.55 7297.77L7278.75 8665.54C7297.27 8705.05 7279.63 8751.87 7239.28 8770.11C7228.49 8774.99 7217.01 8777.31 7205.77 8777.31Z" fill="#635E5A"/>
<path fill-rule="evenodd" clip-rule="evenodd" d="M5318.33 539.887L4606.95 4383.64L7611.01 4538.63L8325.78 643.107L5318.33 539.887Z" fill="#58928E"/>
<path fill-rule="evenodd" clip-rule="evenodd" d="M8324.62 699.837L5326.72 608.262L5327.88 579.875L8325.78 671.45L8324.62 699.837Z" fill="#9C9B9A"/>
<path fill-rule="evenodd" clip-rule="evenodd" d="M8365.77 311.771C8365.77 311.771 8113.01 483.821 8309.71 699.837L5326.57 595.39C5326.57 595.39 5181.01 359.432 5446.41 180L8365.77 311.771Z" fill="#62A5A0"/>
<path fill-rule="evenodd" clip-rule="evenodd" d="M7342.05 3698.9C7341.57 3698.9 7341.05 3698.9 7340.61 3698.82L5149.3 3564.22C5142.5 3563.9 5136.1 3560.5 5131.86 3555.06C5127.67 3549.66 5125.91 3542.63 5127.19 3535.91L5538.58 1319.33C5541.02 1306.25 5553.17 1297.72 5566.57 1300.02C5579.64 1302.46 5588.24 1315.03 5585.84 1328.05L5179.41 3517.95L7343.53 3650.87C7356.73 3651.71 7366.88 3663.07 7366.04 3676.34C7365.28 3689.1 7354.69 3698.9 7342.05 3698.9Z" fill="#9C9B9A"/>
<path fill-rule="evenodd" clip-rule="evenodd" d="M6057.9 3299.02C6056.02 3299.02 6054.06 3298.82 6052.18 3298.34C6040.78 3295.74 6032.94 3285.79 6033.46 3274.59L6111.56 1673.11L5455.08 2940.33C5450.37 2949.41 5439.81 2954.45 5429.53 2953.09C5419.02 2951.61 5410.74 2943.81 5409.06 2933.82L5327.04 2453.73C5324.88 2440.97 5333.96 2429.06 5347.24 2426.94C5360.99 2425.06 5373.15 2433.57 5375.27 2446.21L5445.05 2854.48L6119.52 1552.53C6124.67 1542.64 6136.35 1537.73 6147.55 1540.21C6158.74 1543.01 6166.38 1552.91 6165.86 1563.92L6088.29 3155.31L6594.05 2090.84C6598.21 2082.04 6607.2 2075.89 6617.84 2077.21C6627.96 2077.85 6636.67 2084.36 6639.67 2093.56L6906.51 2915.82L7481.57 2125.63C7489.21 2114.95 7504.4 2112.31 7515.56 2119.75C7526.64 2127.11 7529.35 2141.59 7521.68 2152.18L6917.99 2981.72C6912.71 2989.04 6904.15 2993.36 6894.19 2991.48C6885 2990.12 6877.36 2983.88 6874.56 2975.36L6611.96 2166.06L6080.21 3285.35C6076.09 3293.78 6067.37 3299.02 6057.9 3299.02Z" fill="#9C9B9A"/>
<path fill-rule="evenodd" clip-rule="evenodd" d="M3394.19 7196.54C3409.3 7506.36 3318.61 7971.09 3201.49 8031.56C3201.49 8031.56 3141.03 7151.19 3152.38 7049.18C3163.7 6947.18 3150.94 6750.72 3150.94 6750.72C3150.94 6750.72 3375.27 6289.74 3420.66 6029.06L3537.74 6361.52C3537.74 6361.52 3379.07 6886.71 3394.19 7196.54ZM4357.68 6429.54C4440.78 6263.27 4427.54 6165.06 4427.54 6165.06C4278.31 4899.34 3707.81 4022.73 3707.81 4022.73C3707.81 4022.73 3556.66 3750.7 3212.8 3750.7C2868.99 3750.7 2891.66 4049.2 2891.66 4049.2C2797.21 4162.53 2485.47 4430.8 2351.35 4880.42C2233.51 5275.46 2462.8 6289.74 2468.52 6411.74C2474.15 6533.78 2493.99 7301.38 2692.37 7683.94C2890.74 8066.5 2948.37 8432.03 2959.68 8530.28C2971 8628.57 2899.22 8781.56 2942.65 8811.79C2986.11 8841.98 3218.48 9015.81 3252.51 9025.24C3286.5 9034.72 3503.75 9066.79 3558.53 9072.47C3613.32 9078.19 3611.44 9008.29 3562.33 8979.94C3513.23 8951.59 3430.05 8915.68 3382.87 8809.91C3335.64 8704.1 3290.26 8520.84 3261.95 8458.54C3233.6 8396.16 3205.25 8256.36 3205.25 8256.36C3250.63 8286.6 3416.86 8605.86 3414.98 8626.65C3413.1 8647.4 3779.59 8687.07 3779.59 8687.07C3792.82 8609.65 3598.24 8535.96 3598.24 8535.96C3611.44 8441.51 3530.18 8118.49 3530.18 8118.49C3530.18 8118.49 3654.9 7751.96 3753.15 7604.61C3851.36 7457.26 4274.55 6595.81 4357.68 6429.54Z" fill="#EDB39D"/>
<path fill-rule="evenodd" clip-rule="evenodd" d="M2951.21 8469.5C2951.21 8469.5 2931.89 8617.17 2916.78 8677.67C2901.66 8738.13 2875.23 8756.97 2916.78 8804.23C2958.33 8851.46 2967.8 8932.71 2967.8 8932.71H2996.11L2979.12 8853.38C2979.12 8853.38 3092.28 8921.36 3150.95 8983.7C3209.61 9046.04 3508.07 9091.82 3581.77 9081.03C3655.43 9070.19 3683.78 9027.12 3440.09 8877.93C3440.09 8877.93 3281.38 8911.88 3207.73 8978.06C3207.73 8978.06 3039.54 8832.58 2990.44 8806.11C2990.44 8806.11 2935.69 8709.22 2960.24 8571.59C2960.24 8571.59 2979.96 8527.68 2951.21 8469.5Z" fill="#7D6E4D"/>
<path fill-rule="evenodd" clip-rule="evenodd" d="M3202.04 8241.25C3202.04 8241.25 3377.74 8464.18 3424.97 8605.85C3424.97 8605.85 3583.08 8525.16 3633.9 8551.19C3633.9 8551.19 3795.25 8624.77 3795.25 8666.32C3795.25 8707.9 3749.91 8698.47 3404.17 8647.4C3404.17 8647.4 3305.4 8400.6 3221.63 8328.5L3202.04 8241.25Z" fill="#7D6E4D"/>
<path fill-rule="evenodd" clip-rule="evenodd" d="M2854.37 3968.88C2854.37 3968.88 2825.78 4019.9 2840.58 4082.24C2840.58 4082.24 2270.19 4541.5 2238.56 5111.44C2206.97 5681.42 2401.03 6298.99 2378.36 6507.84C2355.69 6716.7 2461.49 7215.42 2760 8167.55C2760 8167.55 2903.56 8258.28 3202.02 8197.82C3202.02 8197.82 3239.85 7022.72 3202.02 6712.9C3202.02 6712.9 3376.65 6361.05 3414.04 6123.52L3498.65 6323.78C3498.65 6323.78 3335.54 6754.48 3344.34 7030.32C3353.17 7306.11 3232.29 7627.24 3232.29 7627.24C3232.29 7627.24 3477.86 7816.18 3719.7 7823.74C3719.7 7823.74 4320.87 6716.7 4428.32 6335.1C4535.8 5953.5 4161.72 4479.92 3783.92 4102.08C3783.92 4102.08 3763.17 3965.88 3763.81 3958.32C3764.45 3950.8 3747.09 3939.16 3736.45 3939.04C3725.82 3938.88 3689.31 3780.45 3306.35 3728.03C3306.35 3728.03 2927.03 3636.06 2854.37 3968.88Z" fill="#AEAEAE"/>
<path fill-rule="evenodd" clip-rule="evenodd" d="M2879 4109.65C2914.82 4121.85 2950.53 4133.56 2987.12 4142.28C3023.27 4152.28 3059.86 4160.48 3096.65 4167.23C3170.22 4180.47 3244.4 4188.99 3318.7 4189.91C3393.11 4192.55 3467.13 4183.07 3539.95 4168.79L3594.37 4156.04L3647.27 4137.92L3674.03 4129.21L3699.62 4117.61C3716.65 4109.73 3733.93 4102.17 3751.44 4094.74C3688.62 4136.28 3619.96 4172.39 3545.51 4191.19C3471.77 4211.3 3394.87 4221.9 3318.3 4219.86C3241.8 4218.18 3165.55 4208.62 3091.73 4189.71C3018.03 4170.83 2945.65 4145.76 2879 4109.65Z" fill="#2D2D2D"/>
<path fill-rule="evenodd" clip-rule="evenodd" d="M3164.26 4013C3176.94 4045.07 3179.9 4077.78 3179.46 4110.49C3178.78 4126.89 3177.38 4143.32 3173.46 4159.68C3169.62 4175.43 3164.74 4193.71 3151.03 4205.46C3153.86 4189.07 3150.07 4173.47 3150.15 4157.48C3149.27 4141.6 3149.35 4125.65 3149.51 4109.69C3150.91 4077.7 3153.38 4045.63 3164.26 4013Z" fill="#2D2D2D"/>
<path fill-rule="evenodd" clip-rule="evenodd" d="M3237.95 4013C3249.95 4045.35 3252.11 4078.14 3250.95 4110.89C3249.83 4127.25 3248.15 4143.64 3243.79 4159.88C3239.67 4175.71 3233.95 4193.35 3220.96 4205.46C3223.12 4188.79 3220.24 4173.15 3220.56 4157.16C3220.08 4141.24 3220.44 4125.33 3221.04 4109.33C3223.12 4077.38 3226.35 4045.43 3237.95 4013Z" fill="#2D2D2D"/>
<path fill-rule="evenodd" clip-rule="evenodd" d="M3613.88 3969.85C3627.15 3999.44 3630.51 4029.99 3630.63 4060.58C3630.15 4075.82 3628.95 4091.21 3625.47 4106.49C3622.23 4121.56 3616.68 4137.36 3606.32 4150.12C3605.44 4134.08 3602.8 4119.57 3602.16 4104.65C3600.84 4089.81 3600.72 4075.02 3600.68 4060.14C3601.48 4030.35 3603.6 4000.52 3613.88 3969.85Z" fill="#2D2D2D"/>
<path fill-rule="evenodd" clip-rule="evenodd" d="M3651.65 3918.81C3668.92 3953.48 3676.52 3989.95 3680.8 4026.89C3682.44 4045.45 3683.48 4064.08 3681.92 4082.96C3680.52 4101.51 3677.8 4121.7 3667.2 4138.46C3666.28 4119.47 3660.92 4102.15 3658.57 4084.04C3655.41 4066.16 3653.09 4048.05 3651.01 4029.93C3647.73 3993.59 3645.61 3957 3651.65 3918.81Z" fill="#2D2D2D"/>
<path fill-rule="evenodd" clip-rule="evenodd" d="M3251.15 4205.48C3235.84 4272.22 3211.93 4336.72 3185.34 4400.02C3157.26 4462.68 3125.19 4523.9 3086.29 4581.12C3047.38 4638.3 3000.91 4690.53 2948.13 4736.27C2893.87 4780.3 2832.29 4815.81 2765.15 4837.96L2745.83 4844.4L2745.95 4823.72L2746.59 4729.31L2746.67 4721.76L2752.87 4717.52C2798.9 4685.81 2843.16 4649.54 2885.11 4611.75C2926.62 4573.36 2967.6 4534.1 3003.75 4490.59C3076.09 4404.58 3137.27 4304.41 3151.03 4189.72C3149.75 4247.15 3133.79 4303.61 3110.92 4356.55C3087.85 4409.77 3054.54 4457.64 3019.83 4503.62C2984.64 4549.53 2945.05 4591.8 2902.78 4631.02C2860.36 4670.25 2816.49 4707.28 2768.83 4741.11L2775.06 4729.31L2775.7 4823.72L2756.55 4809.49C2819.41 4788.62 2878.23 4756.67 2930.66 4715.12C2982.2 4672.33 3026.43 4621.35 3067.21 4567.64C3107.44 4513.38 3141.47 4454.44 3171.82 4393.7C3202.73 4333.12 3229.2 4270.18 3251.15 4205.48Z" fill="#2D2D2D"/>
<path fill-rule="evenodd" clip-rule="evenodd" d="M2741.08 5092C2736.08 5206.81 2733.08 5321.45 2731.85 5436.05C2730.89 5550.74 2729.37 5665.3 2732.8 5779.87C2733.76 5894.43 2737.72 6008.99 2742.92 6123.48C2747.16 6238.08 2755.16 6352.45 2760.84 6467.33C2742.76 6353.85 2728.97 6239.56 2719.89 6124.92C2709.89 6010.31 2706.17 5895.31 2702.85 5780.35C2701.93 5665.34 2703.01 5550.26 2708.85 5435.37C2714.97 5320.53 2723.73 5205.73 2741.08 5092Z" fill="#2D2D2D"/>
<path fill-rule="evenodd" clip-rule="evenodd" d="M2760.85 6682.67C2774.64 6779.16 2786.68 6875.61 2798.96 6972.06L2835.51 7261.25C2846.66 7357.78 2860.14 7453.91 2873.01 7550.2C2886.17 7646.44 2900.48 7742.45 2914.92 7838.86C2888.29 7745.04 2868.21 7649.59 2850.22 7553.84C2832.59 7457.99 2819.31 7361.5 2805.79 7265.01C2794.84 7168.24 2783.64 7071.51 2776.12 6974.42C2768.57 6877.33 2762.33 6780.16 2760.85 6682.67Z" fill="#2D2D2D"/>
<path fill-rule="evenodd" clip-rule="evenodd" d="M2685.91 7927.59C2728.34 7935.11 2770.72 7937.58 2812.87 7940.14C2855.14 7942.06 2897.32 7942.58 2939.55 7941.62C2981.82 7941.14 3024.05 7938.42 3066.47 7936.07L3194.51 7927.59C3153.64 7941.34 3111.78 7952.42 3069.15 7959.3C3026.6 7966.54 2983.46 7970.53 2940.15 7971.61C2896.85 7971.97 2853.42 7970.13 2810.51 7963.38C2767.77 7956.74 2725.02 7946.26 2685.91 7927.59Z" fill="#2D2D2D"/>
<path fill-rule="evenodd" clip-rule="evenodd" d="M3298.14 7405.65C3381.19 7436.76 3461.69 7470.51 3543.7 7500.1C3584.61 7514.94 3625.68 7529.41 3667.42 7541.41C3709.25 7553.09 3751.28 7564.28 3795.26 7570.6C3706.17 7580.72 3616.48 7557.8 3533.43 7528.25C3450.21 7497.22 3370.2 7457.64 3298.14 7405.65Z" fill="#2D2D2D"/>
<path fill-rule="evenodd" clip-rule="evenodd" d="M3537.75 6361.52C3586.54 6398.27 3627.72 6442.29 3665.95 6488.84C3702.7 6536.02 3739.37 6585.85 3757.48 6644.91C3738.61 6621.04 3718.58 6599.12 3699.58 6576.25C3680.19 6553.7 3661.55 6530.59 3642.6 6507.59C3605.57 6460.97 3568.9 6413.98 3537.75 6361.52Z" fill="#2D2D2D"/>
<path fill-rule="evenodd" clip-rule="evenodd" d="M3546.69 6270.85C3596.88 6302.36 3639.98 6342.07 3679.77 6384.93C3718.48 6428.28 3755.79 6475.5 3776.34 6531.57L3657.62 6405.13C3619.15 6362.22 3580.52 6319.39 3546.69 6270.85Z" fill="#2D2D2D"/>
<path fill-rule="evenodd" clip-rule="evenodd" d="M3518.49 4094.73C3518.49 4121.72 3498.65 4143.63 3474.22 4143.63C3449.75 4143.63 3429.95 4121.72 3429.95 4094.73C3429.95 4067.74 3449.75 4045.82 3474.22 4045.82C3498.65 4045.82 3518.49 4067.74 3518.49 4094.73Z" fill="#2D2D2D"/>
<path fill-rule="evenodd" clip-rule="evenodd" d="M3414.02 6036.58L3467.73 5762.59C3485.16 5671.3 3504.23 5580.41 3519.19 5488.76C3536.42 5397.54 3551.5 5305.93 3564.54 5214.08C3577.61 5122.23 3588.61 5030.1 3595.41 4937.09C3601.08 5030.3 3595.81 5123.87 3587.41 5216.8C3579.05 5309.85 3563.66 5401.98 3548.7 5494.07C3531.19 5585.69 3512.47 5677.06 3490.16 5767.55C3467.69 5858 3443.53 5948.09 3414.02 6036.58Z" fill="#2D2D2D"/>
<path fill-rule="evenodd" clip-rule="evenodd" d="M2896.03 8271.6L3187.94 8294.87V8152.8C3187.94 8152.8 3203.41 8150.24 3206.01 8119.21C3208.57 8088.22 3206.01 7935.87 3206.01 7935.87C3206.01 7935.87 3247.32 7917.75 3262.83 7884.2C3278.35 7850.61 3275.75 7811.87 3275.75 7811.87C3275.75 7811.87 3295.06 7773.12 3321.58 7778.28C3348.09 7783.43 3505.6 7868.69 3645.08 7863.53C3645.08 7863.53 3629.6 7981.85 3608.93 8036.32C3588.29 8090.82 3572.78 8457.58 3645.08 8511.85C3717.41 8566.07 3869.84 8607.38 3833.66 8656.48C3797.51 8705.59 3518.51 8692.63 3466.85 8679.71C3415.19 8666.8 3340.29 8581.58 3340.29 8581.58C3340.29 8581.58 3345.45 8708.15 3381.64 8752.05C3417.79 8795.96 3446.22 8878.61 3505.6 8909.6C3565.02 8940.59 3699.34 9010.33 3658.03 9054.24C3616.68 9098.14 3270.55 9074.91 3224.09 9054.24C3177.58 9033.6 3087.17 8927.68 3087.17 8927.68C3087.17 8927.68 3089.77 8984.5 3061.38 8987.1C3032.95 8989.66 2986.44 8997.41 2942.54 8976.78C2942.54 8976.78 2898.59 8785.6 2875.36 8764.97C2852.12 8744.29 2921.86 8566.07 2921.86 8566.07L2896.03 8271.6Z" fill="#313030"/>
<path fill-rule="evenodd" clip-rule="evenodd" d="M3155.51 1988.35C3155.51 1988.35 3191.58 2336.53 2870.64 2515.37C2870.64 2515.37 2864.97 2739.38 3223.9 2739.38C3582.83 2739.38 3590.41 2549.27 3590.41 2549.27C3590.41 2549.27 3425.22 2426.86 3406.18 2396.77C3406.18 2396.77 3417.59 2278.2 3448 2227.38C3478.36 2176.56 3503.06 2041.07 3354.95 1967.63C3206.78 1894.22 3155.51 1988.35 3155.51 1988.35Z" fill="#E0AD9A"/>
<path fill-rule="evenodd" clip-rule="evenodd" d="M2394.1 2860.9C2326.08 3138.57 2263.74 3648.65 2249.59 3722.35C2235.43 3796.05 2105.07 4572.49 2020.06 4677.33C1935.05 4782.18 1804.69 4963.52 1790.53 4989.07C1790.53 4989.07 1742.35 5071.21 1712.6 5241.24C1712.6 5241.24 1716.83 5256.83 1732.43 5262.51C1732.43 5262.51 1704.08 5322.01 1712.6 5326.25C1721.07 5330.53 1738.11 5348.96 1756.54 5331.93C1774.94 5314.93 1845.75 5110.92 1867.03 5092.48C1888.26 5074.09 1763.58 5331.93 1762.18 5347.52C1760.74 5363.08 1799.05 5361.68 1799.05 5361.68C1799.05 5361.68 1888.26 5228.48 1895.38 5207.25C1902.46 5186.01 1942.12 5132.15 1950.64 5132.15C1959.12 5132.15 1891.1 5246.91 1876.94 5265.35C1862.79 5283.78 1857.11 5310.69 1861.35 5316.33C1865.63 5322.01 1909.53 5309.29 1918.05 5302.18C1926.53 5295.1 2059.73 5110.64 2065.41 5111.44C2071.04 5112.32 2080.96 5099.56 2088.08 5089.64C2095.16 5079.73 2065.41 5163.3 2089.48 5205.85C2089.48 5205.85 2098 5214.36 2126.31 5214.36C2126.31 5214.36 2156.06 5105.24 2171.65 5091.04C2187.25 5076.89 2211.32 4938.01 2228.31 4896.94C2245.35 4855.88 2197.16 4817.61 2280.74 4639.1C2364.35 4460.56 2514.54 4158.73 2514.54 3827.2C2514.54 3827.2 2634.99 3401.41 2707.24 3297.64C2707.24 3297.64 2836.25 3567.8 2850.64 3939C2850.64 3939 3074.84 4069.91 3696.11 3956.01C3696.11 3956.01 3754.32 3711.03 3833.65 3591.99C3912.99 3472.99 3949.01 3379.5 3964.01 3311.48C3979.01 3243.42 3893.15 3079.07 3873.32 3036.61C3853.48 2994.06 3945.1 2798.52 3785.95 2673.84C3626.8 2549.16 3591.53 2546.24 3591.53 2546.24C3591.53 2546.24 3192.45 2872.94 2885.39 2512.69C2885.39 2512.69 2462.12 2583.19 2394.1 2860.9Z" fill="#EDB39D"/>
<path fill-rule="evenodd" clip-rule="evenodd" d="M2881.84 2478.33C2881.84 2478.33 3040.51 2639.88 3091.53 2690.86C3142.56 2741.89 3587.46 2991.25 3553.43 2512.36C3553.43 2512.36 3808.47 2651.19 3845.3 2739.05C3882.16 2826.9 3884.96 2965.74 3884.96 3011.08C3884.96 3056.43 3998.33 3251.97 3952.98 3356.81C3907.64 3461.66 3873.65 3490.01 3856.65 3634.53C3839.66 3779 3831.14 4031.24 3374.92 4034.08C2918.67 4036.92 2842.17 4014.25 2802.5 3827.19C2762.8 3640.2 2813.82 3495.65 2697.66 3328.46L2672.14 3407.8C2672.14 3407.8 2462.45 3387.96 2249.92 3285.96C2249.92 3285.96 2340.57 2716.37 2541.78 2620.04C2742.96 2523.67 2881.84 2478.33 2881.84 2478.33Z" fill="#2A4D52"/>
<path fill-rule="evenodd" clip-rule="evenodd" d="M3083.03 2022.3C3083.03 2022.3 3128.37 2112.99 3227.54 2172.49C3326.75 2231.99 3451.43 2322.68 3513.73 2302.85C3576.11 2283.02 3741.3 2156.42 3780.97 2014.78C3820.64 1873.07 3845.31 1636.9 3819.8 1520.74C3794.28 1404.53 3649.77 1160.85 3391.93 1160.85C3134.01 1160.85 2904.48 1432.84 2966.86 1733.23C2966.86 1733.23 2895.17 1821.12 2956.51 1911.77C3017.85 2002.47 3083.03 2022.3 3083.03 2022.3Z" fill="#EDB39D"/>
<path fill-rule="evenodd" clip-rule="evenodd" d="M3236.88 1832.44C3236.88 1832.44 3350.73 1835.28 3380.96 1857.23C3380.96 1857.23 3392.03 1861.15 3387.75 1846.59C3387.75 1846.59 3404.11 1858.27 3405.15 1851.91C3406.19 1845.55 3398.03 1783.89 3333.93 1775.42C3269.83 1766.9 3221.65 1825.72 3236.88 1832.44Z" fill="#20180F"/>
<path fill-rule="evenodd" clip-rule="evenodd" d="M3735.63 1816.16C3735.63 1816.16 3663.38 1815.08 3634.15 1836.99C3634.15 1836.99 3623.39 1840.91 3627.55 1826.39C3627.55 1826.39 3611.75 1838.07 3610.71 1831.71C3609.71 1825.31 3639.11 1767.25 3701.17 1758.73C3763.19 1750.3 3779.58 1804.56 3735.63 1816.16Z" fill="#20180F"/>
<path fill-rule="evenodd" clip-rule="evenodd" d="M3546.47 2030.11C3546.47 2030.11 3537.95 2037.19 3546.47 2044.27C3554.99 2051.35 3610.93 2031.51 3623.68 2013.08C3636.44 1994.64 3628.88 1992.56 3610.69 2003.16C3592.49 2013.8 3546.47 2030.11 3546.47 2030.11Z" fill="#20180F"/>
<path fill-rule="evenodd" clip-rule="evenodd" d="M3431.7 2087.47C3431.7 2087.47 3428.14 2081.12 3458.61 2081.12C3489.12 2081.12 3486.24 2086.75 3535.83 2087.47C3585.45 2088.19 3605.73 2087.47 3586.37 2100.23C3567.02 2112.99 3568.42 2112.27 3564.9 2122.18C3561.34 2132.1 3516.51 2149.86 3481.17 2137.78C3445.86 2125.74 3409.79 2093.75 3431.7 2087.47Z" fill="#EE4E2F"/>
<path fill-rule="evenodd" clip-rule="evenodd" d="M3218.92 1665.26C3224.35 1663.58 3217.04 1674.66 3241.59 1670.46C3266.18 1666.18 3333.2 1658.63 3393.66 1696.41C3393.66 1696.41 3404.5 1687.9 3405.22 1671.86C3405.94 1656.83 3304.13 1605.36 3217.48 1662.42C3211.56 1666.3 3213.4 1666.94 3218.92 1665.26Z" fill="#20180F"/>
<path fill-rule="evenodd" clip-rule="evenodd" d="M3735.63 1670.92C3735.63 1670.92 3699.76 1632.18 3639.3 1650.13C3578.8 1668.09 3584.48 1695.48 3586.4 1703.03C3588.24 1710.59 3631.7 1673.72 3677.05 1674.2C3722.39 1674.68 3735.63 1684.12 3735.63 1670.92Z" fill="#20180F"/>
<path fill-rule="evenodd" clip-rule="evenodd" d="M3244.58 1832.44C3244.58 1832.44 3358.42 1835.28 3388.65 1857.23C3388.65 1857.23 3399.73 1861.15 3395.45 1846.59C3395.45 1846.59 3411.76 1858.27 3412.8 1851.91C3413.88 1845.55 3405.73 1783.89 3341.63 1775.42C3277.49 1766.9 3229.34 1825.72 3244.58 1832.44Z" fill="black"/>
<path fill-rule="evenodd" clip-rule="evenodd" d="M3743.29 1816.16C3743.29 1816.16 3671.07 1815.08 3641.84 1836.99C3641.84 1836.99 3631.08 1840.91 3635.2 1826.39C3635.2 1826.39 3619.41 1838.07 3618.41 1831.71C3617.41 1825.31 3646.76 1767.25 3708.86 1758.73C3770.88 1750.3 3787.23 1804.56 3743.29 1816.16Z" fill="black"/>
<path fill-rule="evenodd" clip-rule="evenodd" d="M3554.16 2030.11C3554.16 2030.11 3545.64 2037.19 3554.16 2044.27C3562.64 2051.35 3618.62 2031.51 3631.38 2013.08C3644.13 1994.64 3636.57 1992.56 3618.34 2003.16C3600.19 2013.8 3554.16 2030.11 3554.16 2030.11Z" fill="black"/>
<path fill-rule="evenodd" clip-rule="evenodd" d="M3439.4 2087.47C3439.4 2087.47 3435.84 2081.12 3466.31 2081.12C3496.78 2081.12 3493.94 2086.75 3543.52 2087.47C3593.11 2088.19 3613.42 2087.47 3594.03 2100.23C3574.71 2112.99 3576.11 2112.27 3572.55 2122.18C3569.03 2132.1 3524.17 2149.86 3488.86 2137.78C3453.55 2125.74 3417.48 2093.75 3439.4 2087.47Z" fill="#EE4E2F"/>
<path fill-rule="evenodd" clip-rule="evenodd" d="M3226.61 1665.26C3232.05 1663.58 3224.73 1674.66 3249.28 1670.46C3273.87 1666.18 3340.89 1658.63 3401.35 1696.41C3401.35 1696.41 3412.19 1687.9 3412.91 1671.86C3413.59 1656.83 3311.78 1605.36 3225.17 1662.42C3219.25 1666.3 3221.09 1666.94 3226.61 1665.26Z" fill="black"/>
<path fill-rule="evenodd" clip-rule="evenodd" d="M3743.29 1670.92C3743.29 1670.92 3707.42 1632.18 3646.96 1650.13C3586.5 1668.09 3592.14 1695.48 3594.05 1703.03C3595.93 1710.59 3639.4 1673.72 3684.75 1674.2C3730.09 1674.68 3743.29 1684.12 3743.29 1670.92Z" fill="black"/>
<path fill-rule="evenodd" clip-rule="evenodd" d="M3811.08 1382.34C3788.45 1364.67 3856.42 1352.95 3830.23 1289.57C3813.36 1248.78 3741.66 1231.55 3719.39 1209.16C3705.11 1194.8 3743.3 1175.21 3705.79 1144.66C3680.2 1123.74 3602.7 1121.5 3562.04 1114.11C3481.5 1099.47 3457.35 1025.53 3358.9 1109.07C3352.1 1114.87 3341.71 1107.83 3343.63 1099.07C3345.9 1088.28 3348.22 1074.44 3349.42 1058.04C3350.42 1044.69 3388.33 1037.53 3397.65 1023.94C3421.2 989.746 3370.9 928.365 3359.14 881.66C3348.14 837.794 3257.53 824.998 3245.78 803.564C3143.81 618.183 2964.42 713.713 2910.96 841.033C2900.6 865.585 2852.14 821.759 2776.16 826.077C2713.06 829.636 2603.98 962.994 2725.9 1036.77C2725.9 1036.77 2667.76 1110.55 2689.51 1169.45C2699.07 1195.28 2782.6 1206.24 2795.44 1243.23C2807.07 1276.86 2872.93 1346.79 2917.08 1359.99C2920.08 1360.91 2920.28 1365.03 2917.36 1366.27C2881.49 1381.54 2762.85 1444.68 2838.22 1613.35C2853.3 1647.14 2809.47 1690.77 2830.71 1733.23C2847.82 1767.42 2877.17 1749.39 2895.97 1774.58C2909.16 1792.21 2883.13 1853.8 2900.52 1872.15C2924.64 1897.62 2953.03 1923.69 2986.22 1950.36C2986.22 1950.36 2901.48 1873.15 2947.51 1765.5C2971.66 1709.12 3030.76 1724.6 3053.24 1751.03C3079.27 1781.62 3110.14 1844.84 3125.21 1844.84C3140.25 1844.84 3101.34 1607.63 3271.13 1462.76C3325.19 1416.61 3412.92 1335.96 3601.3 1367.67C3808.6 1402.54 3830.23 1636.18 3830.23 1636.18C3830.23 1636.18 3876.94 1617.07 3878.98 1521.58C3880.38 1454.8 3863.14 1423.13 3811.08 1382.34Z" fill="#765227"/>
<path fill-rule="evenodd" clip-rule="evenodd" d="M3013.14 1846.15C3013.14 1846.15 3006.22 1838.15 3006.46 1850.94C3006.74 1863.74 3003.54 1870.7 2999.82 1869.62C2996.07 1868.58 2978.47 1837.87 3004.86 1823.47C3031.3 1809.08 3045.69 1837.63 3064.64 1873.1C3083.56 1908.57 3076.36 1958.95 3057.97 1960.83C3039.57 1962.71 3044.89 1949.91 3046.73 1924.32C3048.61 1898.69 3022.74 1851.46 3013.14 1846.15Z" fill="black"/>
<path fill-rule="evenodd" clip-rule="evenodd" d="M3274.43 1684.71H3474.37C3504.74 1684.71 3529.36 1709.32 3529.36 1739.69V1859.65C3529.36 1890.02 3504.74 1914.63 3474.37 1914.63H3274.43C3244.07 1914.63 3219.45 1890.02 3219.45 1859.65V1739.69C3219.45 1709.32 3244.07 1684.71 3274.43 1684.71ZM3474.37 1714.7H3274.43C3260.64 1714.7 3249.44 1725.88 3249.44 1739.69V1859.65C3249.44 1873.45 3260.64 1884.64 3274.43 1884.64H3474.37C3488.18 1884.64 3499.36 1873.45 3499.36 1859.65V1739.69C3499.36 1725.88 3488.18 1714.7 3474.37 1714.7Z" fill="#1E2214"/>
<path fill-rule="evenodd" clip-rule="evenodd" d="M3634.32 1684.71H3794.27C3824.64 1684.71 3849.26 1709.32 3849.26 1739.69V1859.65C3849.26 1890.02 3824.64 1914.63 3794.27 1914.63H3634.32C3603.96 1914.63 3579.34 1890.02 3579.34 1859.65V1739.69C3579.34 1709.32 3603.96 1684.71 3634.32 1684.71ZM3794.27 1714.7H3634.32C3620.52 1714.7 3609.33 1725.88 3609.33 1739.69V1859.65C3609.33 1873.45 3620.52 1884.64 3634.32 1884.64H3794.27C3808.08 1884.64 3819.26 1873.45 3819.26 1859.65V1739.69C3819.26 1725.88 3808.08 1714.7 3794.27 1714.7Z" fill="#1E2214"/>
<path fill-rule="evenodd" clip-rule="evenodd" d="M3513.73 1779.22C3513.73 1779.22 3569.97 1756.78 3593.7 1779.22L3590.22 1740.14H3513.73V1779.22Z" fill="#1E2214"/>
<path fill-rule="evenodd" clip-rule="evenodd" d="M3240.1 1759.68L3070.58 1750.95V1728.23L3246.49 1706.47L3240.1 1759.68Z" fill="#1E2214"/>
</svg>
