<svg width="9774" height="9591" viewBox="0 0 9774 9591" fill="none" xmlns="http://www.w3.org/2000/svg">
<g clip-path="url(#clip0_50_8029)">
<rect width="9774" height="9591" fill="white"/>
<path opacity="0.465216" fill-rule="evenodd" clip-rule="evenodd" d="M941.84 5024.88C937.141 6110.35 2139.1 6462.41 3626.48 5811.21L3627.59 5810.73C3697.62 5780.05 3766.26 5772.87 3826.51 5790.41C4117.84 5875.2 4443.93 5917.43 4796.68 5908.93C6433.41 5869.51 8023.74 4753.97 8348.78 3417.32C8673.83 2080.66 7610.5 1029.05 5973.77 1068.47C5134.04 1088.7 4306.52 1392.18 3655.83 1863.46C3629.65 1882.43 3602.93 1898.25 3576.1 1910.48C2119.74 2574.13 946.458 3955.84 941.84 5024.88Z" fill="#CDEEEC"/>
<path fill-rule="evenodd" clip-rule="evenodd" d="M7558.52 7043.32H7600.27C7600.27 7043.32 7592.56 6798.09 7761.59 6548.29C7930.58 6298.53 8060.45 6293.97 8060.45 6293.97C8060.45 6293.97 7916.8 6298.95 7724.37 6548.29C7601.4 6707.63 7561.76 6981.78 7558.52 7043.32Z" fill="#090E2B"/>
<path fill-rule="evenodd" clip-rule="evenodd" d="M7302.16 6944.35L7263.23 6933.89C7263.23 6933.89 7343.96 6477.81 7154.96 6150.79C6965.96 5823.79 6148.19 5460.02 6148.19 5460.02C6179.41 5449.95 6953.31 5763.53 7192.94 6150.79C7329.22 6371.03 7341.47 6816.82 7302.16 6944.35Z" fill="#090E2B"/>
<path fill-rule="evenodd" clip-rule="evenodd" d="M7879.86 6398.53C7879.86 6398.53 7659.3 6141.83 7866.25 5978.79C7866.25 5978.79 8017.43 5887.49 8140.72 5894.9C8140.72 5894.9 7966.04 6187.08 8022.56 6216.14C8079.07 6245.19 8193.67 5876.57 8193.67 5876.57C8193.67 5876.57 8537.73 5843.29 8648.4 5896.38C8648.4 5896.38 8354.28 6136.45 8416.21 6150.75C8478.17 6165.04 8795.84 5929.39 8795.84 5929.39C8795.84 5929.39 9116.04 5983.76 9098.97 6178.6C9081.9 6373.43 8971.58 6433.63 8923.08 6428.43C8874.59 6423.27 8590.9 6315.25 8584.75 6354.87C8578.56 6394.5 8749.32 6524.01 8868.9 6530.09C8868.9 6530.09 8643.14 6778.43 8493.09 6706.75C8343.04 6635.1 8330.25 6521.46 8236.72 6478.87C8143.19 6436.24 8063.35 6436.35 8101.98 6479.82C8140.58 6523.26 8309.85 6565.5 8363.33 6659.88C8416.81 6754.26 8464.81 6817.92 8309.57 6794.59C8154.33 6771.29 7902.02 6658.01 7890.92 6528.25L7879.86 6398.53Z" fill="#017C7F"/>
<path fill-rule="evenodd" clip-rule="evenodd" d="M7485.95 6979.7H7523.49C7523.49 6979.7 7453.05 6534.93 7559.49 6152.43C7665.94 5769.92 7827.16 5636.52 7827.16 5636.52C7827.16 5636.52 7642.47 5726.65 7509.19 6218.96C7463.52 6387.67 7452.73 6872.07 7485.95 6979.7Z" fill="#090E2B"/>
<path fill-rule="evenodd" clip-rule="evenodd" d="M7108.9 6075.03C7108.9 6075.03 7459.48 5878.54 7295.87 5611.87C7295.87 5611.87 7164.99 5448.14 7024.77 5406.04C7024.77 5406.04 7099.55 5803.68 7024.77 5813.05C6949.97 5822.41 6973.35 5363.93 6973.35 5363.93C6973.35 5363.93 6604.08 5186.16 6459.18 5200.18C6459.18 5200.18 6688.21 5588.48 6613.44 5579.13C6538.64 5569.77 6281.55 5176.79 6281.55 5176.79C6281.55 5176.79 5902.94 5106.62 5842.17 5331.17C5781.41 5555.74 5879.57 5668.02 5935.65 5682.04C5991.75 5696.08 6351.67 5691.41 6342.31 5738.19C6332.97 5784.96 6089.91 5859.82 5954.35 5817.72C5954.35 5817.72 6103.93 6187.3 6300.25 6168.59C6496.57 6149.88 6557.34 6028.24 6678.87 6018.89C6800.4 6009.53 6889.21 6042.28 6828.44 6075.03C6767.68 6107.77 6562.01 6085.75 6463.85 6169.28C6365.69 6252.79 6286.23 6304.26 6468.53 6341.69C6650.82 6379.12 6978.02 6355.72 7043.47 6215.4L7108.9 6075.03Z" fill="#009BA0"/>
<path fill-rule="evenodd" clip-rule="evenodd" d="M7667.57 5804.86C7667.57 5804.86 7205.98 5545.86 7421.39 5194.38C7421.39 5194.38 7593.73 4978.55 7778.35 4923.04C7778.35 4923.04 7679.87 5447.2 7778.35 5459.53C7876.82 5471.86 7846.07 4867.54 7846.07 4867.54C7846.07 4867.54 8233.79 4681.85 8539.12 4645.48C8539.12 4645.48 8211.2 5145.12 8383.13 5145.12C8555.06 5145.12 8756.96 4620.89 8756.96 4620.89C8756.96 4620.89 9311.83 4560.82 9335.48 4824.39C9359.09 5087.95 9286.24 5268.37 9212.37 5286.87C9138.53 5305.37 8664.63 5299.2 8676.93 5360.86C8689.23 5422.53 9009.3 5521.2 9187.76 5465.7C9187.76 5465.7 8990.81 5952.85 8732.32 5928.19C8473.83 5903.52 8393.81 5743.2 8233.79 5730.85C8073.78 5718.53 7956.85 5761.69 8036.84 5804.86C8116.86 5848.03 8387.66 5819.01 8516.92 5929.1C8646.18 6039.18 8750.77 6107.02 8510.77 6156.35C8270.73 6205.67 7839.89 6174.85 7753.75 5989.85L7667.57 5804.86Z" fill="#009BA0"/>
<path fill-rule="evenodd" clip-rule="evenodd" d="M6894.01 6923.14H8269L8198.41 7525.17C8181.73 7667.62 8060.98 7775 7917.58 7775H7222.13C7074.5 7775 6951.72 7661.43 6940.21 7514.25L6894.01 6923.14Z" fill="#4B4843"/>
<path opacity="0.708915" fill-rule="evenodd" clip-rule="evenodd" d="M8837.34 8216.52C8837.34 7890.39 6958.42 7626 4640.67 7626C2322.92 7626 444 7890.39 444 8216.52C444 8405.37 1074.05 8573.53 2054.49 8681.63C1968.34 8759.88 1920.69 8845.89 1920.69 8936.17C1920.69 9297.85 2685.17 9591.05 3628.19 9591.05C4405.14 9591.05 5060.87 9146.54 5267.75 8989.97C5313.14 8955.6 5362.2 8945.3 5410.17 8960.44C5631.4 9030.32 6304.91 9227 6876.64 9227C7819.66 9227 8584.14 8933.8 8584.14 8572.1C8584.14 8524.48 8570.75 8478.03 8545.56 8433.29C8733.87 8366.16 8837.34 8293.05 8837.34 8216.52Z" fill="#96DAD5"/>
<path fill-rule="evenodd" clip-rule="evenodd" d="M5316 1625.67H5982.67V1487L6329.33 1711L5982.67 1935V1796.33H5316V1625.67Z" fill="white"/>
<path fill-rule="evenodd" clip-rule="evenodd" d="M1129.55 1189.72H6149.63V916.945H1129.55V1189.72Z" fill="#4E5055"/>
<path fill-rule="evenodd" clip-rule="evenodd" d="M1123.61 4924.88H6155.59V911H1123.61V4924.88ZM1135.5 4912.99H6143.7V922.889H1135.5V4912.99Z" fill="black"/>
<path fill-rule="evenodd" clip-rule="evenodd" d="M2872.22 2817.54H835.01C799.105 2817.54 770 2788.44 770 2752.53V1521.55C770 1485.64 799.105 1456.52 835.01 1456.52H2872.22C2908.13 1456.52 2937.24 1485.64 2937.24 1521.55V2752.53C2937.24 2788.44 2908.13 2817.54 2872.22 2817.54Z" fill="#E1E1E1"/>
<path fill-rule="evenodd" clip-rule="evenodd" d="M959.346 1837.99H2747.89V1712.93H959.346V1837.99Z" fill="#F1EFEF"/>
<path fill-rule="evenodd" clip-rule="evenodd" d="M2455.37 2557.31H2744.06V2329.74H2455.37V2557.31ZM963.182 2557.31H1278.75V2329.74H963.182V2557.31ZM963.182 2322.08H1278.75V2038.7H963.182V2322.08ZM1286.4 2322.08H1668.4V2038.7H1286.4V2322.08ZM1676.07 2322.08H2058.05V2038.7H1676.07V2322.08ZM2065.71 2557.31H2447.7V2329.74H2065.71V2557.31ZM1286.4 2557.31H1668.4V2329.74H1286.4V2557.31ZM1676.07 2557.31H2058.05V2329.74H1676.07V2557.31ZM2065.71 2322.08H2447.7V2038.7H2065.71V2322.08ZM2455.37 2322.08H2744.06V2038.7H2455.37V2322.08ZM2747.89 1709.11C2745.77 1709.11 2744.06 1710.82 2744.06 1712.94V2031.05H2455.37V1712.94C2455.37 1710.82 2453.64 1709.11 2451.53 1709.11C2449.42 1709.11 2447.7 1710.82 2447.7 1712.94V2031.05H2065.71V1712.94C2065.71 1710.82 2064 1709.11 2061.88 1709.11C2059.77 1709.11 2058.05 1710.82 2058.05 1712.94V2031.05H1676.07V1712.94C1676.07 1710.82 1674.34 1709.11 1672.24 1709.11C1670.12 1709.11 1668.4 1710.82 1668.4 1712.94V2031.05H1286.4V1712.94C1286.4 1710.82 1284.69 1709.11 1282.57 1709.11C1280.46 1709.11 1278.75 1710.82 1278.75 1712.94V2031.05H963.182V1712.94C963.182 1710.82 961.458 1709.11 959.354 1709.11C957.238 1709.11 955.514 1710.82 955.514 1712.94V2561.13C955.514 2563.24 957.238 2564.96 959.354 2564.96H2747.89C2750.01 2564.96 2751.72 2563.24 2751.72 2561.13V1712.94C2751.72 1710.82 2750.01 1709.11 2747.89 1709.11Z" fill="#B5B6B7"/>
<path fill-rule="evenodd" clip-rule="evenodd" d="M5503.45 2856.65V1573.8C5503.45 1559.63 5491.97 1548.14 5477.79 1548.14H5072.82C5058.66 1548.14 5047.18 1559.63 5047.18 1573.8V2856.65H4826.92V2100.68C4826.92 2086.51 4815.42 2075.03 4801.25 2075.03H4396.29C4382.12 2075.03 4370.63 2086.51 4370.63 2100.68V2856.65H4150.36V2571.22C4150.36 2557.05 4138.89 2545.56 4124.71 2545.56H3719.75C3705.58 2545.56 3694.09 2557.05 3694.09 2571.22V2856.65H3241.52C3221.19 2856.65 3204.71 2873.12 3204.71 2893.44C3204.71 2913.77 3221.19 2930.24 3241.52 2930.24H5634.09C5654.42 2930.24 5670.9 2913.77 5670.9 2893.44C5670.9 2873.12 5654.42 2856.65 5634.09 2856.65H5503.45Z" fill="#4E5055"/>
<path fill-rule="evenodd" clip-rule="evenodd" d="M4574.65 5253H3383.89C3354.39 5253 3330.5 5229.1 3330.5 5199.61V4188.71C3330.5 4159.23 3354.39 4135.32 3383.89 4135.32H4574.65C4604.14 4135.32 4628.05 4159.23 4628.05 4188.71V5199.61C4628.05 5229.1 4604.14 5253 4574.65 5253Z" fill="#F1EFEF"/>
<path fill-rule="evenodd" clip-rule="evenodd" d="M4413.67 4421.58H3544.82C3533.37 4421.58 3524.09 4412.29 3524.09 4400.84C3524.09 4389.39 3533.37 4380.11 3544.82 4380.11H4413.67C4425.14 4380.11 4434.41 4389.39 4434.41 4400.84C4434.41 4412.29 4425.14 4421.58 4413.67 4421.58Z" fill="#E1E1E1"/>
<path fill-rule="evenodd" clip-rule="evenodd" d="M4413.67 4617.13H3544.82C3533.37 4617.13 3524.09 4607.84 3524.09 4596.39C3524.09 4584.93 3533.37 4575.66 3544.82 4575.66H4413.67C4425.14 4575.66 4434.41 4584.93 4434.41 4596.39C4434.41 4607.84 4425.14 4617.13 4413.67 4617.13Z" fill="#E1E1E1"/>
<path fill-rule="evenodd" clip-rule="evenodd" d="M4413.67 4812.66H3544.82C3533.37 4812.66 3524.09 4803.37 3524.09 4791.92C3524.09 4780.46 3533.37 4771.19 3544.82 4771.19H4413.67C4425.14 4771.19 4434.41 4780.46 4434.41 4791.92C4434.41 4803.37 4425.14 4812.66 4413.67 4812.66Z" fill="#E1E1E1"/>
<path fill-rule="evenodd" clip-rule="evenodd" d="M4413.67 5008.2H3544.82C3533.37 5008.2 3524.09 4998.92 3524.09 4987.47C3524.09 4976 3533.37 4966.73 3544.82 4966.73H4413.67C4425.14 4966.73 4434.41 4976 4434.41 4987.47C4434.41 4998.92 4425.14 5008.2 4413.67 5008.2Z" fill="#E1E1E1"/>
<path fill-rule="evenodd" clip-rule="evenodd" d="M5172.06 3860.07H4110.86C4090.98 3860.07 4074.88 3843.96 4074.88 3824.09V3142.88C4074.88 3123.01 4090.98 3106.9 4110.86 3106.9H5172.06C5191.93 3106.9 5208.04 3123.01 5208.04 3142.88V3824.09C5208.04 3843.96 5191.93 3860.07 5172.06 3860.07Z" fill="#F1EFEF"/>
<path fill-rule="evenodd" clip-rule="evenodd" d="M5063.61 3299.82H4219.33C4211.62 3299.82 4205.35 3293.56 4205.35 3285.85C4205.35 3278.12 4211.62 3271.86 4219.33 3271.86H5063.61C5071.31 3271.86 5077.58 3278.12 5077.58 3285.85C5077.58 3293.56 5071.31 3299.82 5063.61 3299.82Z" fill="#E1E1E1"/>
<path fill-rule="evenodd" clip-rule="evenodd" d="M5063.61 3431.58H4219.33C4211.62 3431.58 4205.35 3425.33 4205.35 3417.61C4205.35 3409.89 4211.62 3403.63 4219.33 3403.63H5063.61C5071.31 3403.63 5077.58 3409.89 5077.58 3417.61C5077.58 3425.33 5071.31 3431.58 5063.61 3431.58Z" fill="#E1E1E1"/>
<path fill-rule="evenodd" clip-rule="evenodd" d="M5063.61 3563.35H4219.33C4211.62 3563.35 4205.35 3557.1 4205.35 3549.38C4205.35 3541.66 4211.62 3535.4 4219.33 3535.4H5063.61C5071.31 3535.4 5077.58 3541.66 5077.58 3549.38C5077.58 3557.1 5071.31 3563.35 5063.61 3563.35Z" fill="#E1E1E1"/>
<path fill-rule="evenodd" clip-rule="evenodd" d="M5063.61 3695.12H4219.33C4211.62 3695.12 4205.35 3688.87 4205.35 3681.15C4205.35 3673.42 4211.62 3667.17 4219.33 3667.17H5063.61C5071.31 3667.17 5077.58 3673.42 5077.58 3681.15C5077.58 3688.87 5071.31 3695.12 5063.61 3695.12Z" fill="#E1E1E1"/>
<path fill-rule="evenodd" clip-rule="evenodd" d="M3256.59 3409.42C3148.16 3275.4 2982.43 3189.64 2796.62 3189.64V3781.1L3256.59 3409.42Z" fill="#83BB9E"/>
<path fill-rule="evenodd" clip-rule="evenodd" d="M3200.28 3482.79C3203.26 3486.3 3206.22 3489.82 3209.11 3493.41L2749.14 3865.08V3273.61C2422.47 3273.61 2157.67 3538.42 2157.67 3865.08C2157.67 4191.73 2422.47 4456.54 2749.14 4456.54C3075.78 4456.54 3340.6 4191.73 3340.6 3865.08C3340.6 3719.28 3287.74 3585.89 3200.28 3482.79Z" fill="#635857"/>
<path fill-rule="evenodd" clip-rule="evenodd" d="M3095.41 2001.41H3820.2V1537.68H3095.41V2001.41Z" fill="#B0ABA7"/>
<path fill-rule="evenodd" clip-rule="evenodd" d="M3464.92 1769.54L3822.27 1540.9C3824.04 1539.76 3824.57 1537.39 3823.42 1535.62C3822.28 1533.83 3819.89 1533.31 3818.13 1534.46L3457.81 1765L3097.48 1534.46C3095.72 1533.32 3093.33 1533.83 3092.18 1535.62C3091.05 1537.39 3091.57 1539.76 3093.34 1540.9L3450.71 1769.54L3093.34 1998.19C3091.57 1999.33 3091.05 2001.69 3092.18 2003.48C3093.32 2005.26 3095.69 2005.77 3097.48 2004.63L3457.81 1774.09L3818.13 2004.63C3818.78 2005.05 3819.49 2005.24 3820.2 2005.24C3821.45 2005.24 3822.7 2004.62 3823.42 2003.48C3824.57 2001.69 3824.04 1999.33 3822.27 1998.19L3464.92 1769.54Z" fill="#F1EFEF"/>
<path fill-rule="evenodd" clip-rule="evenodd" d="M4279.3 1765.72H3889.06C3886.95 1765.72 3885.22 1767.43 3885.22 1769.54C3885.22 1771.66 3886.95 1773.37 3889.06 1773.37H4279.3C4281.42 1773.37 4283.13 1771.66 4283.13 1769.54C4283.13 1767.43 4281.42 1765.72 4279.3 1765.72ZM4400.5 1660.21H3889.06C3886.95 1660.21 3885.22 1661.92 3885.22 1664.04C3885.22 1666.14 3886.95 1667.87 3889.06 1667.87H4400.5C4402.62 1667.87 4404.34 1666.14 4404.34 1664.04C4404.34 1661.92 4402.62 1660.21 4400.5 1660.21ZM4169.78 1871.22H3889.06C3886.95 1871.22 3885.22 1872.93 3885.22 1875.05C3885.22 1877.16 3886.95 1878.88 3889.06 1878.88H4169.78C4171.9 1878.88 4173.61 1877.16 4173.61 1875.05C4173.61 1872.93 4171.9 1871.22 4169.78 1871.22Z" fill="#B5B6B7"/>
<path fill-rule="evenodd" clip-rule="evenodd" d="M6765.1 6398.18C6751.93 6668.21 6830.97 7073.25 6933.05 7125.95C6933.05 7125.95 6985.75 6358.66 6975.85 6269.75C6965.99 6180.84 6977.11 6009.62 6977.11 6009.62C6977.11 6009.62 6781.59 5607.85 6742.03 5380.65L6639.99 5670.41C6639.99 5670.41 6778.28 6128.15 6765.1 6398.18ZM5925.36 5729.69C5852.93 5584.78 5864.47 5499.18 5864.47 5499.18C5994.54 4396.03 6491.76 3632.01 6491.76 3632.01C6491.76 3632.01 6623.5 3394.92 6923.19 3394.92C7222.84 3394.92 7203.08 3655.08 7203.08 3655.08C7285.4 3753.85 7557.11 3987.67 7674 4379.54C7776.7 4723.84 7576.87 5607.85 7571.88 5714.18C7566.97 5820.55 7549.68 6489.56 7376.78 6822.98C7203.88 7156.41 7153.66 7474.98 7143.8 7560.61C7133.94 7646.28 7196.5 7779.62 7158.65 7805.97C7120.76 7832.28 6918.24 7983.78 6888.58 7992.01C6858.96 8000.27 6669.61 8028.22 6621.86 8033.17C6574.12 8038.15 6575.75 7977.23 6618.55 7952.52C6661.35 7927.81 6733.84 7896.51 6774.97 7804.33C6816.13 7712.11 6855.68 7552.39 6880.36 7498.09C6905.07 7443.72 6929.78 7321.88 6929.78 7321.88C6890.22 7348.23 6745.34 7626.48 6746.98 7644.61C6748.62 7662.69 6429.2 7697.27 6429.2 7697.27C6417.67 7629.8 6587.26 7565.56 6587.26 7565.56C6575.75 7483.24 6646.57 7201.71 6646.57 7201.71C6646.57 7201.71 6537.87 6882.26 6452.24 6753.84C6366.65 6625.41 5997.81 5874.6 5925.36 5729.69Z" fill="#FFD4AA"/>
<path fill-rule="evenodd" clip-rule="evenodd" d="M7151.17 7507.63C7151.17 7507.63 7168 7636.34 7181.18 7689.07C7194.35 7741.77 7217.39 7758.18 7181.18 7799.38C7144.97 7840.54 7136.71 7911.36 7136.71 7911.36H7112.03L7126.84 7842.21C7126.84 7842.21 7028.21 7901.46 6977.09 7955.79C6925.96 8010.12 6665.83 8050.03 6601.59 8040.62C6537.4 8031.17 6512.69 7993.64 6725.07 7863.61C6725.07 7863.61 6863.4 7893.2 6927.6 7950.88C6927.6 7950.88 7074.18 7824.09 7116.98 7801.02C7116.98 7801.02 7164.69 7716.57 7143.29 7596.61C7143.29 7596.61 7126.11 7558.34 7151.17 7507.63Z" fill="#7D6E4D"/>
<path fill-rule="evenodd" clip-rule="evenodd" d="M6932.55 7308.7C6932.55 7308.7 6779.42 7503 6738.26 7626.48C6738.26 7626.48 6600.45 7556.15 6556.16 7578.84C6556.16 7578.84 6415.53 7642.96 6415.53 7679.17C6415.53 7715.42 6455.05 7707.19 6756.38 7662.69C6756.38 7662.69 6842.46 7447.59 6915.48 7384.75L6932.55 7308.7Z" fill="#7D6E4D"/>
<path fill-rule="evenodd" clip-rule="evenodd" d="M7235.57 3585.07C7235.57 3585.07 7260.49 3629.54 7247.59 3683.87C7247.59 3683.87 7744.71 4084.14 7772.28 4580.88C7799.81 5077.66 7630.68 5615.9 7650.44 5797.93C7670.2 5979.96 7577.98 6414.63 7317.82 7244.47C7317.82 7244.47 7192.7 7323.55 6932.57 7270.86C6932.57 7270.86 6899.6 6246.68 6932.57 5976.65C6932.57 5976.65 6780.37 5669.99 6747.78 5462.97L6674.04 5637.51C6674.04 5637.51 6816.2 6012.9 6808.53 6253.3C6800.83 6493.67 6906.18 6773.56 6906.18 6773.56C6906.18 6773.56 6692.16 6938.23 6481.38 6944.82C6481.38 6944.82 5957.42 5979.96 5863.78 5647.37C5770.09 5314.79 6096.13 4030.47 6425.41 3701.16C6425.41 3701.16 6443.5 3582.45 6442.94 3575.87C6442.38 3569.32 6457.51 3559.17 6466.78 3559.07C6476.05 3558.93 6507.87 3420.85 6841.64 3375.16C6841.64 3375.16 7172.24 3295 7235.57 3585.07Z" fill="#439785"/>
<path fill-rule="evenodd" clip-rule="evenodd" d="M7214.09 3707.76C7182.86 3718.39 7151.74 3728.6 7119.85 3736.2C7088.35 3744.91 7056.46 3752.06 7024.39 3757.95C6960.27 3769.48 6895.62 3776.91 6830.86 3777.71C6766 3780.01 6701.49 3771.75 6638.03 3759.31L6590.6 3748.19L6544.49 3732.4L6521.17 3724.8L6498.87 3714.7C6484.02 3707.83 6468.96 3701.25 6453.7 3694.76C6508.45 3730.97 6568.29 3762.44 6633.18 3778.82C6697.45 3796.35 6764.47 3805.59 6831.21 3803.81C6897.88 3802.35 6964.34 3794.02 7028.68 3777.54C7092.91 3761.09 7155.99 3739.23 7214.09 3707.76Z" fill="#2D2D2D"/>
<path fill-rule="evenodd" clip-rule="evenodd" d="M6965.48 3623.53C6954.43 3651.48 6951.85 3679.99 6952.24 3708.5C6952.83 3722.79 6954.05 3737.11 6957.47 3751.36C6960.81 3765.09 6965.06 3781.02 6977.02 3791.27C6974.54 3776.98 6977.85 3763.39 6977.78 3749.45C6978.55 3735.61 6978.48 3721.7 6978.34 3707.8C6977.12 3679.92 6974.96 3651.97 6965.48 3623.53Z" fill="#2D2D2D"/>
<path fill-rule="evenodd" clip-rule="evenodd" d="M6901.27 3623.53C6890.82 3651.72 6888.93 3680.3 6889.94 3708.84C6890.92 3723.1 6892.38 3737.39 6896.18 3751.54C6899.77 3765.34 6904.76 3780.71 6916.08 3791.27C6914.2 3776.74 6916.71 3763.11 6916.43 3749.17C6916.85 3735.3 6916.54 3721.43 6916.01 3707.49C6914.2 3679.64 6911.38 3651.79 6901.27 3623.53Z" fill="#2D2D2D"/>
<path fill-rule="evenodd" clip-rule="evenodd" d="M6573.63 3585.92C6562.06 3611.71 6559.13 3638.34 6559.03 3665C6559.44 3678.28 6560.49 3691.69 6563.52 3705.01C6566.34 3718.15 6571.19 3731.91 6580.21 3743.03C6580.98 3729.05 6583.28 3716.4 6583.84 3703.4C6584.99 3690.47 6585.09 3677.58 6585.13 3664.61C6584.43 3638.65 6582.58 3612.65 6573.63 3585.92Z" fill="#2D2D2D"/>
<path fill-rule="evenodd" clip-rule="evenodd" d="M6540.67 3541.44C6525.62 3571.65 6519 3603.44 6515.27 3635.64C6513.84 3651.81 6512.93 3668.05 6514.29 3684.5C6515.51 3700.67 6517.88 3718.27 6527.12 3732.88C6527.92 3716.32 6532.59 3701.23 6534.64 3685.44C6537.4 3669.86 6539.42 3654.08 6541.23 3638.29C6544.09 3606.61 6545.94 3574.72 6540.67 3541.44Z" fill="#2D2D2D"/>
<path fill-rule="evenodd" clip-rule="evenodd" d="M6889.73 3791.28C6903.08 3849.45 6923.92 3905.67 6947.1 3960.84C6971.56 4015.45 6999.51 4068.81 7033.42 4118.68C7067.33 4168.52 7107.83 4214.03 7153.83 4253.9C7201.13 4292.27 7254.8 4323.22 7313.32 4342.53L7330.15 4348.14L7330.04 4330.12L7329.49 4247.84L7329.42 4241.25L7324.01 4237.56C7283.9 4209.92 7245.32 4178.31 7208.76 4145.38C7172.58 4111.92 7136.86 4077.69 7105.36 4039.78C7042.31 3964.81 6988.99 3877.51 6977 3777.55C6978.11 3827.6 6992.02 3876.81 7011.95 3922.95C7032.06 3969.34 7061.09 4011.06 7091.35 4051.14C7122.02 4091.15 7156.52 4127.98 7193.36 4162.17C7230.33 4196.36 7268.57 4228.64 7310.11 4258.12L7304.67 4247.84L7304.11 4330.12L7320.81 4317.72C7266.02 4299.52 7214.76 4271.68 7169.06 4235.47C7124.14 4198.18 7085.6 4153.74 7050.05 4106.93C7014.99 4059.64 6985.33 4008.27 6958.88 3955.33C6931.93 3902.53 6908.86 3847.67 6889.73 3791.28Z" fill="#2D2D2D"/>
<path fill-rule="evenodd" clip-rule="evenodd" d="M7334.28 4563.94C7338.64 4664 7341.26 4763.92 7342.34 4863.8C7343.17 4963.76 7344.5 5063.61 7341.5 5163.46C7340.66 5263.31 7337.21 5363.16 7332.68 5462.94C7328.99 5562.82 7322.02 5662.5 7317.07 5762.63C7332.82 5663.72 7344.84 5564.11 7352.76 5464.19C7361.47 5364.31 7364.71 5264.07 7367.6 5163.88C7368.4 5063.64 7367.46 4963.34 7362.38 4863.21C7357.04 4763.12 7349.41 4663.06 7334.28 4563.94Z" fill="#2D2D2D"/>
<path fill-rule="evenodd" clip-rule="evenodd" d="M7317.08 5950.31C7305.05 6034.41 7294.56 6118.47 7283.86 6202.53L7252.01 6454.58C7242.29 6538.71 7230.54 6622.49 7219.32 6706.41C7207.85 6790.29 7195.38 6873.97 7182.8 6957.99C7206.01 6876.23 7223.5 6793.04 7239.18 6709.58C7254.55 6626.05 7266.13 6541.95 7277.91 6457.85C7287.45 6373.51 7297.21 6289.21 7303.76 6204.59C7310.35 6119.97 7315.79 6035.28 7317.08 5950.31Z" fill="#2D2D2D"/>
<path fill-rule="evenodd" clip-rule="evenodd" d="M7382.36 7035.33C7345.38 7041.88 7308.44 7044.04 7271.71 7046.27C7234.87 7047.94 7198.1 7048.4 7161.3 7047.56C7124.46 7047.14 7087.65 7044.77 7050.68 7042.72L6939.08 7035.33C6974.7 7047.32 7011.19 7056.97 7048.34 7062.96C7085.42 7069.27 7123.03 7072.76 7160.77 7073.7C7198.52 7074.01 7236.37 7072.41 7273.76 7066.52C7311.02 7060.73 7348.27 7051.6 7382.36 7035.33Z" fill="#2D2D2D"/>
<path fill-rule="evenodd" clip-rule="evenodd" d="M6848.83 6580.43C6776.44 6607.54 6706.29 6636.96 6634.8 6662.75C6599.15 6675.68 6563.36 6688.29 6526.97 6698.75C6490.52 6708.93 6453.89 6718.68 6415.55 6724.19C6493.2 6733.01 6571.38 6713.04 6643.76 6687.28C6716.29 6660.24 6786.03 6625.74 6848.83 6580.43Z" fill="#2D2D2D"/>
<path fill-rule="evenodd" clip-rule="evenodd" d="M6639.99 5670.4C6597.47 5702.43 6561.58 5740.8 6528.26 5781.37C6496.23 5822.49 6464.27 5865.92 6448.48 5917.39C6464.93 5896.59 6482.39 5877.49 6498.95 5857.55C6515.85 5837.9 6532.09 5817.75 6548.61 5797.71C6580.88 5757.08 6612.84 5716.13 6639.99 5670.4Z" fill="#2D2D2D"/>
<path fill-rule="evenodd" clip-rule="evenodd" d="M6632.16 5591.38C6588.43 5618.84 6550.86 5653.45 6516.18 5690.81C6482.44 5728.59 6449.93 5769.75 6432.01 5818.61L6535.49 5708.41C6569.01 5671.02 6602.68 5633.69 6632.16 5591.38Z" fill="#2D2D2D"/>
<path fill-rule="evenodd" clip-rule="evenodd" d="M6656.76 3694.76C6656.76 3718.28 6674.05 3737.38 6695.35 3737.38C6716.67 3737.38 6733.93 3718.28 6733.93 3694.76C6733.93 3671.23 6716.67 3652.13 6695.35 3652.13C6674.05 3652.13 6656.76 3671.23 6656.76 3694.76Z" fill="#2D2D2D"/>
<path fill-rule="evenodd" clip-rule="evenodd" d="M6747.82 5387.2L6701.01 5148.4C6685.82 5068.83 6669.19 4989.62 6656.16 4909.74C6641.14 4830.24 6628 4750.4 6616.64 4670.34C6605.24 4590.29 6595.65 4509.99 6589.73 4428.93C6584.78 4510.16 6589.38 4591.72 6596.7 4672.71C6603.98 4753.81 6617.4 4834.11 6630.44 4914.37C6645.7 4994.22 6662.01 5073.85 6681.46 5152.72C6701.05 5231.56 6722.1 5310.08 6747.82 5387.2Z" fill="#2D2D2D"/>
<path fill-rule="evenodd" clip-rule="evenodd" d="M7199.29 7335.15L6944.87 7355.44V7231.61C6944.87 7231.61 6931.39 7229.38 6929.12 7202.34C6926.89 7175.33 6929.12 7042.54 6929.12 7042.54C6929.12 7042.54 6893.12 7026.75 6879.6 6997.51C6866.07 6968.24 6868.34 6934.47 6868.34 6934.47C6868.34 6934.47 6851.51 6900.7 6828.4 6905.19C6805.29 6909.69 6668.01 6983.99 6546.45 6979.49C6546.45 6979.49 6559.94 7082.62 6577.96 7130.09C6595.94 7177.59 6609.46 7497.25 6546.45 7544.54C6483.4 7591.8 6350.55 7627.8 6382.09 7670.6C6413.6 7713.4 6656.76 7702.11 6701.78 7690.85C6746.81 7679.59 6812.09 7605.32 6812.09 7605.32C6812.09 7605.32 6807.59 7715.63 6776.05 7753.9C6744.55 7792.16 6719.77 7864.2 6668.01 7891.21C6616.22 7918.22 6499.16 7979 6535.16 8017.27C6571.19 8055.54 6872.87 8035.29 6913.37 8017.27C6953.9 7999.29 7032.7 7906.96 7032.7 7906.96C7032.7 7906.96 7030.43 7956.49 7055.18 7958.75C7079.96 7960.98 7120.49 7967.74 7158.76 7949.76C7158.76 7949.76 7197.06 7783.14 7217.31 7765.15C7237.56 7747.13 7176.77 7591.8 7176.77 7591.8L7199.29 7335.15Z" fill="#313030"/>
<path fill-rule="evenodd" clip-rule="evenodd" d="M6549.98 3833.03C6559.45 3836.99 6588.69 3837.93 6616.26 3835.01C6643.83 3832.05 6737.32 3894.74 6807.23 3920.91C6877.11 3947.11 6878.96 3933.66 6878.96 3933.66C7058.51 3841.3 7341.86 3687.18 7341.86 3687.18L7367.36 3112.66L7232.57 3376.41L7218.56 3559.2C7048.17 3723.39 6467.7 3615.52 6467.7 3615.52L6421.45 3373.49C6421.45 3373.49 6149.66 2936.09 6223.35 2774.89C6297 2613.68 6569.55 2371.92 6759.82 2231.67C6759.82 2231.67 6715.24 1951 6824.98 1876.25C6934.72 1801.43 6975.67 1918.78 6975.67 1918.78C6975.67 1918.78 7004.15 2185.31 7103.1 2254.95C7202.04 2324.62 7635.58 2510.44 7692.78 2844.49C7749.97 3178.51 7643.41 3824.76 7603.89 3851.51C7564.38 3878.24 6969.94 4154.5 6793.47 4112.28C6616.99 4070.09 6549.98 4016.75 6549.98 4016.75L6524.93 4002.02C6494.47 3984.05 6457.43 3980.68 6424.21 3993.05C6403.42 4000.73 6386.51 4001.98 6381.72 4003.75C6372.92 4007.05 6305.07 4028.39 6266.5 4003.27C6256.78 3996.94 6268.42 3976.2 6286.65 3975.4C6295.91 3974.98 6271.32 3972.58 6267.19 3961.46C6264.22 3953.33 6283.75 3944.95 6297.42 3937.1C6305.8 3932.27 6288.43 3928.34 6280.89 3920.91C6280.89 3920.91 6300.28 3873.58 6402.37 3840.67C6479.16 3831.67 6540.48 3829.13 6549.98 3833.03Z" fill="#FFD4AA"/>
<path fill-rule="evenodd" clip-rule="evenodd" d="M7049.44 2130.12C7049.44 2130.12 6978.07 2260.11 6859.62 2246.14C6741.16 2232.17 6749.35 2184.12 6749.35 2184.12L6651.14 2286.68L6646.39 2298.42C6646.39 2298.42 6596.34 2333.48 6541.5 2387.06C6243.12 2678.61 7325.93 2605.44 7325.93 2424.29C7325.93 2424.29 7285 2396.37 7215.29 2298.42L7049.44 2130.12Z" fill="#F7EDE2"/>
<path fill-rule="evenodd" clip-rule="evenodd" d="M6884.81 2363.25C6884.81 2363.25 6931.19 2451.49 7000.37 2417.81C7023.46 2403.99 7045.82 2388.97 7067.34 2373.06C7111.07 2341.94 7214.74 2263.71 7179.25 2302.13C7143.75 2340.56 7079.62 2384.63 7010.54 2429.78C6941.48 2474.92 6888.14 2399.28 6873.54 2367.41C6866.26 2351.44 6858.5 2335.68 6852.42 2319.33C6846.49 2303.05 6839.61 2286.67 6838 2269.53C6842.91 2286.06 6851.29 2301.51 6859.45 2317.02L6884.81 2363.25Z" fill="#3D3737"/>
<path fill-rule="evenodd" clip-rule="evenodd" d="M6684.08 2387.78C6699.62 2401.22 6760.87 2395.59 6783.23 2359.22C6805.59 2322.84 6838 2269.53 6838 2269.53C6829.58 2291.67 6801.38 2354.39 6796.92 2364.03C6792.46 2373.68 6773.35 2400.38 6733.45 2406.87C6693.54 2413.36 6680.19 2404.52 6661.59 2380.52C6642.88 2356.79 6636.22 2343.31 6628.89 2315.73C6642.66 2341.45 6668.54 2374.33 6684.08 2387.78Z" fill="#3D3737"/>
<path fill-rule="evenodd" clip-rule="evenodd" d="M6838 2269.53C6807.01 2382.6 6777.91 2496.1 6748.05 2609.32L6702.76 2778.81C6694.88 2806.92 6686.76 2834.88 6678.04 2862.52C6673.26 2875.73 6669.16 2890.52 6663.58 2902.04C6661.27 2907.73 6657.7 2915 6654.26 2922.14C6651.29 2929.3 6648.38 2936.54 6646.04 2943.84C6613.31 3061.77 6630.88 3187.63 6669.79 3296.6C6684.19 3351.89 6686.02 3410.84 6690.7 3469.57C6693.57 3498.9 6696.98 3528.66 6705.4 3557.21C6713.48 3585.6 6728.91 3613.17 6753.13 3628.74C6730.55 3610.71 6718.13 3583.17 6711.78 3555.35C6705.43 3527.15 6703.93 3497.92 6702.96 3468.73C6700.72 3410.38 6701.26 3350.7 6688.46 3291.61C6681.18 3261.51 6672.03 3235.2 6666.05 3206.95C6659.84 3178.89 6655.89 3150.26 6653.89 3121.56C6650.15 3064.4 6653.19 3005.49 6669.76 2952.27C6671.76 2945.64 6674.27 2939.24 6676.77 2932.95C6679.58 2926.95 6682.35 2921.12 6685.56 2913.28C6692.37 2898.42 6695.74 2884.73 6700.72 2870.39C6709.27 2842.11 6717.06 2813.76 6724.64 2785.38C6739.43 2728.51 6753.96 2671.67 6766.62 2614.34C6792.64 2499.93 6817.06 2385.13 6838 2269.53Z" fill="#3D3737"/>
<path fill-rule="evenodd" clip-rule="evenodd" d="M6208.82 2802.54C6208.82 2802.54 6107.85 3052.95 6074.6 3322.77C6074.6 3322.77 5817.89 3279.76 5683.25 3205.5C5683.25 3205.5 5628.82 3105.75 5574.06 3088.15C5519.31 3070.55 5337.49 3023.75 5337.49 3054C5337.49 3084.25 5382.45 3109.65 5382.45 3109.65C5382.45 3109.65 5345.3 3121.36 5286.64 3111.61C5228.01 3101.85 5157.61 3133.98 5157.61 3133.98C5157.61 3133.98 5112.65 3142.76 5089.19 3157.51C5065.74 3172.21 5073.54 3207.41 5167.4 3203.51C5167.4 3203.51 5140.04 3215.25 5149.8 3232.85C5159.59 3250.45 5251.46 3248.47 5312.09 3279.76C5372.69 3311.06 5546.71 3285.62 5546.71 3285.62C5546.71 3285.62 5884.98 3573.04 6076.59 3641.49C6268.2 3709.9 6328.81 3557.39 6373.77 3314.96C6418.73 3072.5 6460.34 2704.61 6208.82 2802.54Z" fill="#FFD4AA"/>
<path fill-rule="evenodd" clip-rule="evenodd" d="M5571.1 3100.14C5559.81 3087.87 5542.24 3083.48 5525.93 3082.33C5509.34 3081.11 5492.68 3084.88 5476.93 3087.49C5445.35 3093.9 5413.74 3100.11 5382.48 3109.62C5414.79 3107.25 5446.78 3101.5 5478.74 3096C5494.7 3092.58 5509.9 3089.27 5525.76 3089.02C5541.23 3089.09 5557.85 3090.56 5571.1 3100.14Z" fill="black"/>
<path fill-rule="evenodd" clip-rule="evenodd" d="M5322.3 3157.48C5293.27 3145.15 5262.2 3138.63 5231 3134.27C5215.29 3132.74 5199.5 3131.76 5183.71 3132.18C5167.89 3132.74 5152.17 3134.97 5136.94 3138.91C5199.64 3135.81 5260.56 3146.4 5322.3 3157.48Z" fill="black"/>
<path fill-rule="evenodd" clip-rule="evenodd" d="M5559.66 3183.42C5530.07 3167.22 5496.33 3158.44 5461.9 3157.08C5444.68 3156.14 5427.19 3158.23 5410.22 3162.13C5393.87 3166.1 5377.6 3170.88 5361.53 3175.65C5345.46 3180.88 5330.44 3185.59 5314.62 3187.01C5298.76 3188.79 5282 3188.48 5265.62 3188.51C5249.17 3188.51 5232.69 3186.49 5215.33 3186.7C5197.87 3187.19 5180.76 3193.43 5167.38 3203.5C5198.68 3187.12 5230.88 3198.55 5264.79 3201.93C5281.79 3203.85 5298.59 3204.34 5316.05 3203.43C5333.72 3202.42 5350.93 3197.12 5366.69 3192.31C5398.82 3182.52 5429.7 3171.44 5461.97 3170.43C5494.38 3169.03 5527.53 3173.98 5559.66 3183.42Z" fill="black"/>
<path fill-rule="evenodd" clip-rule="evenodd" d="M6535.49 3880.56C6487.6 3895.44 6440.66 3912 6393.89 3928.86L6323.21 3953.99C6311.43 3958.42 6299.72 3962.98 6288.04 3968.32C6282.22 3971.03 6276.4 3973.75 6270.58 3977.2C6267.65 3978.98 6264.73 3980.83 6261.76 3983.3C6259.05 3986.19 6254.86 3988.15 6253.5 3996.96C6254.48 4007.1 6258.77 4008.46 6261.63 4011.57C6264.8 4014.25 6268.11 4016.06 6271.42 4017.6C6278.08 4020.56 6284.84 4022.47 6291.53 4023.42C6304.95 4025.54 6318.15 4025.09 6331.05 4023.69C6356.77 4020.73 6381.58 4013.45 6404.86 4004.56C6449.4 3987.73 6503.95 3987.27 6543.54 4019.48C6526.85 4000.48 6502.1 3989.75 6476.97 3985.15C6451.46 3981.35 6425.25 3984.52 6400.68 3991.81C6376.74 3998.74 6353.46 4005.95 6329.41 4007.91C6317.53 4009.02 6305.57 4009.09 6294.39 4007C6288.7 4006.16 6283.44 4004.39 6278.74 4002.19C6276.44 4001.08 6274.28 3999.75 6272.71 3998.39C6270.97 3997.63 6270.23 3994.11 6270.9 3997.83C6269.43 4000.45 6274.94 3993.76 6279.4 3991.74C6284.24 3988.74 6289.68 3985.98 6295.08 3983.34C6306.03 3978.07 6317.46 3973.33 6328.92 3968.73C6351.82 3959.36 6375.55 3951.93 6398.42 3941.41C6444.53 3921.86 6490.46 3902.03 6535.49 3880.56Z" fill="black"/>
<path fill-rule="evenodd" clip-rule="evenodd" d="M6562.94 3846.63C6533.77 3835.09 6500.87 3839.52 6470.93 3846.24C6440.33 3853.18 6412 3865.79 6384.05 3878.55C6356.34 3892.04 6329.33 3907.09 6303.89 3924.17C6290.82 3932.74 6279.22 3941.07 6265.17 3948.57C6261.68 3951.01 6257.71 3954.7 6257.19 3960.42C6256.74 3966.27 6260.95 3970 6264.23 3972.2C6271.37 3976.69 6279.32 3977.67 6286.95 3978.02C6279.67 3975.89 6272.24 3973.14 6267.05 3968.5C6261.16 3963.38 6263.29 3958.53 6269.6 3955.89C6283.26 3950.55 6297.48 3942.54 6310.72 3935.71C6337.63 3921.42 6364.22 3907.13 6391.54 3894.27C6418.83 3881.34 6446.33 3868.65 6474.56 3859.07C6502.82 3850.11 6532.62 3842.31 6562.94 3846.63Z" fill="black"/>
<path fill-rule="evenodd" clip-rule="evenodd" d="M7719.18 2955.02C7661.92 2635.11 7536.87 2451.41 7210.48 2307.54C7210.48 2307.54 7045.53 2473.87 6838.26 2473.87C6685.13 2473.87 6650.09 2387.66 6572.21 2348.98C6572.21 2348.98 6174.03 2451.83 6050.1 3313.15C6050.1 3313.15 5777.4 3539.1 6008.11 3657.9C6238.83 3776.68 6271.9 3788.42 6342.09 3656.3C6342.09 3656.3 6375.2 3605.52 6385.2 3526.16C6395.24 3446.8 6415.35 3406.9 6415.35 3406.9L6448.94 3617.44C6448.94 3617.44 6983.11 3769.08 7228.85 3560.6C7228.85 3560.6 7233.35 3398.61 7239.34 3377.62C7245.37 3356.64 7326.26 3199.29 7333.75 3199.29C7341.25 3199.29 7320.06 3660.2 7320.06 3660.2C7320.06 3660.2 7253.76 3715.99 7202.15 3740.7C7188.65 3747.15 7245.11 3832.84 7265.61 3922.04C7283.77 4001.08 7264.22 4029.14 7282.93 4024.87C7361.52 4006.89 7567.96 3986.9 7635.32 3839.51C7661.5 3782.22 7776.4 3274.92 7719.18 2955.02Z" fill="#3D3737"/>
<path fill-rule="evenodd" clip-rule="evenodd" d="M6952.93 2986.5C7171.2 2986.5 7310.64 2951.82 7327.51 2947.4C7601.76 2979.21 7702.23 2874.14 7706.38 2869.64C7709.62 2866.12 7709.41 2860.65 7705.89 2857.37C7702.34 2854.1 7696.83 2854.34 7693.59 2857.83C7692.62 2858.84 7593.53 2961.2 7327.89 2929.9C7326.81 2929.8 7325.66 2929.83 7324.55 2930.14C7322.25 2930.77 7089.44 2994.31 6735.38 2957.75C6382.23 2921.29 6297.16 2888.98 6296.32 2888.64C6294.13 2888.08 6213.59 2870.44 6173.54 2838.1C6169.78 2835.1 6164.31 2835.7 6161.27 2839.39C6158.24 2843.15 6158.83 2848.63 6162.56 2851.66C6205.88 2886.65 6287.82 2904.49 6291.27 2905.26C6293.26 2906.17 6376.41 2938.19 6733.61 2975.1C6813.14 2983.29 6886.67 2986.5 6952.93 2986.5Z" fill="#FEFDFA"/>
<path fill-rule="evenodd" clip-rule="evenodd" d="M6926.76 3065.33C7158.1 3065.33 7313.5 3042.33 7328.98 3039.92C7572.76 3069.82 7718.2 2966.52 7724.3 2962.06C7728.17 2959.24 7729.04 2953.8 7726.22 2949.9C7723.43 2946 7717.96 2945.12 7714.05 2947.98C7712.62 2948.96 7567.33 3051.84 7329.88 3022.49C7329.05 3022.46 7328.25 3022.43 7327.41 3022.53C7324.8 3022.98 7066.62 3063.97 6705.9 3040.9C6349.09 3018.07 6291.1 2998.48 6288.8 2997.68C6287.34 2997.16 6285.63 2997.05 6284.13 2997.3C6283.22 2997.51 6187.14 3015.25 6133.05 2957.22C6129.77 2953.73 6124.23 2953.56 6120.75 2956.83C6117.19 2960.08 6117.02 2965.62 6120.29 2969.14C6176.82 3029.74 6269.25 3017.48 6285.21 3014.79C6299.19 3018.87 6377.64 3037.34 6704.79 3058.25C6784.25 3063.34 6858.8 3065.33 6926.76 3065.33Z" fill="#FEFDFA"/>
<path fill-rule="evenodd" clip-rule="evenodd" d="M6833.18 3179.48C7093.27 3179.48 7310.61 3148.54 7329.11 3145.82C7649.92 3187.78 7736.49 3101.03 7740.05 3097.37C7743.36 3093.85 7743.22 3088.35 7739.73 3085.04C7736.32 3081.65 7730.78 3081.76 7727.47 3085.31C7726 3086.74 7640.06 3169.2 7330.19 3128.39C7329.39 3128.29 7328.59 3128.29 7327.75 3128.43C7321.79 3129.33 6726.77 3217.72 6308.31 3104.34C6306.6 3103.86 6304.79 3103.96 6303.15 3104.52C6301.97 3104.94 6181.94 3145.36 6103.49 3063.32C6100.11 3059.84 6094.64 3059.77 6091.15 3063.04C6087.7 3066.39 6087.56 3071.9 6090.91 3075.38C6171.45 3159.62 6286.91 3127.94 6306.29 3121.84C6470.51 3165.93 6661.22 3179.48 6833.18 3179.48Z" fill="#FEFDFA"/>
<path fill-rule="evenodd" clip-rule="evenodd" d="M7333.77 3199.28C7343.01 3112.08 7338.75 3023.87 7324.36 2937.16C7316.62 2893.88 7307 2850.7 7291.36 2809.29C7276.19 2767.89 7256.09 2727.39 7227.23 2694.18C7247.58 2733.07 7260.3 2774.2 7271.91 2815.43C7283.2 2856.83 7291.49 2899.1 7298.64 2941.55C7306.27 2983.93 7311.88 3026.8 7317.53 3069.7L7333.77 3199.28Z" fill="#1E1717"/>
<path fill-rule="evenodd" clip-rule="evenodd" d="M6415.29 2629.95C6385.53 2689.83 6355.42 2748.38 6319.8 2804.66C6284.81 2863.11 6266.13 2932.29 6268.64 3001.3C6270.03 3035.77 6276.24 3069.88 6286.66 3102.54C6297.36 3135.41 6312.1 3165.62 6326.42 3195.42C6354.9 3255.54 6383.79 3315.55 6415.29 3374.31C6393.72 3311.16 6369.46 3249.2 6344.86 3187.4C6318.72 3125.54 6295.86 3065.42 6294.74 3000.43C6291.85 2936.26 6308.19 2872.17 6337.36 2814.25C6369.36 2755.87 6395.71 2693.59 6415.29 2629.95Z" fill="#1E1717"/>
<path fill-rule="evenodd" clip-rule="evenodd" d="M7032.77 1889.78C7032.77 1889.78 6993.25 1968.82 6906.81 2020.68C6820.38 2072.54 6711.71 2151.58 6657.38 2134.3C6603.05 2117.01 6459.04 2006.67 6424.47 1883.23C6389.9 1759.71 6368.43 1553.88 6390.63 1452.63C6412.86 1351.36 6538.82 1138.97 6763.54 1138.97C6988.33 1138.97 7188.38 1376.03 7134.05 1637.84C7134.05 1637.84 7196.5 1714.44 7143.04 1793.45C7089.57 1872.49 7032.77 1889.78 7032.77 1889.78Z" fill="#FFD4AA"/>
<path fill-rule="evenodd" clip-rule="evenodd" d="M6898.64 1724.3C6898.64 1724.3 6799.42 1726.77 6773.07 1745.91C6773.07 1745.91 6763.41 1749.32 6767.14 1736.64C6767.14 1736.64 6752.92 1746.81 6752.02 1741.27C6751.08 1735.73 6758.19 1681.99 6814.05 1674.6C6869.96 1667.18 6911.92 1718.44 6898.64 1724.3Z" fill="black"/>
<path fill-rule="evenodd" clip-rule="evenodd" d="M6463.98 1710.11C6463.98 1710.11 6526.96 1709.17 6552.43 1728.27C6552.43 1728.27 6561.81 1731.69 6558.22 1719.03C6558.22 1719.03 6571.99 1729.21 6572.86 1723.67C6573.73 1718.09 6548.15 1667.49 6494.02 1660.07C6439.97 1652.71 6425.71 1700.01 6463.98 1710.11Z" fill="black"/>
<path fill-rule="evenodd" clip-rule="evenodd" d="M6628.8 1896.58C6628.8 1896.58 6636.22 1902.75 6628.8 1908.92C6621.41 1915.09 6572.62 1897.8 6561.5 1881.74C6550.38 1865.67 6556.97 1863.86 6572.86 1873.09C6588.68 1882.36 6628.8 1896.58 6628.8 1896.58Z" fill="black"/>
<path fill-rule="evenodd" clip-rule="evenodd" d="M6728.85 1946.58C6728.85 1946.58 6731.96 1941.04 6705.4 1941.04C6678.84 1941.04 6681.32 1945.96 6638.1 1946.58C6594.89 1947.21 6577.18 1946.58 6594.08 1957.7C6610.92 1968.82 6609.7 1968.19 6612.8 1976.83C6615.87 1985.48 6654.97 2000.95 6685.74 1990.43C6716.52 1979.94 6747.95 1952.05 6728.85 1946.58Z" fill="#EE4E2F"/>
<path fill-rule="evenodd" clip-rule="evenodd" d="M6914.29 1578.6C6909.55 1577.13 6915.93 1586.79 6894.53 1583.13C6873.1 1579.4 6814.69 1572.81 6761.99 1605.75C6761.99 1605.75 6752.55 1598.32 6751.92 1584.35C6751.33 1571.24 6840.06 1526.39 6915.55 1576.12C6920.71 1579.5 6919.1 1580.06 6914.29 1578.6Z" fill="black"/>
<path fill-rule="evenodd" clip-rule="evenodd" d="M6463.97 1583.53C6463.97 1583.53 6495.26 1549.76 6547.96 1565.41C6600.65 1581.06 6595.74 1604.93 6594.07 1611.52C6592.43 1618.11 6554.55 1585.97 6515.02 1586.39C6475.5 1586.81 6463.97 1595.04 6463.97 1583.53Z" fill="#20180F"/>
<path fill-rule="evenodd" clip-rule="evenodd" d="M6457.26 1583.53C6457.26 1583.53 6488.53 1549.76 6541.22 1565.41C6593.92 1581.06 6589 1604.93 6587.33 1611.52C6585.69 1618.11 6547.84 1585.97 6508.32 1586.39C6468.76 1586.81 6457.26 1595.04 6457.26 1583.53Z" fill="black"/>
<path fill-rule="evenodd" clip-rule="evenodd" d="M7060.34 1659.3C7060.34 1659.3 7086.03 1636.85 7134.02 1637.86C7134.02 1637.86 7148.9 1658.18 7154.23 1673.86C7154.23 1673.86 7225.01 1442.1 7238.01 1416.1C7251.01 1390.1 7241.88 1349.85 7221.11 1304.37C7200.34 1258.92 7188.73 1175.77 7164.65 1170.61C7140.57 1165.38 7123.67 1138.09 7097.67 1132.9C7071.7 1127.71 7060.69 1114.71 7060.34 1099.13C7059.99 1083.51 7052.22 1093.9 7052.22 1065.36C7052.22 1036.78 7043.12 953.623 6998.93 900.37C6998.93 900.37 6887.23 861.371 6865.14 865.275C6865.14 865.275 6832.69 918.528 6796.31 904.273C6759.92 889.984 6753.4 871.757 6722.25 871.757C6691.05 871.757 6670.28 869.178 6650.8 876.985C6631.28 884.757 6625.05 879.564 6618.42 906.852C6611.84 934.106 6553.36 971.781 6476.72 961.43C6476.72 961.43 6474.14 987.394 6449.43 982.201C6449.43 982.201 6420.33 1003.08 6429.63 963.521C6429.63 963.521 6391.23 996.456 6390.67 1009.11C6390.15 1021.72 6396.56 1054.66 6381.54 1062.36C6366.52 1070.03 6269.35 1118.68 6230.6 1124.88C6230.6 1124.88 6223.66 1135.72 6241.47 1148.86C6259.28 1162.04 6277.05 1177.54 6269.35 1188.35C6261.58 1199.22 6220.56 1206.96 6206.62 1182.95C6206.62 1182.95 6204.32 1189.15 6201.98 1200.76C6201.98 1200.76 6177.97 1196.12 6175.63 1210.83C6173.33 1225.53 6181.07 1268.44 6157.83 1269.41C6134.61 1270.46 6108.3 1255.72 6107.5 1275.09C6106.73 1294.44 6132.28 1295.97 6133.85 1311.48C6135.38 1326.95 6189.61 1347.86 6207.38 1370.31C6225.19 1392.79 6225.19 1425.3 6207.38 1429.14C6189.61 1433.04 6186.51 1433.04 6184.94 1452.38C6183.41 1471.76 6150.09 1492.67 6150.09 1492.67C6150.09 1492.67 6103.63 1470.19 6084.29 1483.37C6064.91 1496.54 6056.41 1519.75 6047.14 1524.42C6037.83 1529.06 6047.14 1549.2 6064.91 1543.76C6082.72 1538.33 6099.76 1528.26 6097.43 1564.68C6097.43 1564.68 6133.85 1586.35 6133.85 1595.66C6133.85 1604.93 6056.83 1579.38 6043.44 1622.74C6043.44 1622.74 6081.19 1637.45 6089.69 1643.65C6098.23 1649.85 6140.05 1636.26 6153.19 1659.3C6166.36 1682.37 6145.45 1680.8 6177.2 1698.61C6177.2 1698.61 6141.58 1717.19 6141.58 1742.77C6141.58 1768.31 6138.48 1776.82 6136.95 1786.89C6135.38 1796.96 6136.95 1802.36 6156.29 1802.36C6175.63 1802.36 6260.85 1800.06 6294.9 1811.67C6328.98 1823.27 6358.36 1827.94 6364.56 1838.75C6370.77 1849.62 6424.44 1883.22 6424.44 1883.22C6424.44 1883.22 6407.92 1781.49 6407.92 1742.77C6407.92 1704.05 6394.01 1603.4 6394.01 1603.4C6394.01 1603.4 6422.66 1589.63 6421.09 1561.26C6419.56 1532.93 6394.78 1522.05 6394.78 1522.05C6394.78 1522.05 6425 1521.32 6430.4 1494.21C6435.8 1467.09 6431.17 1450.85 6448.21 1440.01C6465.25 1429.14 6457.27 1408.26 6457.27 1408.26L6539.59 1366.47C6539.59 1366.47 6550.92 1394.32 6522.79 1399.76C6494.67 1405.16 6483.06 1411.08 6483.06 1432.52C6483.06 1453.92 6477.21 1477.16 6457.27 1481.07C6437.37 1484.9 6459.05 1491.1 6476.05 1486.47C6493.13 1481.8 6507.42 1470.19 6507.63 1452.38C6507.8 1434.61 6501.64 1425.79 6533.39 1432.52C6565.14 1439.24 6576.74 1432.24 6582.14 1419.1C6587.58 1405.93 6582.14 1408.26 6606.92 1403.63C6631.7 1398.96 6630.17 1381.95 6627.07 1368.01C6623.96 1354.07 6643.31 1330.82 6693.67 1332.39C6693.67 1332.39 6682.06 1344.8 6693.67 1364.91C6705.27 1385.05 6674.29 1370.31 6658.05 1394.32C6641.77 1418.33 6593.85 1420.63 6594.97 1429.14C6596.12 1437.71 6686.66 1448.51 6703.74 1418.33C6720.75 1388.15 6718.83 1404.39 6751.9 1399.76C6785.05 1395.09 6772.78 1357.94 6773.09 1350.2C6773.41 1342.43 6785.78 1354.07 6805.16 1350.97C6824.5 1347.86 6840.01 1341.69 6839.21 1306.84C6839.21 1306.84 6871.76 1307.61 6878.69 1292.87C6885.66 1278.16 6889.57 1300.64 6887.23 1314.55C6884.9 1328.52 6867.89 1349.26 6923.62 1374.07C6923.62 1374.07 6938.33 1443.11 6923.62 1477.16C6908.91 1511.25 6915.85 1529.82 6938.33 1543.76C6960.8 1557.7 6970.08 1570.32 6956.9 1579.49C6943.73 1588.69 6906.89 1604.93 6918.74 1628.94C6930.59 1652.92 6947.63 1643.23 6956.9 1659.3C6966.21 1675.4 6975.48 1651.39 6963.87 1637.86C6952.27 1624.27 6930.59 1618.97 6951.5 1605.76C6972.41 1592.56 6990.18 1607.47 6990.18 1586.84C6990.18 1566.21 6954.6 1528.26 6939.89 1518.22C6925.15 1508.15 6963.11 1484.17 6963.11 1484.17C6963.11 1484.17 6981.68 1488 6989.45 1479.5C6989.45 1479.5 6990.18 1554.85 7008.03 1579.49C7008.03 1579.49 6965.82 1643.65 7016.53 1668.43C7016.53 1668.43 6964.26 1689.06 6967.36 1710.11C6970.46 1731.16 7006.08 1730.53 6995.24 1746.32C6984.4 1762.11 6967.36 1786.12 6978.23 1801.6C6989.03 1817.07 7001.44 1782.22 7001.44 1782.22C7001.44 1782.22 7026.22 1764.58 7026.22 1746.32C7026.22 1728.06 6987.5 1714.89 6996 1704.05C7004.51 1693.21 7045.56 1691.71 7049.47 1673.86C7053.3 1656.02 7060.34 1659.3 7060.34 1659.3Z" fill="#2D1504"/>
<path fill-rule="evenodd" clip-rule="evenodd" d="M7097.17 1734.98C7097.17 1734.98 7103.2 1728.01 7102.99 1739.17C7102.75 1750.32 7105.54 1756.38 7108.78 1755.44C7112.06 1754.54 7127.39 1727.77 7104.39 1715.22C7081.35 1702.68 7068.8 1727.56 7052.28 1758.47C7035.8 1789.39 7042.07 1833.3 7058.1 1834.94C7074.14 1836.58 7069.5 1825.42 7067.9 1803.12C7066.26 1780.78 7088.81 1739.62 7097.17 1734.98Z" fill="black"/>
<path fill-rule="evenodd" clip-rule="evenodd" d="M6869.45 1594.28H6695.19C6668.73 1594.28 6647.27 1615.73 6647.27 1642.2V1746.75C6647.27 1773.22 6668.73 1794.67 6695.19 1794.67H6869.45C6895.91 1794.67 6917.37 1773.22 6917.37 1746.75V1642.2C6917.37 1615.73 6895.91 1594.28 6869.45 1594.28ZM6695.19 1620.42H6869.45C6881.48 1620.42 6891.23 1630.17 6891.23 1642.2V1746.75C6891.23 1758.78 6881.48 1768.54 6869.45 1768.54H6695.19C6683.16 1768.54 6673.41 1758.78 6673.41 1746.75V1642.2C6673.41 1630.17 6683.16 1620.42 6695.19 1620.42Z" fill="#F90606"/>
<path fill-rule="evenodd" clip-rule="evenodd" d="M6555.79 1594.28H6416.38C6389.92 1594.28 6368.46 1615.73 6368.46 1642.2V1746.75C6368.46 1773.22 6389.92 1794.67 6416.38 1794.67H6555.79C6582.25 1794.67 6603.71 1773.22 6603.71 1746.75V1642.2C6603.71 1615.73 6582.25 1594.28 6555.79 1594.28ZM6416.38 1620.42H6555.79C6567.82 1620.42 6577.57 1630.17 6577.57 1642.2V1746.75C6577.57 1758.78 6567.82 1768.54 6555.79 1768.54H6416.38C6404.35 1768.54 6394.6 1758.78 6394.6 1746.75V1642.2C6394.6 1630.17 6404.35 1620.42 6416.38 1620.42Z" fill="#F90606"/>
<path fill-rule="evenodd" clip-rule="evenodd" d="M6893.79 1715.05L7047.11 1686.86V1632.21L6893.79 1613.24V1715.05Z" fill="#F90606"/>
<path fill-rule="evenodd" clip-rule="evenodd" d="M6660.87 1676.65C6660.87 1676.65 6611.84 1657.1 6591.16 1676.65L6584.61 1607.74H6667.15L6660.87 1676.65Z" fill="#F90606"/>
<path fill-rule="evenodd" clip-rule="evenodd" d="M3308.34 5888.25C3441.93 5893.91 3545.63 6006.8 3539.97 6140.37C3534.31 6273.94 3421.43 6377.66 3287.84 6372C3154.26 6366.34 3050.56 6253.44 3056.22 6119.88C3061.88 5986.31 3174.76 5882.59 3308.34 5888.25ZM3289.55 6331.69C3400.87 6336.4 3494.94 6249.93 3499.66 6138.67C3504.37 6027.4 3417.95 5933.28 3306.63 5928.56C3195.32 5923.84 3101.25 6010.32 3096.53 6121.58C3091.82 6232.85 3178.24 6326.97 3289.55 6331.69Z" fill="#FF90A0"/>
<path fill-rule="evenodd" clip-rule="evenodd" d="M4927.63 7067.45C5012.97 7071.07 5085.09 7004.8 5088.71 6919.47C5092.32 6834.14 5026.06 6762 4940.72 6758.39C4855.38 6754.77 4783.26 6821.04 4779.64 6906.37C4776.03 6991.7 4842.28 7063.84 4927.63 7067.45Z" fill="#96DAD5"/>
<path fill-rule="evenodd" clip-rule="evenodd" d="M1649.72 6363.17C1606.8 6361.35 1573.47 6325.07 1575.3 6282.07C1577.11 6239.2 1613.39 6205.88 1656.31 6207.69C1699.23 6209.51 1732.56 6245.79 1730.74 6288.66C1728.92 6331.66 1692.64 6364.98 1649.72 6363.17Z" fill="#2A8C79"/>
</g>
<defs>
<clipPath id="clip0_50_8029">
<rect width="9774" height="9591" fill="white"/>
</clipPath>
</defs>
</svg>
