<svg width="9774" height="9591" viewBox="0 0 9774 9591" fill="none" xmlns="http://www.w3.org/2000/svg">
<rect width="9774" height="9591" fill="white"/>
<path fill-rule="evenodd" clip-rule="evenodd" d="M6453.02 257C7281.03 257 8186.24 563.602 8724.5 1267.65C8973.2 1592.97 9097.74 1974.85 9098.14 2354.42C9098.33 2782.99 8940.24 3208.62 8623.43 3547.61C8330.45 3860.97 7956.32 4073.13 7574.19 4247.31L7532.04 4266.43C7488.99 4286.13 7445.17 4308.2 7418.03 4348.19C7397.59 4378.06 7388.69 4414.84 7380.97 4450.8L7379.54 4457.53C7299.03 4834.99 7151.16 5157.37 6953.78 5429.27H6953.6C6602.05 5913.79 6092.21 6237.83 5524.15 6427.51C5089.11 6572.85 4619.74 6639.49 4160.65 6639.49C3388.47 6639.49 2679.67 6446.44 2124.43 6124.3L2124.24 6124.06C2027.52 6068.35 1935.34 6008.2 1848.49 5944.69C1282.99 5531.26 934.811 4966.63 934.811 4344.18C934.811 3157.53 2200.42 2181.15 3823.7 2061.29C4004.69 1041.59 5112.8 257 6453.02 257ZM2887.24 304.161C3168 304.161 3395.6 469.56 3395.6 673.591C3395.6 877.642 3168 1043.02 2887.24 1043.02C2606.47 1043.02 2378.87 877.642 2378.87 673.591C2378.87 469.56 2606.47 304.161 2887.24 304.161Z" fill="#CDEEEC"/>
<g opacity="0.886672">
<path opacity="0.708915" fill-rule="evenodd" clip-rule="evenodd" d="M8943.14 7864.6C8943.14 7538.46 7064.23 7274.08 4746.48 7274.08C2428.72 7274.08 549.808 7538.46 549.808 7864.6C549.808 8053.45 1179.86 8221.61 2160.3 8329.7C2074.15 8407.96 2026.5 8493.97 2026.5 8584.25C2026.5 8945.93 2790.98 9239.13 3734 9239.13C4510.94 9239.13 5166.68 8794.62 5373.56 8638.04C5418.95 8603.68 5468.01 8593.38 5515.98 8608.52C5737.21 8678.4 6410.72 8875.08 6982.45 8875.08C7925.47 8875.08 8689.95 8581.87 8689.95 8220.18C8689.95 8172.56 8676.56 8126.11 8651.37 8081.37C8839.67 8014.24 8943.14 7941.13 8943.14 7864.6Z" fill="#96DAD5"/>
<path fill-rule="evenodd" clip-rule="evenodd" d="M3656.1 7534.55C3656.1 7594.55 3632.28 7647.99 3594.92 7682.81H2233.89C2196.51 7647.99 2172.69 7594.55 2172.69 7534.55C2172.69 7429.32 2245.93 7344.14 2336.14 7344.14C2361.34 7344.14 2417.87 7350.89 2486.04 7362.76C2423.08 7322.21 2371.87 7285.57 2349.98 7266.74C2271.81 7199.37 2237.03 7070.76 2272.08 6979.85C2307.26 6888.74 2399.12 6869.72 2477.14 6937.28C2499.05 6956.12 2545.74 7004.24 2600.9 7065.47C2559.83 6983.15 2527.67 6913.33 2515.07 6880.56C2470.03 6763.65 2482.76 6626.25 2543.54 6573.83C2604.46 6521.21 2690.3 6573.43 2735.47 6690.33C2748.06 6722.89 2772.43 6799.48 2799.68 6893.86C2791.59 6791.9 2787.22 6707.34 2787.22 6669.45C2787.22 6534.53 2844.17 6425.17 2914.4 6425.17C2984.62 6425.17 3041.58 6534.53 3041.58 6669.45C3041.58 6707.34 3037.2 6791.9 3029.13 6893.86C3056.36 6799.48 3080.73 6722.89 3093.32 6690.33C3138.49 6573.43 3224.33 6521.21 3285.25 6573.83C3346.03 6626.25 3358.91 6763.65 3313.73 6880.56C3301.12 6913.33 3268.96 6983.15 3227.89 7065.47C3283.07 7004.24 3329.74 6956.12 3351.65 6937.28C3429.81 6869.72 3521.54 6888.74 3556.71 6979.85C3591.9 7070.76 3556.99 7199.37 3478.82 7266.74C3456.92 7285.57 3405.72 7322.21 3342.75 7362.76C3410.92 7350.89 3467.46 7344.14 3492.65 7344.14C3582.86 7344.14 3656.1 7429.32 3656.1 7534.55Z" fill="#43847F"/>
<path fill-rule="evenodd" clip-rule="evenodd" d="M4555.69 8080.98C4550.55 8065.49 4513.96 8067.64 4466.14 8083.96C4512.72 8004.75 4531.5 7931.46 4508.04 7906.1C4480.96 7876.81 4407.16 7921.7 4337.61 8007.29C4328.07 7934.92 4311.7 7887.17 4293.1 7887.17C4271.31 7887.17 4252.58 7952.68 4244.31 8046.53C4212.3 7964.68 4172.09 7913.32 4143.34 7924.05C4108.34 7937.13 4102.71 8037.67 4128.78 8154.42H4486.75C4532.08 8126.2 4560.91 8096.74 4555.69 8080.98Z" fill="#2A8C79"/>
<path fill-rule="evenodd" clip-rule="evenodd" d="M2870.02 8649.61C2870.02 8732.1 2645.81 8798.96 2369.21 8798.96C2092.62 8798.96 1868.4 8732.1 1868.4 8649.61C1868.4 8567.13 2092.62 8500.27 2369.21 8500.27C2645.81 8500.27 2870.02 8567.13 2870.02 8649.61Z" fill="#96DAD5"/>
<path fill-rule="evenodd" clip-rule="evenodd" d="M1234.46 8429.53C1234.46 8468.59 1132.29 8500.27 1006.24 8500.27C880.21 8500.27 778.026 8468.59 778.026 8429.53C778.026 8390.46 880.21 8358.79 1006.24 8358.79C1132.29 8358.79 1234.46 8390.46 1234.46 8429.53Z" fill="#96DAD5"/>
<path fill-rule="evenodd" clip-rule="evenodd" d="M4885.94 8626.03C4885.94 8652.11 4812.15 8673.19 4721.12 8673.19C4630.09 8673.19 4556.29 8652.11 4556.29 8626.03C4556.29 8599.97 4630.09 8578.87 4721.12 8578.87C4812.15 8578.87 4885.94 8599.97 4885.94 8626.03Z" fill="#2A8C79"/>
<path fill-rule="evenodd" clip-rule="evenodd" d="M3947.78 7092.93C3947.77 7092.77 3947.74 7092.63 3947.71 7092.49C3993.12 6995.09 4068.04 6929.14 4153.39 6915.31C4215.73 6905.2 4277.54 6922.6 4332.65 6965.67C4358.99 6942.06 4389.33 6926.96 4420.92 6921.83C4536 6903.19 4642.8 7017.74 4659.01 7177.26C4660.48 7191.67 4661.16 7206.26 4661.07 7220.8C4683.06 7205.07 4706.79 7195.05 4731.83 7191C4833.25 7174.55 4929.85 7260.9 4961.52 7396.3C4963.38 7404.24 4959.8 7412.59 4953.51 7414.92C4952.87 7415.17 4952.25 7415.34 4951.64 7415.44C4945.95 7416.36 4940.44 7411.98 4938.75 7404.81C4910.4 7283.6 4824.65 7206.2 4734.86 7220.74C4708.41 7225.01 4683.62 7236.9 4661.14 7256.01C4656.28 7260.13 4649.78 7259.19 4645.79 7253.8C4643.99 7251.36 4642.17 7248.92 4640.33 7246.54C4637.97 7243.53 4636.74 7239.37 4636.94 7235.15C4637.77 7217.17 4637.27 7198.98 4635.45 7181.06C4620.92 7037.97 4526.03 6935.04 4423.95 6951.57C4393.82 6956.46 4364.93 6971.74 4340.43 6995.73C4336.43 6999.66 4330.88 6999.95 4326.64 6996.42C4274.59 6953.21 4215.72 6935.44 4156.41 6945.06C4068.24 6959.35 3992.01 7034.78 3953.17 7144.23C3951.63 7127.14 3949.62 7110 3947.78 7092.93Z" fill="#EDFBFB"/>
<path fill-rule="evenodd" clip-rule="evenodd" d="M4985.62 7623.72C4983.49 7620.67 4968.39 7625.21 4954.69 7637.93C4951.72 7640.71 4948.98 7643.57 4946.56 7646.38C4947.89 7643.4 4949.16 7640 4950.26 7636.31C4954.33 7622.69 4953.34 7609.93 4951.06 7609.03C4948.79 7608.12 4941.22 7617.44 4937.15 7631.07C4935.54 7636.46 4934.52 7641.64 4934.08 7646.02C4933.79 7645.05 4933.49 7644.06 4933.17 7643.07C4931.28 7637.28 4928.76 7632.41 4926.32 7628.7C4935.73 7607.82 4939.47 7587.75 4926.11 7582.95C4921.34 7581.24 4905.38 7599.84 4896.31 7627.38C4895.65 7629.44 4895.03 7631.46 4894.44 7633.49C4893.55 7624.45 4891.46 7613.76 4888.12 7602.6C4879.73 7574.54 4864.1 7555.28 4859.42 7557.17C4854.7 7559.04 4852.67 7585.36 4861.08 7613.43C4863.34 7621.06 4865.96 7628.07 4868.7 7634.25C4863.72 7628.43 4858.08 7622.54 4851.91 7616.81C4823.66 7590.54 4792.51 7581.18 4788.14 7587.5C4764.58 7621.36 4862.7 7690.57 4887.64 7682.1C4894.36 7679.82 4907.84 7663 4918.68 7643.81C4924.08 7655.75 4933.3 7668.2 4937.38 7669.59C4949.46 7673.71 4997.03 7640.14 4985.62 7623.72Z" fill="#96DAD5"/>
<path fill-rule="evenodd" clip-rule="evenodd" d="M3548.65 7661.18C3548.64 7659.95 3548.61 7658.58 3548.6 7657.28L3548.02 7657.33C3548.22 7658.61 3548.44 7659.86 3548.65 7661.18Z" fill="#96DAD5"/>
<path fill-rule="evenodd" clip-rule="evenodd" d="M3410.11 7680.21C3410.31 7676.55 3410.49 7673.08 3410.66 7669.7L3407.08 7669.9C3408.07 7673.25 3409.07 7676.66 3410.11 7680.21Z" fill="#96DAD5"/>
<path fill-rule="evenodd" clip-rule="evenodd" d="M3521.77 7557.77C3521.76 7654.18 3509.88 7623.92 3508.03 7657.55C3495.21 7590.18 3481.92 7589.46 3481.92 7589.46C3481.92 7589.46 3478.13 7594.19 3465.92 7667.09L3554.67 7662.06C3534.04 7541.62 3521.77 7557.77 3521.77 7557.77Z" fill="#96DAD5"/>
<path fill-rule="evenodd" clip-rule="evenodd" d="M3402.55 7541.32C3402.54 7618.61 3405.3 7615.38 3402.53 7667.09L3453.24 7664.27C3433.32 7571.87 3402.55 7541.32 3402.55 7541.32Z" fill="#96DAD5"/>
<path fill-rule="evenodd" clip-rule="evenodd" d="M3559.16 7573.21C3555.76 7607.21 3554.37 7615.67 3554.72 7651.37L3580.03 7649.95C3575.16 7601.57 3559.91 7568.52 3559.16 7573.21Z" fill="#96DAD5"/>
<path fill-rule="evenodd" clip-rule="evenodd" d="M3713.26 7676.41C3713.31 7675.48 3713.37 7674.46 3713.42 7673.49L3712.89 7673.52C3713.02 7674.49 3713.13 7675.44 3713.26 7676.41Z" fill="#96DAD5"/>
<path fill-rule="evenodd" clip-rule="evenodd" d="M3574.29 7678.89C3574.65 7676.13 3575 7673.52 3575.31 7671L3572.06 7671.22C3572.78 7673.71 3573.53 7676.24 3574.29 7678.89Z" fill="#96DAD5"/>
<path fill-rule="evenodd" clip-rule="evenodd" d="M3661.83 7664.42L3706.82 7661.65C3692.77 7559.47 3678.8 7573.41 3678.8 7573.41C3672.98 7650.58 3670.25 7633.3 3659.96 7654.13C3651.36 7607.08 3626.68 7581.76 3632.41 7613.17C3630.24 7622.41 3626.09 7638.57 3618.07 7667.09L3642 7665.63L3661.83 7664.42Z" fill="#96DAD5"/>
<path fill-rule="evenodd" clip-rule="evenodd" d="M3582.81 7572.77C3580.4 7610.51 3573.17 7622.66 3572.49 7637.12C3571.03 7642.97 3568.89 7653.14 3567.35 7659.35L3578.32 7658.65C3577.75 7665.22 3576.98 7672.81 3575.8 7682.81L3630.75 7665.99C3618.11 7585.47 3582.81 7572.77 3582.81 7572.77Z" fill="#96DAD5"/>
<path fill-rule="evenodd" clip-rule="evenodd" d="M3716 7620.19C3710.55 7640.6 3708.63 7645.71 3706.82 7667.09L3732.18 7665.94C3730.26 7637 3717.02 7617.38 3716 7620.19Z" fill="#96DAD5"/>
<path fill-rule="evenodd" clip-rule="evenodd" d="M3753.86 7635.77C3754.78 7634.03 3743.76 7650 3732.18 7667.09L3757.53 7666.1C3755 7649.95 3753.13 7637.14 3753.86 7635.77Z" fill="#96DAD5"/>
<path fill-rule="evenodd" clip-rule="evenodd" d="M2103.27 7645.44C2103.26 7644.23 2103.23 7642.88 2103.22 7641.57L2102.64 7641.62C2102.84 7642.91 2103.06 7644.14 2103.27 7645.44Z" fill="#96DAD5"/>
<path fill-rule="evenodd" clip-rule="evenodd" d="M1964.73 7664.49C1964.93 7660.83 1965.11 7657.34 1965.28 7653.98L1961.7 7654.18C1962.69 7657.53 1963.69 7660.94 1964.73 7664.49Z" fill="#96DAD5"/>
<path fill-rule="evenodd" clip-rule="evenodd" d="M2063.71 7542.05C2063.7 7638.45 2051.82 7608.2 2049.97 7641.82C2037.15 7574.45 2023.87 7573.74 2023.87 7573.74C2023.87 7573.74 2020.07 7578.47 2007.86 7651.37L2096.62 7646.34C2075.98 7525.89 2063.71 7542.05 2063.71 7542.05Z" fill="#96DAD5"/>
<path fill-rule="evenodd" clip-rule="evenodd" d="M1957.16 7525.6C1957.15 7602.89 1959.91 7599.65 1957.15 7651.37L2007.86 7648.55C1987.93 7556.15 1957.16 7525.6 1957.16 7525.6Z" fill="#96DAD5"/>
<path fill-rule="evenodd" clip-rule="evenodd" d="M2101.1 7557.49C2097.71 7591.49 2096.31 7599.95 2096.67 7635.65L2121.97 7634.22C2117.1 7585.84 2101.85 7552.79 2101.1 7557.49Z" fill="#96DAD5"/>
<path fill-rule="evenodd" clip-rule="evenodd" d="M2255.2 7660.67C2255.25 7659.76 2255.32 7658.74 2255.37 7657.77L2254.83 7657.81C2254.95 7658.79 2255.07 7659.7 2255.2 7660.67Z" fill="#96DAD5"/>
<path fill-rule="evenodd" clip-rule="evenodd" d="M2128.91 7678.89C2129.28 7676.14 2129.62 7673.53 2129.94 7671L2126.68 7671.22C2127.4 7673.71 2128.15 7676.25 2128.91 7678.89Z" fill="#96DAD5"/>
<path fill-rule="evenodd" clip-rule="evenodd" d="M2216.46 7664.42L2261.44 7661.65C2247.39 7559.47 2233.42 7573.41 2233.42 7573.41C2227.6 7650.58 2224.87 7633.3 2214.58 7654.13C2205.98 7607.08 2181.3 7581.76 2187.03 7613.17C2184.86 7622.41 2180.71 7638.55 2172.69 7667.09L2196.63 7665.61L2216.46 7664.42Z" fill="#96DAD5"/>
<path fill-rule="evenodd" clip-rule="evenodd" d="M2137.43 7557.04C2135.02 7594.81 2127.79 7606.96 2127.11 7621.4C2125.65 7627.27 2123.51 7637.44 2121.97 7643.63L2132.94 7642.93C2132.37 7649.51 2131.6 7657.09 2130.42 7667.09L2185.37 7650.28C2172.73 7569.76 2137.43 7557.04 2137.43 7557.04Z" fill="#96DAD5"/>
<path fill-rule="evenodd" clip-rule="evenodd" d="M2257.93 7604.47C2252.48 7624.88 2250.56 7629.97 2248.76 7651.37L2274.12 7650.2C2272.19 7621.28 2258.97 7601.66 2257.93 7604.47Z" fill="#96DAD5"/>
<path fill-rule="evenodd" clip-rule="evenodd" d="M2308.48 7620.05C2309.39 7618.31 2298.39 7634.26 2286.8 7651.37L2312.15 7650.38C2309.62 7634.23 2307.76 7621.42 2308.48 7620.05Z" fill="#96DAD5"/>
<path fill-rule="evenodd" clip-rule="evenodd" d="M3880.9 8141.04C3880.18 8161.68 3879.45 8182.29 3878.72 8202.93C3878.67 8204.57 3878.6 8206.2 3878.54 8207.84C3881.9 8203.23 3888.14 8197.86 3895.8 8193.39C3908.55 8185.99 3921.08 8185.67 3922.24 8188.72C3923.41 8191.76 3915.26 8203.5 3902.5 8210.92C3892.22 8216.91 3882.52 8219.42 3878.2 8217.63C3877.49 8237.66 3876.78 8257.69 3876.07 8277.72C3875.97 8281 3869.7 8281.02 3869.83 8277.72L3871.31 8235.73C3871.73 8223.73 3872.16 8211.78 3872.58 8199.81C3866.7 8202.95 3853.05 8201.05 3838.18 8194.48C3819.66 8186.29 3807.06 8171.35 3808.34 8166.93C3809.62 8162.5 3827.06 8160.83 3845.59 8169.03C3858.18 8174.59 3868.37 8182.07 3872.97 8188.5C3873.3 8179.31 3873.63 8170.11 3873.96 8160.91C3874.22 8153.51 3874.47 8146.12 3874.75 8138.7L3880.9 8141.04Z" fill="#2A4D52"/>
<path fill-rule="evenodd" clip-rule="evenodd" d="M3891.22 8136.36C3890.17 8136.53 3889.13 8136.72 3888.06 8136.88C3846.09 8143.38 3810.42 8131.89 3808.34 8111.17C3806.28 8090.5 3838.63 8068.45 3880.58 8061.92C3922.55 8055.4 3958.23 8066.91 3960.31 8087.61C3962.19 8106.66 3934.92 8126.86 3897.84 8135.02L3891.22 8136.36Z" fill="#EDFBFB"/>
<path fill-rule="evenodd" clip-rule="evenodd" d="M4072.17 8360.09C4072.59 8371.55 4072.99 8382.99 4073.39 8394.47C4073.42 8395.37 4073.45 8396.29 4073.49 8397.21C4071.61 8394.63 4068.15 8391.66 4063.9 8389.17C4056.82 8385.05 4049.86 8384.88 4049.21 8386.58C4048.56 8388.26 4053.09 8394.78 4060.16 8398.9C4065.88 8402.24 4071.27 8403.62 4073.68 8402.63C4074.07 8413.78 4074.46 8424.91 4074.86 8436.02C4074.92 8437.84 4078.39 8437.84 4078.33 8436.02L4077.51 8412.69C4077.27 8406.04 4077.03 8399.39 4076.8 8392.74C4080.07 8394.49 4087.65 8393.43 4095.9 8389.77C4106.21 8385.23 4113.21 8376.93 4112.49 8374.47C4111.78 8372.01 4102.09 8371.08 4091.8 8375.64C4084.8 8378.72 4079.13 8382.88 4076.58 8386.45C4076.39 8381.34 4076.21 8376.25 4076.04 8371.13L4075.59 8358.79L4072.17 8360.09Z" fill="#2A4D52"/>
<path fill-rule="evenodd" clip-rule="evenodd" d="M4064.14 8357.84C4064.75 8357.92 4065.36 8358 4065.98 8358.06C4090.47 8360.66 4111.27 8356.05 4112.49 8347.78C4113.68 8339.5 4094.81 8330.68 4070.34 8328.07C4045.86 8325.47 4025.06 8330.06 4023.84 8338.35C4022.74 8345.96 4038.65 8354.05 4060.28 8357.31L4064.14 8357.84Z" fill="#EDFBFB"/>
<path fill-rule="evenodd" clip-rule="evenodd" d="M5129.17 8155.73C5128.75 8167.19 5128.36 8178.65 5127.96 8190.11C5127.92 8191.02 5127.89 8191.93 5127.85 8192.84C5129.73 8190.26 5133.19 8187.29 5137.44 8184.79C5144.53 8180.69 5151.49 8180.52 5152.13 8182.2C5152.79 8183.9 5148.25 8190.42 5141.17 8194.55C5135.45 8197.87 5130.07 8199.27 5127.66 8198.27C5127.27 8209.4 5126.88 8220.53 5126.48 8231.66C5126.42 8233.48 5122.95 8233.48 5123.02 8231.66L5123.83 8208.33C5124.08 8201.68 5124.3 8195.03 5124.54 8188.38C5121.27 8190.11 5113.69 8189.07 5105.44 8185.41C5095.14 8180.85 5088.13 8172.56 5088.85 8170.11C5089.56 8167.64 5099.25 8166.71 5109.55 8171.27C5116.54 8174.35 5122.21 8178.52 5124.76 8182.09C5124.94 8176.98 5125.13 8171.89 5125.31 8166.76C5125.44 8162.64 5125.6 8158.54 5125.75 8154.42L5129.17 8155.73Z" fill="#2A4D52"/>
<path fill-rule="evenodd" clip-rule="evenodd" d="M5137.2 8153.48C5136.59 8153.56 5135.98 8153.63 5135.36 8153.7C5110.88 8156.29 5090.07 8151.68 5088.85 8143.42C5087.66 8135.13 5106.53 8126.31 5131 8123.7C5155.48 8121.11 5176.29 8125.7 5177.5 8133.98C5178.61 8141.59 5162.69 8149.69 5141.06 8152.94L5137.2 8153.48Z" fill="#EDFBFB"/>
</g>
<path fill-rule="evenodd" clip-rule="evenodd" d="M4029.94 5749.13L4029.26 5753.65C3949.01 5741.88 3869.43 5724.86 3793.25 5700.96L3794.78 5696.8C3870.62 5720.34 3950.03 5737.36 4029.94 5749.13Z" fill="#EDFBFB"/>
<path fill-rule="evenodd" clip-rule="evenodd" d="M4095.6 5757.82H4058.78C4048.94 5756.56 4039.1 5755.29 4029.26 5753.66L4029.94 5749.13C4051.83 5752.57 4073.72 5755.29 4095.6 5757.82Z" fill="#EDFBFB"/>
<path fill-rule="evenodd" clip-rule="evenodd" d="M3642.96 6654.78C3618.02 6740.24 3582.56 6810.31 3513.5 6892.16C3513.16 6892.7 3512.65 6893.06 3512.31 6893.6C3490.09 6920.04 3466 6941.95 3440.71 6960.06C3521.82 6895.6 3580.69 6810.86 3621.41 6711.09C3629.05 6692.44 3636.17 6673.79 3642.96 6654.78Z" fill="#96DAD5"/>
<path fill-rule="evenodd" clip-rule="evenodd" d="M2567.43 6479.33L2466.31 6745.49C2449.17 6736.26 2433.22 6728.11 2421.35 6721.96C2419.14 6720.87 2417.28 6719.96 2415.41 6718.88L2519.08 6451.81C2538.76 6463.03 2557.25 6473.53 2567.43 6479.33Z" fill="#EDB39D"/>
<path fill-rule="evenodd" clip-rule="evenodd" d="M2444.26 6409.29C2443.07 6408.56 2441.88 6407.84 2440.86 6407.3C2438.32 6405.85 2436.79 6404.76 2436.11 6404.4L2181.44 6821.21C2163.12 6851.27 2196.03 6886.94 2224.2 6867.93C2224.37 6867.75 2224.54 6867.75 2224.54 6867.56L2332.45 6771.6L2333.46 6767.44L2333.97 6765.44L2355.01 6680.16C2355.35 6679.62 2355.52 6679.08 2355.69 6678.71C2356.88 6676.54 2359.42 6675.45 2361.63 6676.18C2364.34 6676.9 2366.21 6680.16 2365.36 6683.24L2348.05 6752.77L2346.53 6758.93L2385.72 6724.16L2387.25 6717.46L2402.86 6654.63C2403.03 6654.27 2403.2 6653.73 2403.54 6653.18V6653C2404.89 6651.01 2407.1 6650.11 2409.47 6650.65C2412.19 6651.55 2413.89 6654.63 2413.04 6657.71L2399.63 6711.67L2400.14 6711.31C2400.7 6711.6 2406.49 6714.46 2415.36 6718.95L2519.03 6451.87C2488.69 6434.64 2455.34 6415.66 2444.26 6409.29Z" fill="#672448"/>
<path fill-rule="evenodd" clip-rule="evenodd" d="M2579.48 6486.21C2576.42 6484.76 2573.54 6483.49 2570.49 6482.04C2571.67 6482.59 2573.2 6482.95 2575.07 6483.67C2575.24 6483.85 2575.41 6483.85 2575.75 6484.03C2576.93 6484.76 2578.29 6485.48 2579.48 6486.21Z" fill="#96DAD5"/>
<path fill-rule="evenodd" clip-rule="evenodd" d="M3962.45 7578.58L3957.34 7577.86C3960.22 7551.79 3962.6 7531.33 3963.45 7524.63H3963.63L3981.79 6480.78L3771.23 6182.93C3787.52 6109.42 3803.3 6035.72 3818.4 5962.03C3819.25 5957.87 3816.35 5956.6 3813.12 5957.5C3811.76 5957.87 3810.58 5958.77 3809.56 5960.04C3809.39 5960.04 3809.41 5960.04 3809.41 5960.22C3807.54 5962.21 3806.18 5965.11 3805.67 5967.46C3791.76 6035.36 3777.34 6102.9 3762.41 6170.44C3761.56 6174.78 3760.54 6179.31 3759.52 6183.66C3762.07 6184.38 3764.78 6185.1 3767.33 6185.83C3752.4 6258.25 3736.11 6330.32 3718.13 6401.84C3696.58 6486.94 3673.15 6571.86 3643.12 6654.06C3643.29 6654.43 3643.12 6654.61 3642.95 6654.79C3636.17 6673.8 3629.04 6692.45 3621.41 6711.1C3580.69 6810.87 3521.81 6895.6 3440.71 6960.06C3440.37 6960.24 3439.86 6960.61 3439.52 6960.79C3426.8 6970.93 3413.73 6980.34 3399.99 6989.4C3259 7081.92 3063.37 7041 2913.04 6993.56C2813.45 6962.06 2717.58 6915.7 2630.71 6854.68C2623.08 6849.25 2575.74 6819.38 2550.46 6796.74C2528.07 6780.08 2495.49 6761.25 2466.31 6745.5L2567.43 6479.34C2571.16 6481.51 2573.88 6483.14 2575.06 6483.68C2573.2 6482.96 2571.67 6482.59 2570.48 6482.05C2573.54 6483.5 2576.42 6484.77 2579.47 6486.22C2578.29 6485.49 2576.93 6484.77 2575.74 6484.04C2658.88 6516.27 3342.13 6769.58 3286.48 6355.67C3262.39 6176.96 3246.27 6046.95 3235.24 5952.62L3232.7 5931.25C3221.5 5832.75 3204.69 5356.73 3202.65 5326.13L4184.66 5331.94L4390.35 6480.78C4394.76 6515.91 4226.96 7606.29 4226.79 7607.74L3962.45 7578.58Z" fill="#96DAD5"/>
<path fill-rule="evenodd" clip-rule="evenodd" d="M2385.73 6724.34L2398.96 6714.74L2399.64 6711.85L2385.73 6724.16V6724.34Z" fill="#EDFBFB"/>
<path fill-rule="evenodd" clip-rule="evenodd" d="M2409.48 6650.65C2407.1 6650.11 2404.9 6651.01 2403.54 6653V6653.19C2403.2 6653.73 2403.03 6654.27 2402.86 6654.63L2387.25 6717.46L2385.72 6724.16L2399.64 6711.85V6711.67L2413.04 6657.71C2413.89 6654.63 2412.19 6651.56 2409.48 6650.65Z" fill="#EDFBFB"/>
<path fill-rule="evenodd" clip-rule="evenodd" d="M2332.45 6771.6L2342.46 6762.73C2339.57 6764.17 2336.52 6765.8 2333.47 6767.43L2332.45 6771.6Z" fill="#EDFBFB"/>
<path fill-rule="evenodd" clip-rule="evenodd" d="M2365.36 6683.24C2366.21 6680.16 2364.34 6676.9 2361.63 6676.18C2359.42 6675.45 2356.88 6676.54 2355.69 6678.71C2355.52 6679.07 2355.35 6679.62 2355.01 6680.16L2333.97 6765.44L2333.47 6767.43C2336.52 6765.8 2339.57 6764.17 2342.46 6762.73L2342.63 6762.54L2346.53 6759.1V6758.92L2348.06 6752.77L2365.36 6683.24Z" fill="#EDFBFB"/>
<path fill-rule="evenodd" clip-rule="evenodd" d="M3607.15 5839.45C3541.83 5975.06 3374.2 6016.17 3247.97 5958.95C3243.73 5956.96 3239.48 5954.97 3235.24 5952.61C3234.39 5945.19 3233.55 5938.13 3232.7 5931.25C3264.09 5951.71 3303.28 5961.3 3338.06 5965.83C3404.74 5974.34 3474.47 5960.94 3529.96 5919.11C3558.29 5897.93 3581.53 5870.05 3597.31 5837.09C3601.22 5828.94 3612.41 5828.76 3607.15 5839.45Z" fill="#EDFBFB"/>
<path fill-rule="evenodd" clip-rule="evenodd" d="M3818.4 5962.03C3803.3 6035.72 3787.52 6109.42 3771.23 6182.93L3768.69 6179.31C3768.18 6181.48 3767.84 6183.65 3767.33 6185.83C3764.78 6185.1 3762.07 6184.38 3759.52 6183.65C3760.54 6179.31 3761.56 6174.78 3762.41 6170.44C3777.34 6102.9 3791.76 6035.36 3805.67 5967.46C3806.18 5965.11 3807.54 5962.21 3809.41 5960.22C3809.41 5960.04 3809.41 5960.04 3809.58 5960.04C3810.59 5958.77 3811.78 5957.86 3813.14 5957.5C3816.36 5956.6 3819.25 5957.86 3818.4 5962.03Z" fill="#EDFBFB"/>
<path fill-rule="evenodd" clip-rule="evenodd" d="M3963.68 7524.64V7524.59H3963.63V7524.65L3963.68 7524.64Z" fill="#96DAD5"/>
<path fill-rule="evenodd" clip-rule="evenodd" d="M4220.34 7692.67V7694.85L4217.63 7693.03L4220.34 7692.67Z" fill="#96DAD5"/>
<path fill-rule="evenodd" clip-rule="evenodd" d="M4233.24 7702.45L4226.96 7703.36L4166.39 7710.42C4165.88 7710.42 4165.37 7710.42 4164.86 7710.24H4164.69C4164.52 7710.24 4164.52 7710.24 4164.35 7710.05C4162.32 7709.51 4160.79 7707.7 4160.45 7705.35C4160.45 7703.72 4160.96 7702.27 4161.81 7701.18C4162.65 7700.1 4163.84 7699.37 4165.37 7699.19L4217.46 7693.03H4217.63L4220.34 7692.67L4233.24 7702.45Z" fill="#EDFBFB"/>
<path fill-rule="evenodd" clip-rule="evenodd" d="M4165.37 7699.19C4163.84 7699.37 4162.65 7700.1 4161.81 7701.18C4162.65 7700.1 4163.84 7699.19 4165.37 7699.19Z" fill="#96DAD5"/>
<path fill-rule="evenodd" clip-rule="evenodd" d="M4293.81 7738.3L4288.04 7739.02H4287.87L4205.92 7748.8C4205.24 7748.8 4204.73 7748.8 4204.39 7748.62C4202.02 7748.26 4200.15 7746.09 4199.98 7743.73C4199.81 7742.1 4200.32 7740.65 4201.17 7739.57C4202.02 7738.3 4203.38 7737.58 4204.73 7737.39L4271.75 7729.61H4271.92L4277.86 7728.88H4278.03L4293.81 7738.3Z" fill="#EDFBFB"/>
<path fill-rule="evenodd" clip-rule="evenodd" d="M4226.79 7607.74C4226.62 7609.36 4226.45 7611.18 4226.28 7612.81C4225.77 7615.7 4225.43 7618.6 4225.26 7621.5C4224.75 7625.48 4224.41 7629.1 4224.08 7632.9C4223.91 7633.99 4223.74 7635.08 4223.74 7636.16C4223.06 7643.04 4222.38 7649.56 4222.04 7655.54C4221.7 7658.43 4221.53 7661.33 4221.36 7664.05C4221.19 7664.41 4221.19 7664.77 4221.19 7665.13V7665.68C4221.19 7666.76 4221.19 7667.49 4221.02 7668.57L3951.08 7633.81V7632.9C3953.29 7613.53 3955.49 7594.52 3957.36 7577.86L3962.45 7578.58L4226.79 7607.74Z" fill="#EDB39D"/>
<path fill-rule="evenodd" clip-rule="evenodd" d="M3935.64 7776.56C3935.83 7775.98 3936 7774.44 3936.17 7772.12C3936.17 7771.54 3936.33 7771.15 3936.33 7770.57C3936.52 7769.61 3936.69 7768.83 3936.69 7767.87C3936.86 7766.91 3937.05 7765.93 3937.05 7764.97C3939.83 7741.6 3945.79 7686.55 3951.55 7633.83L4221.02 7668.57C4220.49 7678.8 4228.81 7690.03 4228.98 7696.6L4226.18 7696.98H4226.01L4172.34 7703.55C4170.76 7703.55 4169.54 7704.51 4168.66 7705.67C4167.8 7706.83 4167.27 7708.39 4167.27 7710.13C4167.61 7712.63 4169.19 7714.56 4171.29 7715.14C4171.46 7715.34 4171.46 7715.34 4171.63 7715.34H4171.82C4172.34 7715.52 4172.87 7715.52 4173.38 7715.52L4235.8 7707.99L4242.26 7707.03H4242.43L4288.24 7735.22L4282.12 7736H4281.95L4212.89 7744.31C4211.5 7744.49 4210.09 7745.27 4209.23 7746.63C4208.35 7747.79 4207.82 7749.33 4207.99 7751.07C4208.18 7753.58 4210.09 7755.9 4212.54 7756.28C4212.89 7756.48 4213.42 7756.48 4214.12 7756.48L4298.56 7746.05H4298.73L4304.67 7745.27H4304.84L4431.24 7822.91C4431.41 7822.91 4431.41 7823.09 4431.58 7823.09C4434.55 7825.61 4437.01 7828.31 4438.76 7831.21C4455.01 7855.54 4435.6 7893.6 4405.53 7886.45L3935.64 7776.56Z" fill="#672448"/>
<path fill-rule="evenodd" clip-rule="evenodd" d="M3344.17 5145.34C3339.88 5147.16 3335.6 5148.79 3331.48 5150.41C3296.17 5164.18 3268.39 5174.32 3252.11 5177.76C3250.22 5178.12 3248.34 5178.12 3246.28 5177.39V5177.21C3282.97 5162.73 3315.2 5153.13 3332.17 5148.42C3338.51 5146.61 3342.62 5145.71 3344.17 5145.34Z" fill="#EDB39D"/>
<path fill-rule="evenodd" clip-rule="evenodd" d="M4769.08 4365.5C4763.77 4373.65 4756.05 4379.8 4747.99 4385.05C4739.76 4389.94 4730.35 4392.3 4721.08 4393.93C4702.57 4397.37 4683.54 4395.56 4666.23 4388.86C4666.06 4388.86 4666.06 4388.49 4666.06 4388.31C4666.06 4388.13 4666.23 4387.95 4666.57 4387.95C4684.23 4392.12 4702.57 4391.57 4719.71 4386.87C4728.28 4384.51 4736.17 4380.53 4744.23 4376.91C4752.46 4373.47 4760.18 4368.94 4768.57 4364.78C4768.74 4364.59 4768.91 4364.78 4769.08 4364.78C4769.25 4364.96 4769.25 4365.14 4769.08 4365.5ZM4802.34 4234.41C4778.18 4206.52 4656.97 4268.99 4638.62 4304.66C4620.11 4340.33 4661.09 4385.6 4661.09 4385.6L4582.57 4402.07C4533.36 4412.58 4500.97 4462.73 4510.22 4514.88C4513.65 4534.25 4517.43 4553.45 4520.86 4568.47V4568.66C4522.06 4574.45 4444.22 4778.51 4424.16 4888.24C4399.31 4869.77 4374.46 4851.3 4349.6 4832.83L4335.37 4853.29L4221.54 5018.24V5018.42C4219.31 5021.86 4217.43 5025.48 4217.25 5029.65C4216.91 5033.09 4217.77 5036.35 4218.97 5039.43L4220 5042.32L4227.2 5061.88L4275.37 5190.25L4276.23 5192.24C4280.51 5202.57 4285.14 5212.89 4290.45 5222.66C4310.17 5258.88 4337.94 5289.11 4365.54 5318.99C4405.48 5362.45 4448.85 5407.89 4504.91 5421.29C4542.97 5430.35 4582.91 5423.28 4620.45 5411.7C4668.62 5396.85 4717.49 5372.4 4744.9 5328.04C4762.23 5299.98 4769.59 5266.48 4770.63 5232.8C4770.8 5227.19 4770.8 5221.4 4770.63 5215.6C4769.59 5176.67 4761.55 5138.11 4754.68 5099.72C4738.75 5011.36 4729.31 4922.09 4716.28 4833.37C4709.77 4787.93 4702.23 4742.66 4692.29 4697.94C4687.49 4675.66 4681.99 4653.39 4675.83 4631.48C4674.12 4625.51 4664.18 4603.24 4666.57 4601.43C4737.71 4548.01 4881.03 4438.83 4890.11 4415.84C4902.29 4384.87 4826.52 4262.29 4802.34 4234.41Z" fill="#EDB39D"/>
<path fill-rule="evenodd" clip-rule="evenodd" d="M4275.37 5190.22C4270.74 5179.18 4266.62 5167.95 4262.51 5156.73C4250.68 5125.04 4239.02 5093.53 4227.19 5061.85L4275.37 5190.22Z" fill="#EDB39D"/>
<path fill-rule="evenodd" clip-rule="evenodd" d="M4349.6 4832.83L4335.37 4853.29C4340 4846.41 4344.8 4839.71 4349.43 4832.83H4349.6Z" fill="#EDB39D"/>
<path fill-rule="evenodd" clip-rule="evenodd" d="M4287.71 5222.85C4286.34 5221.04 4284.97 5219.04 4283.6 5217.05L4283.26 5216.33C4277.77 5208.72 4272.46 5200.94 4266.97 5192.79L4266.8 5192.61L4249.14 5150.24C4234.57 5113.66 4220.34 5077.09 4206.45 5040.33C4202.17 5029.47 4197.88 5018.42 4193.77 5007.38C4184.85 4983.48 4174.74 4959.94 4166.68 4935.68L4142 4862.89C4133.43 4838.81 4137.03 4837.72 4146.11 4861.44L4172 4933.5C4180.4 4957.59 4190.86 4980.94 4200.11 5004.66C4203.88 5014.08 4207.83 5023.31 4211.6 5032.73L4214.68 5028.38L4218.97 5039.43L4220 5042.32L4227.2 5061.88L4275.37 5190.26L4276.23 5192.25L4287.71 5222.85Z" fill="#EDB39D"/>
<path fill-rule="evenodd" clip-rule="evenodd" d="M4349.6 4832.83L4335.37 4853.29C4340 4846.41 4344.8 4839.71 4349.43 4832.83H4349.6Z" fill="#EDB39D"/>
<path fill-rule="evenodd" clip-rule="evenodd" d="M4769.08 4364.74C4769.25 4364.92 4769.25 4365.1 4769.08 4365.46C4763.75 4373.61 4756.05 4379.77 4747.99 4385.02C4739.76 4389.91 4730.33 4392.26 4721.08 4393.89C4702.56 4397.33 4683.54 4395.52 4666.21 4388.82C4666.04 4388.82 4666.04 4388.46 4666.04 4388.28C4666.04 4388.1 4666.21 4387.92 4666.57 4387.92C4684.21 4392.08 4702.56 4391.54 4719.71 4386.83C4728.28 4384.48 4736.17 4380.49 4744.23 4376.87C4752.45 4373.43 4760.16 4368.9 4768.56 4364.74C4768.73 4364.56 4768.91 4364.74 4769.08 4364.74Z" fill="#EDB39D"/>
<path fill-rule="evenodd" clip-rule="evenodd" d="M3987.37 4966.99C3987.37 4967.17 3987.03 4967.36 3986.85 4967.17C3984.45 4966.45 3982.05 4965.73 3979.65 4964.82C3964.74 4959.21 3950.85 4949.79 3939.54 4937.66C3932.85 4930.6 3926.51 4922.99 3922.57 4913.76C3918.8 4904.71 3916.05 4894.93 3916.22 4884.97C3916.22 4884.61 3916.4 4884.43 3916.74 4884.43C3916.91 4884.43 3917.08 4884.61 3917.08 4884.61C3921.71 4893.3 3925.31 4901.81 3930.11 4909.6C3934.74 4917.38 3939.02 4925.53 3944.51 4932.77C3954.11 4944.9 3966.28 4955.22 3979.82 4962.65C3982.23 4963.91 3984.62 4965.18 3987.2 4966.27C3987.37 4966.45 3987.54 4966.81 3987.37 4966.99Z" fill="#2A8C79"/>
<path fill-rule="evenodd" clip-rule="evenodd" d="M4211.6 5032.73V5032.91L4206.45 5040.33C4202.17 5029.47 4197.88 5018.42 4193.77 5007.38C4184.85 4983.48 4174.74 4959.94 4166.68 4935.68L4142 4862.89C4133.43 4838.81 4137.03 4837.72 4146.11 4861.44L4172 4933.5C4180.4 4957.59 4190.86 4980.94 4200.11 5004.66C4203.88 5014.08 4207.83 5023.31 4211.6 5032.73Z" fill="#2A8C79"/>
<path fill-rule="evenodd" clip-rule="evenodd" d="M4349.6 4832.83L4335.37 4853.29C4340 4846.41 4344.8 4839.71 4349.43 4832.83H4349.6Z" fill="#2A8C79"/>
<path fill-rule="evenodd" clip-rule="evenodd" d="M3987.37 4966.99C3987.37 4967.17 3987.03 4967.36 3986.85 4967.17C3984.45 4966.45 3982.05 4965.73 3979.65 4964.82C3964.74 4959.21 3950.85 4949.79 3939.54 4937.66C3932.85 4930.6 3926.51 4922.99 3922.57 4913.76C3918.8 4904.71 3916.05 4894.93 3916.22 4884.97C3916.22 4884.61 3916.4 4884.43 3916.74 4884.43C3916.91 4884.43 3917.08 4884.61 3917.08 4884.61C3921.71 4893.3 3925.31 4901.81 3930.11 4909.6C3934.74 4917.38 3939.02 4925.53 3944.51 4932.77C3954.11 4944.9 3966.28 4955.22 3979.82 4962.65C3982.23 4963.91 3984.62 4965.18 3987.2 4966.27C3987.37 4966.45 3987.54 4966.81 3987.37 4966.99Z" fill="#2A8C79"/>
<path fill-rule="evenodd" clip-rule="evenodd" d="M4453.82 5664.82L4446.46 5645.81L4445.08 5641.64L4440.11 5628.25L4432.56 5608.51L4427.42 5595.29L4405.99 5538.07L4400.85 5524.31L4397.59 5515.8L4392.62 5502.4L4376 5458.22L4371.03 5444.64L4365.2 5429.44L4360.23 5416.04L4287.71 5223.02V5222.84C4286.34 5221.03 4284.97 5219.04 4283.6 5217.05L4284.11 5218.49C4288.4 5230.63 4283.43 5232.62 4278.63 5220.85L4266.97 5192.78L4266.8 5192.6L4249.14 5150.23C4234.57 5113.66 4220.34 5077.08 4206.46 5040.33C4202.17 5029.46 4197.89 5018.42 4193.77 5007.37C4184.86 4983.47 4174.74 4959.93 4166.69 4935.67L4142 4862.88C4133.43 4838.8 4137.03 4837.71 4146.11 4861.43L4172 4933.5C4180.4 4957.58 4190.86 4980.94 4200.11 5004.66C4203.88 5014.07 4207.83 5023.31 4211.6 5032.72L4214.69 5028.38V5028.19L4221.54 5018.42V5018.24L4335.37 4853.29C4340 4846.4 4344.8 4839.71 4349.43 4832.82H4349.6L4350.29 4831.74C4365.2 4809.83 4090.06 4583.5 4064.86 4559.6C4008.11 4505.28 3965.88 4495.11 3951.83 4484.61C3937.77 4474.11 3646.41 4484.61 3646.41 4484.61C3577.67 4499.64 3517.83 4555.07 3468.97 4609.21C3442.4 4638.9 3417.37 4669.32 3393.37 4700.47C3330.11 4782.13 3273.2 4867.41 3208.91 4950.16L3214.06 4954.5V4954.68L3224.69 4963.55L3126.56 5339.27L2990.56 5641.64C2991.07 5642.01 3190.23 5717.15 3219.37 5727.83C3269.77 5746.48 3321.2 5761.69 3373.31 5773.82C3385.66 5776.72 3436.23 5787.22 3449.08 5789.57H3449.43C3559.83 5810.22 3672.63 5818.73 3784.23 5820.9H3784.4C3789.54 5820.72 3874.74 5818.55 3933.37 5815.29C3937.83 5814.92 4020.12 5812.04 4073.05 5804.24C4125.97 5796.44 4198.06 5778.17 4218.97 5773.64C4221.54 5772.92 4223.6 5772.55 4224.97 5772.19C4258.74 5764.41 4292.34 5754.99 4325.6 5744.13C4370.86 5729.64 4415.43 5712.26 4458.96 5691.98C4459.83 5691.62 4460.86 5691.26 4461.71 5690.71C4462.41 5690.53 4462.58 5690.53 4463.09 5690.17L4453.82 5664.82Z" fill="#2A4D52"/>
<path fill-rule="evenodd" clip-rule="evenodd" d="M3344.17 5145.34C3339.88 5147.16 3335.6 5148.79 3331.48 5150.41L3332.17 5148.42C3338.51 5146.61 3342.62 5145.71 3344.17 5145.34Z" fill="#2A8C79"/>
<path fill-rule="evenodd" clip-rule="evenodd" d="M3987.37 4966.99C3987.37 4967.17 3987.03 4967.36 3986.85 4967.17C3984.45 4966.45 3982.05 4965.73 3979.65 4964.82C3964.74 4959.21 3950.85 4949.79 3939.54 4937.66C3932.85 4930.6 3926.51 4922.99 3922.57 4913.76C3918.8 4904.71 3916.05 4894.93 3916.22 4884.97C3916.22 4884.61 3916.4 4884.43 3916.74 4884.43C3916.91 4884.43 3917.08 4884.61 3917.08 4884.61C3921.71 4893.3 3925.31 4901.81 3930.11 4909.6C3934.74 4917.38 3939.02 4925.53 3944.51 4932.77C3954.11 4944.9 3966.28 4955.22 3979.82 4962.65C3982.23 4963.91 3984.62 4965.18 3987.2 4966.27C3987.37 4966.45 3987.54 4966.81 3987.37 4966.99Z" fill="#2A8C79"/>
<path fill-rule="evenodd" clip-rule="evenodd" d="M4284.11 5218.5C4288.4 5230.63 4283.43 5232.62 4278.63 5220.85L4266.97 5192.78L4266.8 5192.6L4249.14 5150.23C4234.57 5113.66 4220.34 5077.08 4206.45 5040.33C4202.17 5029.46 4197.88 5018.42 4193.77 5007.37C4184.85 4983.47 4174.74 4959.93 4166.68 4935.67L4142 4862.88C4133.43 4838.8 4137.03 4837.71 4146.11 4861.43L4172 4933.5C4180.4 4957.58 4190.86 4980.94 4200.11 5004.66C4203.88 5014.07 4207.83 5023.31 4211.6 5032.72L4214.68 5028.38L4218.97 5039.42L4220 5042.32L4227.2 5061.87L4275.37 5190.25L4276.23 5192.24L4287.71 5222.84C4286.34 5221.03 4284.97 5219.04 4283.6 5217.05L4284.11 5218.5Z" fill="#2A8C79"/>
<path fill-rule="evenodd" clip-rule="evenodd" d="M3979.83 4962.62L3979.65 4964.79C3964.74 4959.18 3950.86 4949.76 3939.54 4937.63C3932.86 4930.57 3926.51 4922.96 3922.57 4913.73C3918.8 4904.68 3916.05 4894.9 3916.23 4884.94C3916.23 4884.58 3916.4 4884.4 3916.74 4884.4C3916.91 4884.4 3917.08 4884.58 3917.08 4884.58C3921.71 4893.27 3925.31 4901.78 3930.11 4909.57C3934.74 4917.35 3939.03 4925.5 3944.51 4932.74C3954.11 4944.87 3966.28 4955.19 3979.83 4962.62Z" fill="#EDB39D"/>
<path fill-rule="evenodd" clip-rule="evenodd" d="M4097.08 4894.57V4894.75C4091.94 4911.95 4085.59 4928.43 4078.74 4942.19C4072.05 4955.95 4065.02 4966.63 4058.34 4972.06C4027.99 4996.51 3979.82 4961.02 3979.82 4961.02V4962.65C3966.28 4955.22 3954.11 4944.9 3944.51 4932.77C3939.02 4925.53 3934.74 4917.38 3930.11 4909.6C3925.31 4901.81 3921.71 4893.3 3917.08 4884.61C3917.08 4884.61 3916.91 4884.43 3916.74 4884.43C3916.39 4884.43 3916.22 4884.61 3916.22 4884.97C3916.05 4894.93 3918.79 4904.71 3922.56 4913.76C3926.51 4922.99 3932.85 4930.6 3939.54 4937.66C3950.85 4949.79 3964.74 4959.21 3979.65 4964.82L3976.39 5044.85C3975.71 5060.06 3971.77 5074.37 3965.25 5086.86C3952.91 5110.58 3931.48 5128.14 3905.94 5134.12C3898.57 5136.11 3890.85 5137.01 3882.79 5136.65C3872.51 5136.29 3862.22 5135.93 3852.62 5135.38C3841.31 5134.84 3831.02 5134.12 3822.62 5133.21C3811.99 5147.7 3799.65 5162.91 3785.77 5178.84C3782.34 5182.82 3778.74 5186.81 3775.14 5190.79C3764.17 5202.92 3752.51 5215.42 3740.17 5228.09C3736.57 5231.89 3732.79 5235.51 3729.02 5239.5C3721.14 5247.46 3712.91 5255.61 3704.51 5263.94C3699.02 5269.19 3693.71 5274.44 3688.05 5279.87H3687.88C3582.79 5380.37 3459.88 5479.95 3411.88 5516.17C3400.22 5525.04 3393.02 5530.11 3391.48 5530.65C3331.31 5581.89 3247.65 5590.04 3180.45 5552.74C3166.05 5544.77 3152.34 5534.63 3139.82 5522.5C3080.68 5465.1 3057.37 5283.5 3090.62 5165.08C3090.45 5164.9 3090.62 5164.72 3090.62 5164.72C3096.11 5141.54 3103.99 5121.44 3113.94 5106.41C3115.31 5101.16 3156.28 5036.88 3214.05 4954.68L3224.68 4963.55L3358.56 5078.17L3332.17 5148.42C3315.19 5153.13 3282.97 5162.73 3246.28 5177.21V5177.39C3248.34 5178.12 3250.22 5178.12 3252.11 5177.75C3268.39 5174.31 3296.17 5164.17 3331.48 5150.41C3335.59 5148.78 3339.88 5147.15 3344.17 5145.34C3344.51 5145.16 3344.68 5145.16 3344.68 5145.16C3364.05 5137.56 3385.14 5129.05 3407.59 5120.18C3429.19 5111.67 3451.82 5102.79 3474.97 5093.74C3491.59 5087.4 3508.39 5081.06 3525.19 5075.09C3588.11 5051.91 3652.22 5031.09 3707.42 5019.5C3729.37 5014.98 3749.59 5011.9 3767.94 5010.63H3768.11C3774.62 4996.69 3783.71 4977.5 3794.34 4955.41C3835.48 4868.86 3899.25 4739.94 3916.91 4728.53C3934.91 4716.94 3997.48 4740.12 4045.48 4762.75C4045.48 4762.93 4045.48 4762.93 4045.65 4762.75C4050.28 4765.11 4054.91 4767.46 4059.2 4769.63C4076.68 4778.32 4090.91 4786.47 4098.62 4791.9C4115.08 4803.49 4109.94 4850.75 4097.08 4894.57Z" fill="#EDB39D"/>
<path fill-rule="evenodd" clip-rule="evenodd" d="M4769.08 4364.74C4769.25 4364.92 4769.25 4365.1 4769.08 4365.46C4763.75 4373.61 4756.05 4379.77 4747.99 4385.02C4739.76 4389.91 4730.33 4392.26 4721.08 4393.89C4702.56 4397.33 4683.54 4395.52 4666.21 4388.82C4666.04 4388.82 4666.04 4388.46 4666.04 4388.28C4666.04 4388.1 4666.21 4387.92 4666.57 4387.92C4684.21 4392.08 4702.56 4391.54 4719.71 4386.83C4728.28 4384.48 4736.17 4380.49 4744.23 4376.87C4752.45 4373.43 4760.16 4368.9 4768.56 4364.74C4768.73 4364.56 4768.91 4364.74 4769.08 4364.74Z" fill="#672448"/>
<path fill-rule="evenodd" clip-rule="evenodd" d="M3987.37 4966.99C3987.37 4967.17 3987.03 4967.36 3986.85 4967.17C3984.45 4966.45 3982.05 4965.73 3979.65 4964.82C3964.74 4959.21 3950.85 4949.79 3939.54 4937.66C3932.85 4930.6 3926.51 4922.99 3922.57 4913.76C3918.8 4904.71 3916.05 4894.93 3916.22 4884.97C3916.22 4884.61 3916.4 4884.43 3916.74 4884.43C3916.91 4884.43 3917.08 4884.61 3917.08 4884.61C3921.71 4893.3 3925.31 4901.81 3930.11 4909.6C3934.74 4917.38 3939.02 4925.53 3944.51 4932.77C3954.11 4944.9 3966.28 4955.22 3979.82 4962.65C3982.23 4963.91 3984.62 4965.18 3987.2 4966.27C3987.37 4966.45 3987.54 4966.81 3987.37 4966.99Z" fill="#672448"/>
<path fill-rule="evenodd" clip-rule="evenodd" d="M4411.61 4895.51C4403.06 4962.63 4396.34 5030.03 4392.05 5097.54C4389.99 5131.31 4388.75 5165.14 4388.47 5198.91C4387.75 5232.69 4388.52 5266.57 4393.54 5300.03C4393.56 5300.16 4393.47 5300.27 4393.37 5300.28C4393.25 5300.3 4393.15 5300.23 4393.11 5300.12C4385.56 5267.02 4384.8 5232.75 4384.19 5198.91C4384.33 5164.96 4385.87 5131.06 4388.64 5097.29C4393.67 5029.7 4401.41 4962.4 4411.18 4895.44C4411.2 4895.33 4411.3 4895.24 4411.42 4895.26C4411.54 4895.28 4411.63 4895.39 4411.61 4895.51Z" fill="#672448"/>
<path fill-rule="evenodd" clip-rule="evenodd" d="M3082.4 5287.31C3101.72 5259.14 3128.49 5237.7 3156.44 5219.72C3184.36 5201.36 3214.64 5187.15 3246.02 5177.15C3246.14 5177.12 3246.27 5177.17 3246.3 5177.3C3246.33 5177.41 3246.28 5177.53 3246.18 5177.57C3216.4 5192.02 3186.69 5206.14 3158.18 5222.84C3130.09 5240 3102.98 5260.32 3082.74 5287.59C3082.67 5287.7 3082.53 5287.7 3082.43 5287.64C3082.34 5287.55 3082.33 5287.41 3082.4 5287.31Z" fill="#672448"/>
<path fill-rule="evenodd" clip-rule="evenodd" d="M4278.63 5220.85L4266.97 5192.78L4266.8 5192.6L4249.14 5150.23C4234.57 5113.66 4220.34 5077.08 4206.46 5040.33C4202.17 5029.46 4197.89 5018.42 4193.77 5007.37C4184.86 4983.47 4174.74 4959.93 4166.69 4935.67L4142 4862.88C4133.43 4838.8 4137.03 4837.71 4146.12 4861.43L4172 4933.5C4180.4 4957.58 4190.86 4980.94 4200.11 5004.66C4203.89 5014.07 4207.83 5023.31 4211.6 5032.72V5032.9C4227.03 5070.74 4242.29 5108.59 4257.2 5146.79L4283.26 5216.32L4283.6 5217.05L4284.12 5218.49C4288.4 5230.63 4283.43 5232.62 4278.63 5220.85Z" fill="#2A8C79"/>
<path fill-rule="evenodd" clip-rule="evenodd" d="M3417.82 5004.55L3372.4 5065.03C3372.05 5065.57 3371.71 5066.3 3371.2 5066.84C3368.8 5067.02 3366.23 5067.02 3363.82 5067.38C3365.2 5065.39 3366.57 5063.4 3368.11 5061.41L3414.4 5001.84C3429.65 4981.56 3432.57 4984.27 3417.82 5004.55Z" fill="#2A4D52"/>
<path fill-rule="evenodd" clip-rule="evenodd" d="M3032.97 5545.42C3032.97 5545.42 3032.96 5545.41 3034.37 5541.14C3035.78 5536.88 3035.79 5536.88 3035.79 5536.88L3035.9 5536.92L3036.28 5537.06L3037.79 5537.62C3039.13 5538.11 3041.13 5538.83 3043.78 5539.77C3049.08 5541.64 3056.94 5544.37 3067.2 5547.76C3087.71 5554.55 3117.78 5563.99 3155.98 5574.63C3232.39 5595.89 3341.3 5621.91 3471.27 5640.87C3731.25 5678.81 4075.22 5688.5 4411.74 5575.81L4414.29 5584.45C4076.14 5697.68 3730.79 5687.88 3470.12 5649.84C3339.76 5630.82 3230.51 5604.73 3153.84 5583.39C3115.5 5572.72 3085.31 5563.23 3064.68 5556.41C3054.37 5553 3046.45 5550.26 3041.11 5548.36C3038.43 5547.42 3036.4 5546.68 3035.04 5546.18L3033.49 5545.61L3033.1 5545.47L3032.97 5545.42Z" fill="#EDFBFB"/>
<path fill-rule="evenodd" clip-rule="evenodd" d="M3012.26 5603.27L3015.08 5594.73L3022.6 5597.55C3027.2 5599.27 3033.47 5601.61 3040.14 5604.08C3053.53 5609.04 3068.43 5614.48 3074.87 5616.58C3548.33 5770.64 4003.42 5774.47 4440.25 5628.19L4442.79 5636.83C4004.19 5783.7 3547.36 5779.79 3072.4 5625.24C3065.77 5623.08 3050.69 5617.57 3037.36 5612.64C3030.67 5610.16 3024.4 5607.82 3019.8 5606.09L3012.26 5603.27Z" fill="#EDFBFB"/>
<path fill-rule="evenodd" clip-rule="evenodd" d="M4739.39 3759.86C4727.34 3747.73 4712.24 3739.94 4696.46 3735.6C4764.13 2690.41 3366.69 2538.33 3290.76 3581.87C3290.52 3584.59 3290.47 3587.3 3290.42 3590.02C3215.32 3627.75 3157.99 3705.05 3148.92 3793.72C3124.28 3978.13 3321.28 4124.45 3481.47 4071.65C3527.51 4148.44 3585.25 4213.52 3653.15 4262.5C3649.91 4355.42 3644.96 4491.74 3641.63 4583.34C3653.37 4594.42 3667.64 4605.31 3681.85 4613.4C3712.88 4632.9 3746.78 4647.68 3781.28 4659.03V4659.21H3781.45V4659.03C3828.77 4669.68 3929.14 4710.89 3947.21 4641.3V4385.08C4289.6 4460.8 4579.87 4320.6 4667.62 3934.22C4745.74 3940.07 4799.78 3818.14 4739.39 3759.86Z" fill="#EDB39D"/>
<path fill-rule="evenodd" clip-rule="evenodd" d="M3483.31 3826.25L3481.44 3830.78L3477.71 3828.25C3466.51 3820.82 3452.77 3817.02 3439.37 3816.84C3425.96 3816.66 3411.54 3820.1 3402.21 3830.06C3392.2 3839.83 3391.69 3856.31 3395.25 3869.89C3399.66 3883.65 3410.86 3894.88 3424.43 3898.5L3424.1 3900.13C3409.84 3897.05 3397.63 3885.64 3392.37 3871.16C3387.96 3856.67 3387.79 3838.57 3398.81 3826.62C3409.33 3814.67 3424.94 3810.68 3439.2 3810.32C3452.43 3809.96 3465.66 3812.49 3477.54 3819.01C3483.99 3798.91 3481.78 3776.82 3470.58 3760.17C3458.54 3742.06 3439.03 3730.47 3419.18 3722.68C3398.98 3715.08 3377.44 3710.73 3356.23 3711.1C3335.02 3711.28 3314.32 3717.43 3296.17 3727.75C3259.52 3749.48 3243.06 3795.65 3243.74 3840.74C3244.25 3886.19 3259.35 3931.63 3285.31 3969.66L3284.12 3970.93C3268.34 3954.09 3255.62 3933.81 3246.45 3911.72C3236.78 3889.81 3231.01 3865.73 3229.83 3841.28C3228.64 3816.84 3231.18 3791.49 3241.02 3768.31C3250.36 3745.14 3267.49 3724.86 3288.53 3713.27C3309.74 3702.04 3333.15 3696.25 3356.23 3696.97C3379.3 3697.34 3401.87 3702.41 3423.08 3711.28C3444.12 3720.33 3465.16 3733.19 3478.39 3754.37C3492.13 3775.37 3492.81 3803.98 3483.31 3826.25Z" fill="#672448"/>
<path fill-rule="evenodd" clip-rule="evenodd" d="M4649.77 3934.89C4641.29 3935.62 4632.81 3934.89 4624.66 3932.54C4622.46 3932 4602.27 3925.84 4609.56 3921.49C4611.09 3920.59 4612.78 3920.95 4614.48 3921.13C4616.01 3921.31 4617.54 3921.68 4619.23 3921.86C4628.9 3923.85 4638.07 3927.83 4648.92 3927.11C4653.34 3926.75 4654.35 3934.53 4649.77 3934.89Z" fill="#672448"/>
<path fill-rule="evenodd" clip-rule="evenodd" d="M4177.08 3966.04C4177.08 4054.76 4109.72 4126.64 4026.41 4126.64C3943.27 4126.64 3875.92 4054.76 3875.92 3966.04C3875.92 3877.32 3943.27 3805.25 4026.41 3805.25C4109.72 3805.25 4177.08 3877.32 4177.08 3966.04Z" fill="#E5A38C"/>
<path fill-rule="evenodd" clip-rule="evenodd" d="M3946.67 4500.36C3902.72 4482.62 3760.88 4373.43 3697.93 4306.62C3683.34 4291.23 3653.49 4262.26 3653.49 4262.26C3653.49 4262.26 3812.8 4356.05 3946.16 4384.3C3947.01 4383.76 3946.67 4500.36 3946.67 4500.36Z" fill="#E5A38C"/>
<path fill-rule="evenodd" clip-rule="evenodd" d="M4510.29 3117.18C4495.75 3099.93 4473.3 3075.59 4454.86 3053.7C4422.18 3014.88 4386.8 2978.67 4349.14 2945.39C4269.26 2874.75 4228.13 2852.54 4129.57 2816.72C3871.79 2723.08 3646.66 2746.11 3420.83 2893.2C3302.98 2969.98 3195.58 3087.22 3140.42 3254.4C3094.29 3394.2 3078.27 3560.31 3106.01 3743.91C3126.15 3877.15 3183.3 4005.8 3276.53 4098.38C3326.5 4147.99 3395.87 4198.43 3461.01 4219.96C3526.16 4241.51 3532.32 4243.99 3652.34 4262.28C3605.52 4217.97 3537.23 4159.38 3495.64 4093.11C3491.97 4087.28 3488.09 4070.11 3481.52 4070.11C3480.44 4070.11 3465.93 4076 3457.74 4077.56C3304.08 4107 3125.15 3971.92 3148.94 3793.81C3164.55 3676.88 3256.34 3565.14 3375.09 3588.46C3415.15 3596.32 3458.06 3618.17 3490.33 3644.19C3517.68 3666.25 3539.96 3698.04 3543.89 3734.38C3530.51 3608.99 3591.47 3457.32 3654.86 3356.08C3756.49 3193.67 3922.08 3075.25 4104.65 3049.72C4242.04 3030.4 4350.95 3032.44 4485.99 3104.22C4491.18 3106.84 4511.29 3118.36 4510.29 3117.18Z" fill="#FFD8A9"/>
<path fill-rule="evenodd" clip-rule="evenodd" d="M4753.51 3229.95C4932.9 3054.27 5066.17 2678.11 4962.06 2766.25C4873.85 2840.87 4790.61 2892.31 4713.19 2926.8C4797.5 2780.58 4797.16 2593.81 4701.18 2468.35C4662.84 2418.54 4655.57 2496.18 4602.74 2611.97C4591.59 2500.01 4562.97 2421.56 4546.34 2481.46C4529.38 2543.18 4509.41 2596.23 4487.31 2642.21C4486.96 2642.62 4486.79 2643.02 4486.43 2643.42C4442.42 2704.33 4371.72 2731.16 4303.33 2719.67C3945.04 2659.75 3575.5 2619.36 3442.94 2806.54V2776.09C3442.94 2771.23 3437.98 2772.45 3435.69 2774.06C3432.15 2776.48 3429.5 2781.32 3429.5 2785.97V2812.79C3410.58 2798.47 3390.26 2786.77 3368.88 2778.29C3362.87 2776.09 3352.96 2792.62 3360.04 2795.44C3381.25 2803.52 3401.05 2815.21 3419.42 2829.32C3378.96 2851.1 3340.07 2878.53 3303.3 2913.64C3208.32 3004.3 3145.78 3129.27 3109.97 3258.52C3091.91 3323.67 3080.41 3390.97 3075.96 3458.75C3073.33 3498.62 3079.61 3669.83 3096.99 3747.71C3097.8 3751.37 3098.94 3753.66 3100.18 3755.37C3122.28 3883.07 3178.19 4005.47 3267.82 4094.48C3317.79 4144.1 3387.15 4194.52 3452.29 4216.07C3517.44 4237.6 3523.6 4240.1 3643.64 4258.37C3596.79 4214.06 3536.73 4160.65 3495.13 4094.36C3491.48 4088.55 3487.92 4069.93 3481.36 4069.93C3480.25 4069.93 3462.55 4076.56 3454.35 4078.13C3300.7 4107.56 3116.45 3968.01 3140.22 3789.9C3155.83 3672.96 3247.62 3561.23 3366.37 3584.55C3394.6 3590.09 3424.19 3602.66 3450.52 3618.66C3461.5 3626.21 3472.87 3634.58 3484.71 3643.94C3532.35 3681.56 3570.58 3809.32 3560.79 3803.02C3592.87 3823.68 3635.17 3657.34 3643.15 3631.95C3651.46 3672.87 3653.6 3715.42 3648.64 3757.58C3647.58 3766.85 3656.23 3761.61 3659.06 3757.97C3672.86 3741.04 3683.46 3721.27 3692.12 3700.7C3724.64 3656.72 3746.92 3603.29 3758.05 3547.02C3773.25 3470.37 3794.27 3421.88 3776.76 3346.45C3848.18 3512.23 3848.87 3385.78 3858.25 3284.52C3892.19 3308.53 3919.23 3345.04 3933.72 3387.59C3934.96 3391.62 3939.56 3388.8 3941.49 3387.39C3944.51 3384.56 3946.8 3380.53 3946.8 3376.09C3947.5 3337.18 3919.98 3267.9 3901.6 3235.44C4030.6 3124.4 4297.49 3058.51 4581.89 3287.22C4585.59 3291.46 4589.47 3295.3 4593.02 3299.73C4642.85 3361.66 4698.89 3389.89 4684.4 3319.09C4683.69 3315.67 4682.81 3312.44 4681.92 3309.22C4687.05 3310.42 4691.99 3311.43 4696.77 3312.64C4755.71 3326.55 4794.91 3337.41 4801.35 3342.66C4803.15 3348.33 4806.99 3347.23 4801.39 3342.68C4789.02 3303.37 4759.34 3283.8 4726.46 3273.71C4774.89 3267.47 4821.54 3251.53 4856.19 3208.17C4859.19 3204.33 4860.96 3193.45 4853.71 3196.67C4821.02 3210.79 4787.44 3221.68 4753.51 3229.95Z" fill="#888888"/>
<path fill-rule="evenodd" clip-rule="evenodd" d="M4193.16 3433.38C4189.94 3437 4185.52 3436.46 4182.13 3433.93C4180.43 3432.66 4177.04 3431.03 4174.67 3430.48C4171.27 3429.58 4169.07 3429.4 4165.5 3429.58C4162.96 3429.94 4159.74 3430.67 4156.68 3432.11C4156.51 3432.3 4155.32 3432.84 4155.32 3432.84C4154.48 3433.38 4153.8 3433.93 4153.12 3434.47C4151.59 3435.55 4151.25 3435.74 4150.4 3436.82C4141.24 3446.6 4140.56 3462.71 4148.03 3473.76C4150.4 3477.56 4148.88 3483.17 4145.48 3485.53C4141.75 3488.06 4137.17 3486.62 4134.79 3482.81C4123.43 3465.79 4125.12 3439.18 4139.38 3424.69C4154.14 3409.84 4176.36 3408.76 4192.48 3421.25C4196.04 3423.97 4195.7 3430.3 4193.16 3433.38Z" fill="#561D3E"/>
<path fill-rule="evenodd" clip-rule="evenodd" d="M4363.08 3753.41C4350.88 3753.14 4344.12 3743.11 4342.74 3731.68C4342.06 3725.96 4339.04 3716.13 4335.85 3710.3C4331.53 3701.72 4327.98 3696.87 4321.4 3689.86C4316.27 3685.26 4309.32 3679.9 4301.34 3676.17C4300.71 3676.13 4297.64 3674.65 4297.64 3674.65C4295.18 3673.85 4293.01 3673.42 4290.82 3672.96C4286.19 3671.73 4285.26 3671.35 4281.81 3671.52C4248.07 3669.83 4217.78 3696.74 4210.94 3731.48C4208.24 3743.04 4195.42 3749.75 4185.22 3746.91C4174.07 3743.67 4168.66 3731.72 4171.36 3720.15C4182.13 3666.9 4233.19 3623.64 4284.36 3627.54C4337.09 3631.84 4378.07 3675.64 4383.8 3730.72C4385.16 3742.82 4373.11 3753.25 4363.08 3753.41Z" fill="#561D3E"/>
<path fill-rule="evenodd" clip-rule="evenodd" d="M4629.54 4032.24C4620.89 4053.61 4611.56 4074.43 4601.55 4094.35C4596.46 4104.31 4591.37 4114.26 4585.94 4123.86C4580.68 4133.46 4575.25 4142.87 4569.48 4152.11C4565.07 4159.35 4560.49 4166.59 4555.74 4173.65C4553.02 4177.82 4550.31 4181.98 4547.42 4185.97C4537.07 4201.18 4526.04 4215.84 4514.85 4229.6C4508.4 4237.75 4501.78 4245.36 4494.99 4252.96C4478.37 4260.02 4460.72 4264.73 4442.06 4265.82C4319.56 4273.96 4207.75 4158.63 4204.69 4103.22C4204.52 4098.69 4204.86 4094.89 4205.88 4090.91C4217.59 4048.54 4311.07 4051.07 4423.73 4043.47C4525.87 4036.77 4604.43 4008.88 4629.54 4032.24Z" fill="#561D3E"/>
<path fill-rule="evenodd" clip-rule="evenodd" d="M5106.78 7683.61C5105.13 7680.8 5103.97 7677.82 5103.31 7674.52C5101.99 7677.66 5103.15 7681.63 5106.78 7683.61Z" fill="#F9DBCF"/>
<path fill-rule="evenodd" clip-rule="evenodd" d="M5097.06 7676.05V7676.22C5097.72 7679.64 5098.9 7682.7 5100.55 7685.59H5100.72C5105.53 7694.13 5114.51 7700.44 5125.8 7700.44L5525.27 7770C5526.26 7768.98 5526.93 7767.79 5527.93 7766.59C5550.18 7736.75 5551.01 7668.89 5578.42 7606.82C5578.42 7604.1 5774.42 7221.15 5774.42 7221.15L5707.49 7212.96L5697.85 7211.77L5446.71 7180.9L5433.42 7179.2L5397.37 7174.77L5358.01 7593.53C5264.32 7596.42 5145.39 7594.37 5102.55 7652.36C5097.06 7659.68 5095.57 7668.22 5097.06 7676.05Z" fill="#2A4D52"/>
<path fill-rule="evenodd" clip-rule="evenodd" d="M5509.87 6656.38L5561.91 6658.95L5625.61 6662.21C5605.6 6654.33 5585.75 6645.42 5566.22 6635.82C5563.18 6634.45 5560.3 6632.91 5557.42 6631.37L5513.56 6629.14C5512.27 6638.22 5511.15 6647.13 5509.87 6656.38Z" fill="#EDFBFB"/>
<path fill-rule="evenodd" clip-rule="evenodd" d="M5546.25 6635.26C5549.22 6636.75 5552.2 6638.23 5555.34 6639.56C5555.67 6638.23 5555.84 6636.91 5556.17 6635.75L5546.25 6635.26Z" fill="#EDFBFB"/>
<path fill-rule="evenodd" clip-rule="evenodd" d="M5509.87 6627.45L5559.47 6629.14C5543.72 6623.93 5528.16 6618.46 5512.95 6612.61C5511.86 6617.55 5510.96 6622.5 5509.87 6627.45Z" fill="#EDFBFB"/>
<path fill-rule="evenodd" clip-rule="evenodd" d="M5493.34 6708.85L5544.25 6711.5L5856.1 6728.35C5856.43 6727.21 5856.76 6726.07 5857.09 6724.94C5826.19 6719.83 5795.62 6713.01 5765.54 6705.06C5749.5 6700.7 5733.46 6695.97 5717.44 6690.67C5717.28 6690.48 5717.28 6690.48 5717.11 6690.48H5716.78H5716.62L5549.36 6681.58L5497.14 6678.74C5495.82 6688.59 5494.83 6698.62 5493.34 6708.85Z" fill="#EDFBFB"/>
<path fill-rule="evenodd" clip-rule="evenodd" d="M5857.09 6720.99L5873.39 6722.15C5873.51 6721.82 5873.51 6721.65 5873.62 6721.32C5868.35 6720.33 5863.06 6719.34 5857.78 6718.01C5857.55 6719 5857.32 6720 5857.09 6720.99Z" fill="#EDFBFB"/>
<path fill-rule="evenodd" clip-rule="evenodd" d="M5493.34 6757.78L5540.53 6760.37L5842.44 6776.65L5864.98 6777.95C5867.9 6768.14 5870.85 6758.51 5873.62 6748.71L5850.76 6747.41L5545.92 6730.94L5496.93 6728.35C5495.78 6738.16 5494.48 6747.78 5493.34 6757.78Z" fill="#EDFBFB"/>
<path fill-rule="evenodd" clip-rule="evenodd" d="M5476.8 6824.36L5521.94 6826.8L5825.54 6842.96L5848.03 6844.09C5851.05 6834.13 5854.06 6824.36 5857.09 6814.4L5834.09 6813.27L5527.15 6796.93L5480.32 6794.48C5478.99 6804.25 5477.98 6814.4 5476.8 6824.36Z" fill="#EDFBFB"/>
<path fill-rule="evenodd" clip-rule="evenodd" d="M5476.8 6874.3L5517.49 6876.58L5810.45 6892.55L5831.63 6893.69C5834.6 6883.43 5837.58 6873.35 5840.56 6863.47L5819.04 6862.33L5522.78 6846.37L5480.11 6844.09C5479.12 6854.35 5477.63 6864.23 5476.8 6874.3Z" fill="#EDFBFB"/>
<path fill-rule="evenodd" clip-rule="evenodd" d="M5476.8 6924.76L5513 6926.69L5795.5 6942.13L5814.89 6943.29C5818.15 6933.25 5821.09 6923.03 5824.02 6912.99L5803.8 6911.83L5518.37 6895.81L5480.06 6893.69C5478.75 6903.72 5477.61 6914.15 5476.8 6924.76Z" fill="#EDFBFB"/>
<path fill-rule="evenodd" clip-rule="evenodd" d="M5460.27 6974.34L5493.85 6976.1L5779.64 6991.92L5798.05 6992.89C5801.42 6982.74 5804.45 6972.39 5807.49 6962.23L5788.09 6961.26L5499.24 6945.24L5463.64 6943.29C5462.47 6953.64 5461.44 6964.19 5460.27 6974.34Z" fill="#EDFBFB"/>
<path fill-rule="evenodd" clip-rule="evenodd" d="M5460.27 7040.85L5488.81 7042.43L5764.93 7058.04L5781.61 7059.03C5784.62 7048.75 5787.94 7038.28 5790.95 7028L5773.43 7027.02L5494.13 7011.21L5463.28 7009.43C5462.1 7020.1 5461.28 7030.57 5460.27 7040.85Z" fill="#EDFBFB"/>
<path fill-rule="evenodd" clip-rule="evenodd" d="M5443.73 7080.14L5467 7081.08L5733.63 7091.56L5747.98 7092.1C5751.29 7084.98 5754.58 7077.98 5757.88 7070.86L5742.21 7070.32L5472.27 7059.97L5446.55 7059.03C5445.39 7066.02 5444.56 7073.15 5443.73 7080.14Z" fill="#EDFBFB"/>
<path fill-rule="evenodd" clip-rule="evenodd" d="M5443.73 7130.28L5461.71 7130.95L5719.61 7141.16L5732.04 7141.7C5735.13 7134.49 5738.41 7127.42 5741.35 7120.21L5728.11 7119.66L5466.95 7109.44L5446.35 7108.63C5445.54 7115.84 5444.71 7123.2 5443.73 7130.28Z" fill="#EDFBFB"/>
<path fill-rule="evenodd" clip-rule="evenodd" d="M5443.74 7174.54L5456.75 7176.23L5702.54 7206.67L5711.97 7207.84C5716.2 7195.9 5720.58 7183.96 5724.82 7171.86L5713.61 7171.35L5460.15 7158.91L5445.19 7158.24C5444.71 7163.61 5444.21 7169.17 5443.74 7174.54Z" fill="#EDFBFB"/>
<path fill-rule="evenodd" clip-rule="evenodd" d="M5509.87 6627.45L5559.47 6629.14C5543.72 6623.93 5528.16 6618.46 5512.95 6612.61C5511.86 6617.55 5510.96 6622.5 5509.87 6627.45Z" fill="#2A4D52"/>
<path fill-rule="evenodd" clip-rule="evenodd" d="M5509.87 6686.17L5561.01 6688.37L5724.82 6695.28C5693.25 6687.49 5662.02 6678.08 5631.1 6667.35L5630.94 6667.21L5566.52 6664.41L5513.92 6662.21L5509.87 6686.17Z" fill="#2A4D52"/>
<path fill-rule="evenodd" clip-rule="evenodd" d="M5493.34 6741.36L5543.77 6743.91L5857.55 6760.14L5881.08 6761.42C5884.27 6751.57 5887.3 6741.36 5890.16 6731.87L5866.3 6730.6L5549.14 6714.37L5497.37 6711.81C5496.03 6721.66 5494.68 6731.51 5493.34 6741.36Z" fill="#2A4D52"/>
<path fill-rule="evenodd" clip-rule="evenodd" d="M5476.8 6791.62L5522.95 6794L5825.49 6809.92L5848.16 6811.02C5851.14 6801.13 5854.11 6791.25 5857.09 6781.37L5834.26 6780.09L5528.41 6763.98L5480.61 6761.42C5479.28 6771.48 5477.96 6781.37 5476.8 6791.62Z" fill="#2A4D52"/>
<path fill-rule="evenodd" clip-rule="evenodd" d="M5476.8 6841.6L5518.8 6843.84L5810.28 6859.5L5831.45 6860.62C5834.7 6850.36 5837.63 6840.29 5840.56 6830.6L5818.75 6829.48L5524.32 6813.44L5480.54 6811.02C5479.25 6821.09 5477.94 6831.53 5476.8 6841.6Z" fill="#2A4D52"/>
<path fill-rule="evenodd" clip-rule="evenodd" d="M5460.27 6891.22L5499.74 6893.31L5793.8 6909.08L5814.61 6910.22C5817.97 6899.96 5821 6889.89 5824.02 6880L5802.53 6878.86L5505.11 6862.9L5463.79 6860.62C5462.45 6870.88 5461.44 6880.96 5460.27 6891.22Z" fill="#2A4D52"/>
<path fill-rule="evenodd" clip-rule="evenodd" d="M5460.27 6957.78L5495.24 6959.7L5778.98 6975.4L5798.05 6976.36C5801.35 6966.02 5804.51 6955.68 5807.49 6945.14L5787.76 6943.99L5500.55 6928.67L5463.76 6926.76C5462.42 6937.1 5461.43 6947.44 5460.27 6957.78Z" fill="#2A4D52"/>
<path fill-rule="evenodd" clip-rule="evenodd" d="M5460.27 7007.89L5490.54 7009.62L5764.45 7025L5781.63 7025.96C5784.74 7015.58 5788.01 7005.01 5790.95 6994.62L5773.11 6993.66L5495.93 6978.09L5463.38 6976.36C5462.4 6987.13 5461.24 6997.51 5460.27 7007.89Z" fill="#2A4D52"/>
<path fill-rule="evenodd" clip-rule="evenodd" d="M5460.27 7058.31L5485.48 7059.68L5749.85 7074.78L5765.21 7075.56C5768.12 7064.98 5771.19 7054.39 5774.42 7044L5758.27 7043.02L5490.81 7027.53L5463.18 7025.96C5462.05 7036.75 5461.24 7047.53 5460.27 7058.31Z" fill="#2A4D52"/>
<path fill-rule="evenodd" clip-rule="evenodd" d="M5443.73 7108.24L5465 7109.43L5734.6 7124.37L5748.26 7125.17C5751.63 7114.8 5754.84 7104.05 5757.88 7093.29L5743.2 7092.5L5470.55 7076.96L5446.78 7075.57C5445.75 7086.72 5444.58 7097.47 5443.73 7108.24Z" fill="#2A4D52"/>
<path fill-rule="evenodd" clip-rule="evenodd" d="M5443.73 7163.84L5459.13 7164.37L5719.94 7174.37L5731.48 7174.77C5734.65 7167.48 5738.01 7160.34 5741.35 7153.04L5728.64 7152.5L5464.65 7142.38L5446.25 7141.7C5445.4 7148.99 5444.58 7156.55 5443.73 7163.84Z" fill="#2A4D52"/>
<path fill-rule="evenodd" clip-rule="evenodd" d="M6799.54 7228.36C6811.37 7238.16 6823.38 7247.8 6835.38 7257.44L6985.77 7048.31L6997.95 7031.65V7031.48C6992.63 7024.13 6987.49 7016.94 6982 7009.43L6966.05 7028.71L6799.54 7228.36Z" fill="#EDFBFB"/>
<path fill-rule="evenodd" clip-rule="evenodd" d="M6749.94 7190.64C6756.48 7196.53 6763.03 7202.27 6769.58 7207.84L6930.18 7005.69L6948.35 6982.76V6982.59C6943.27 6974.9 6938.2 6967.36 6932.96 6959.83L6912.17 6986.04L6749.94 7190.64Z" fill="#EDFBFB"/>
<path fill-rule="evenodd" clip-rule="evenodd" d="M6716.87 7157.18C6723.68 7163.05 6730.31 7168.9 6736.95 7174.77L6907.82 6963.5L6931.81 6933.68C6926.54 6925.8 6921.26 6917.93 6915.99 6910.22L6889.44 6943.06L6716.87 7157.18Z" fill="#EDFBFB"/>
<path fill-rule="evenodd" clip-rule="evenodd" d="M6683.8 7123.18C6690.18 7129.37 6696.73 7135.53 6703.12 7141.7L6871.24 6920.44L6898.74 6884.1C6893.51 6876.39 6888.43 6868.33 6883.19 6860.62L6853.89 6899.18L6683.8 7123.18Z" fill="#EDFBFB"/>
<path fill-rule="evenodd" clip-rule="evenodd" d="M6683.8 7126.27C6690.13 7132.29 6696.31 7137.67 6702.48 7143.35C6708.81 7149.22 6715.62 7154.91 6721.95 7160.77C6728.13 7166.62 6734.3 7172.01 6740.63 7177.53C6747.12 7183.4 6753.61 7189.25 6760.1 7194.94C6766.44 7200.65 6772.77 7206.18 6778.94 7211.87C6785.43 7217.41 6792.08 7223.26 6798.57 7228.8H6798.73C6809.65 7238.61 6820.73 7248.1 6831.66 7257.44L6832.61 7255.85C6821.53 7246.53 6810.45 7237.19 6799.52 7227.7C6792.87 7221.99 6786.38 7216.3 6779.89 7210.6C6773.56 7205.23 6767.23 7199.69 6760.9 7194C6754.4 7188.29 6747.76 7182.44 6741.26 7176.59C6735.09 7171.05 6728.92 7165.51 6722.58 7159.97C6716.25 7154.12 6709.76 7148.27 6703.27 7142.25C6697.1 7136.56 6690.77 7130.85 6684.59 7125.17L6683.8 7126.27Z" fill="#EDFBFB"/>
<path fill-rule="evenodd" clip-rule="evenodd" d="M6634.2 7090.42C6640.68 7096.38 6647.33 7102.52 6654.16 7108.63L6833.78 6889.46L6865.68 6850.4V6850.23C6860.39 6842.62 6854.93 6835 6849.47 6827.55L6816.04 6868.44L6634.2 7090.42Z" fill="#EDFBFB"/>
<path fill-rule="evenodd" clip-rule="evenodd" d="M6617.66 7075.57C6623.11 7081.55 6628.41 7086.94 6633.86 7092.48C6639.16 7097.85 6644.61 7103.24 6649.91 7108.63L6650.73 7107.44C6645.29 7101.9 6639.98 7096.37 6634.81 7090.98L6633.86 7092.33C6628.41 7086.79 6622.97 7081.25 6617.66 7075.57Z" fill="#EDFBFB"/>
<path fill-rule="evenodd" clip-rule="evenodd" d="M6601.13 7057C6607.37 7063.58 6613.78 7069.66 6620.51 7075.56H6620.68L6621.99 7073.71L6799.26 6844.12L6832.61 6801.08V6800.91C6827.51 6793.14 6822.26 6785.55 6816.84 6777.95L6782.66 6822.18L6602.94 7054.8L6601.13 7057Z" fill="#EDFBFB"/>
<path fill-rule="evenodd" clip-rule="evenodd" d="M6551.53 7008.11C6558.35 7014.17 6564.84 7020.23 6571.5 7025.96H6571.67L6573.89 7023.34L6763.01 6794.68L6799.54 6750.62C6793.91 6743.09 6788.27 6735.72 6782.81 6728.35L6745.94 6772.9L6554.26 7004.83L6551.53 7008.11Z" fill="#EDFBFB"/>
<path fill-rule="evenodd" clip-rule="evenodd" d="M6518.46 6965.49C6524.77 6971.85 6531.25 6977.72 6537.73 6983.6C6541.05 6986.69 6544.37 6989.79 6547.7 6992.89C6544.37 6989.79 6541.05 6986.53 6537.73 6983.43L6540.88 6979.52L6730.26 6745.78L6766.47 6700.93V6700.76C6761.15 6693.42 6755.84 6686.08 6750.52 6678.74L6714.14 6723.76L6522.11 6960.92L6518.46 6965.49Z" fill="#EDFBFB"/>
<path fill-rule="evenodd" clip-rule="evenodd" d="M6435.79 6903.9C6442.02 6910.04 6448.59 6916.02 6455.16 6922.49C6461.89 6928.79 6468.46 6935.1 6475.03 6941.57C6481.6 6947.55 6487.83 6953.68 6494.74 6959.83L6499.28 6954.18L6696.52 6709.41L6733.4 6663.78C6728.01 6656.31 6722.62 6648.68 6717.06 6641.38L6680.52 6686.68L6480.42 6934.77L6475.03 6941.4C6468.46 6935.1 6461.89 6928.79 6455.33 6922.32L6461.22 6914.85L6664.18 6662.95L6700.22 6618.48V6618.31C6694.5 6610.51 6689.44 6603.37 6683.88 6596.07L6648.68 6639.88L6442.69 6895.27L6435.79 6903.9Z" fill="#EDFBFB"/>
<path fill-rule="evenodd" clip-rule="evenodd" d="M6369.65 6819.83C6375.64 6826.38 6381.79 6832.6 6388.11 6839.16C6394.42 6845.55 6400.73 6851.94 6407.05 6858.49C6413.2 6864.71 6419.52 6870.77 6425.83 6877.15L6634.2 6604.81C6632.42 6601.96 6630.64 6598.93 6628.86 6596.07C6617.04 6602.8 6605.06 6609.19 6593.08 6615.57L6592.91 6615.74H6592.75L6407.21 6858.33C6400.9 6851.94 6394.42 6845.55 6388.11 6838.99L6539.81 6640.62C6523.94 6647.85 6507.75 6654.41 6491.56 6660.46L6380.5 6805.71L6369.65 6819.83Z" fill="#EDFBFB"/>
<path fill-rule="evenodd" clip-rule="evenodd" d="M6634.2 6605.89C6635.55 6608.09 6636.91 6610.41 6638.27 6612.61L6650.73 6596.07C6645.3 6599.43 6639.75 6602.79 6634.2 6605.89Z" fill="#EDFBFB"/>
<path fill-rule="evenodd" clip-rule="evenodd" d="M6320.05 6786.06C6326.61 6793.24 6333.18 6800.24 6339.91 6807.42C6346.48 6814.07 6352.88 6820.72 6359.45 6827.55C6352.88 6820.72 6346.48 6814.07 6340.08 6807.24L6352.39 6790.61L6435.79 6678.74C6420.36 6684.17 6404.76 6688.9 6389.33 6693.27H6389.16L6333.84 6767.5L6320.05 6786.06Z" fill="#EDFBFB"/>
<path fill-rule="evenodd" clip-rule="evenodd" d="M6286.98 6748.39C6293.36 6756.35 6299.45 6764.31 6306.14 6772.07C6307.66 6773.97 6309.33 6776.05 6310.85 6777.95L6325.14 6755.78L6353.12 6711.81C6336.85 6716.74 6320.58 6720.72 6304.16 6724.32C6303.7 6724.51 6303.4 6724.7 6302.94 6724.51H6302.79C6302.64 6724.7 6302.64 6724.89 6302.49 6724.7L6302.33 6724.89L6286.98 6748.39Z" fill="#EDFBFB"/>
<path fill-rule="evenodd" clip-rule="evenodd" d="M6294.58 6720.38C6295.08 6720.54 6295.41 6720.38 6295.91 6720.21C6295.74 6720.05 6295.58 6719.88 6295.58 6719.71C6295.25 6719.88 6294.92 6720.21 6294.58 6720.38Z" fill="#EDFBFB"/>
<path fill-rule="evenodd" clip-rule="evenodd" d="M6336.58 6807.32C6343.25 6814.12 6349.91 6820.75 6356.74 6827.55L6368.19 6812.9L6485.39 6662.21C6469.16 6668.49 6452.59 6674.07 6436.19 6679.3L6349.4 6790.75L6336.58 6807.32Z" fill="#2A4D52"/>
<path fill-rule="evenodd" clip-rule="evenodd" d="M6386.18 6840.85C6392.82 6847.56 6399.62 6854.09 6406.25 6860.62L6601.13 6612.61C6582.76 6621.54 6564.4 6630.14 6545.52 6638.04L6386.18 6840.85Z" fill="#2A4D52"/>
<path fill-rule="evenodd" clip-rule="evenodd" d="M6419.25 6890.67L6438.87 6910.22L6649.05 6639.73L6683.8 6594.84C6680.14 6589.57 6676.32 6584.47 6672.66 6579.54C6665.18 6584.47 6657.86 6589.06 6650.21 6593.48H6650.05L6633.25 6615.24L6419.25 6890.67Z" fill="#2A4D52"/>
<path fill-rule="evenodd" clip-rule="evenodd" d="M6452.32 6923.75C6458.96 6930.38 6465.6 6936.83 6472.24 6943.29L6477.69 6936.49L6679.93 6682.45L6716.87 6636.06C6711.42 6628.07 6705.63 6620.08 6699.84 6612.61L6663.41 6658.15L6458.28 6916.1L6452.32 6923.75Z" fill="#2A4D52"/>
<path fill-rule="evenodd" clip-rule="evenodd" d="M6501.92 6957.49C6508.3 6963.78 6514.68 6970.07 6521.54 6976.36L6525.14 6971.73L6714.13 6731.06L6749.94 6685.38V6685.22C6744.54 6677.6 6738.98 6669.82 6733.59 6662.21L6697.78 6707.73L6506.34 6951.86L6501.92 6957.49Z" fill="#2A4D52"/>
<path fill-rule="evenodd" clip-rule="evenodd" d="M6733.4 6662.21C6738.8 6667.64 6744.37 6673.19 6749.77 6678.63V6678.74L6749.94 6678.63C6744.37 6673.07 6738.97 6667.64 6733.4 6662.21Z" fill="#2A4D52"/>
<path fill-rule="evenodd" clip-rule="evenodd" d="M6534.99 6989.87C6538.36 6993.1 6541.72 6996.5 6545.08 6999.73C6548.44 7002.96 6551.81 7006.37 6555.17 7009.43L6557.86 7006.03L6746.69 6765.18L6783.01 6718.92V6718.75C6777.63 6710.76 6772.08 6702.93 6766.53 6695.28L6729.87 6742.05L6538.19 6985.78L6534.99 6989.87Z" fill="#2A4D52"/>
<path fill-rule="evenodd" clip-rule="evenodd" d="M6766.55 6711.93C6772.01 6717.25 6777.47 6722.68 6782.76 6728.23V6728.35L6782.92 6728.23C6777.47 6722.56 6772.01 6717.13 6766.72 6711.81L6766.55 6711.93Z" fill="#2A4D52"/>
<path fill-rule="evenodd" clip-rule="evenodd" d="M6584.59 7024.06C6590.9 7030.37 6597.21 7036.35 6603.68 7042.5L6605.46 7040.34L6782.43 6811.48L6816.07 6767.97V6767.8C6813.49 6763.81 6810.9 6759.99 6808.31 6756.17C6805.72 6752.35 6803.13 6748.53 6800.54 6744.88L6765.93 6789.56L6586.7 7021.4L6584.59 7024.06Z" fill="#2A4D52"/>
<path fill-rule="evenodd" clip-rule="evenodd" d="M6803.76 6763.81C6806.4 6767.61 6809.05 6771.42 6811.69 6775.39V6775.55L6811.86 6775.39C6809.21 6771.42 6806.4 6767.61 6803.76 6763.81Z" fill="#2A4D52"/>
<path fill-rule="evenodd" clip-rule="evenodd" d="M6617.66 7072.92C6624.17 7079.43 6630.84 7085.76 6637.51 7092.1L6638.68 7090.56L6816.46 6860.92L6849.14 6818.63C6843.8 6810.41 6838.3 6802.53 6832.8 6794.48L6798.94 6838.15L6619 7071.04L6617.66 7072.92Z" fill="#2A4D52"/>
<path fill-rule="evenodd" clip-rule="evenodd" d="M6667.27 7106.43C6673.82 7112.78 6680.21 7118.98 6686.76 7125.17L6687.56 7123.99L6853.6 6905.32L6882.21 6867.68C6879.49 6863.66 6876.94 6859.65 6874.38 6855.63C6871.66 6851.78 6869.1 6847.93 6866.39 6844.09L6836.5 6883.57L6668.22 7105.09L6667.27 7106.43Z" fill="#2A4D52"/>
<path fill-rule="evenodd" clip-rule="evenodd" d="M6869.81 6846.73C6872.62 6850.53 6875.27 6854.34 6878.08 6858.14C6875.43 6854.17 6872.79 6850.37 6869.97 6846.57L6869.81 6846.73Z" fill="#2A4D52"/>
<path fill-rule="evenodd" clip-rule="evenodd" d="M6700.33 7139.88C6707.15 7146.12 6713.98 7152.17 6720.63 7158.24L6889.32 6948.89L6915.28 6916.79C6909.62 6909.25 6904.3 6901.39 6899.14 6893.69L6871.19 6928.42L6700.33 7139.88Z" fill="#2A4D52"/>
<path fill-rule="evenodd" clip-rule="evenodd" d="M6700.33 7142.69C6705.54 7147.92 6711.14 7153.01 6716.35 7158.24L6716.87 7157.53C6711.66 7152.3 6706.32 7147.08 6700.99 7141.7L6700.33 7142.69Z" fill="#2A4D52"/>
<path fill-rule="evenodd" clip-rule="evenodd" d="M6733.4 7172.52C6739.95 7178.84 6746.66 7185.15 6753.21 7191.31L6911.52 6977.99L6931.81 6950.67C6926.86 6942.81 6921.59 6934.61 6916.32 6926.76L6893.79 6957.16L6733.4 7172.52Z" fill="#2A4D52"/>
<path fill-rule="evenodd" clip-rule="evenodd" d="M6733.4 7175.63C6738.7 7180.9 6743.99 7186.18 6749.29 7191.3L6749.94 7190.44C6744.64 7185.32 6739.22 7180.04 6733.92 7174.77L6733.4 7175.63Z" fill="#2A4D52"/>
<path fill-rule="evenodd" clip-rule="evenodd" d="M6783.01 7206.3C6789.85 7212.32 6796.7 7218.35 6803.71 7224.37L6965.88 7019.87L6981.42 7000.12V6999.96C6976.07 6991.92 6970.89 6984.39 6965.38 6976.36L6946.84 6999.79L6783.01 7206.3Z" fill="#2A4D52"/>
<path fill-rule="evenodd" clip-rule="evenodd" d="M6965.29 6992.89L6965.13 6993.01C6970.59 6998.56 6975.71 7003.76 6981 7009.31V7009.43L6981.17 7009.31C6975.71 7003.76 6970.59 6998.33 6965.29 6992.89Z" fill="#2A4D52"/>
<path fill-rule="evenodd" clip-rule="evenodd" d="M6783 7208.85C6788.22 7214.02 6793.56 7219.2 6798.78 7224.37H6798.9L6799.54 7223.36C6794.2 7218.19 6788.98 7213.01 6783.77 7207.84L6783 7208.85Z" fill="#2A4D52"/>
<path fill-rule="evenodd" clip-rule="evenodd" d="M6303.51 6759.7C6309.5 6765.78 6315.48 6771.87 6321.61 6777.95L6334.5 6761.41L6386.18 6695.28C6374.83 6698.4 6363.48 6701.36 6352.13 6704.01C6350.14 6704.48 6348.15 6704.95 6346.15 6705.26L6317.93 6741.45L6303.51 6759.7Z" fill="#2A4D52"/>
<path fill-rule="evenodd" clip-rule="evenodd" d="M6270.44 6732.71L6283.31 6741.97C6283.64 6742.1 6283.64 6742.1 6283.8 6742.24C6284.94 6743.16 6285.92 6743.95 6286.9 6744.88L6303.35 6728.48L6303.51 6728.35C6292.76 6729.93 6281.85 6731.39 6270.93 6732.58H6270.61C6270.61 6732.58 6270.61 6732.71 6270.44 6732.71Z" fill="#2A4D52"/>
<path fill-rule="evenodd" clip-rule="evenodd" d="M7155.33 7509.67C7114.36 7594.24 7062.39 7688.83 7092.7 7753.24C7103.2 7775.08 7134.01 7775.76 7145.17 7754.23L7411.3 7422.25C7410.81 7420.91 7410.14 7419.59 7409.64 7418.42C7394.15 7385.05 7315.21 7361.36 7274.07 7308.81C7272.74 7308.81 7031.25 6959.83 7031.25 6959.83L6985.62 7026.55V7026.72L6973.79 7043.74L6827.73 7257.28L6826.73 7258.93L6816.07 7274.45L7155.33 7509.67Z" fill="#2A4D52"/>
<path fill-rule="evenodd" clip-rule="evenodd" d="M6898.74 6349.25C6883.21 6374.73 6839.41 6427.84 6838.09 6428.84C6767.86 6505.45 6585.9 6613.99 6585.9 6613.99C6510.71 6651.05 6430.89 6678.85 6351.23 6697.38C6304.63 6708.46 6257.03 6716.41 6209.1 6721.2C6205.96 6721.7 6202.66 6722.03 6199.52 6722.36C6152.25 6727.16 6104.33 6728.98 6056.57 6728.15C6007.49 6728.98 5958.4 6727 5909.82 6721.87C5890.14 6719.88 5870.48 6717.4 5850.97 6714.26C5821.06 6709.95 5791.32 6704.16 5762.07 6697.38C5664.57 6674.71 5566.57 6638.14 5477.32 6587.35C5477.32 6587.02 5333.05 6491.71 5275.53 6428.84C5274.54 6427.84 5273.71 6426.69 5272.56 6425.69C5225.63 6373.41 5193.74 6320.3 5179.19 6271.15L5548.36 5438.68H6491.04C6555.44 5605.21 6821.12 6163.66 6858.59 6253.28C6883.87 6313.51 6898.58 6348.75 6898.74 6349.25Z" fill="#2A4D52"/>
<path fill-rule="evenodd" clip-rule="evenodd" d="M6388.81 5268.29C6392.98 5269.94 6397.16 5271.43 6401.17 5272.92C6435.58 5285.48 6462.65 5294.74 6478.52 5297.88C6480.35 5298.21 6482.19 5298.21 6484.2 5297.55V5297.39C6448.45 5284.16 6417.04 5275.4 6400.5 5271.1C6394.32 5269.44 6390.31 5268.62 6388.81 5268.29Z" fill="#F9DBCF"/>
<path fill-rule="evenodd" clip-rule="evenodd" d="M5000.22 4556.16C5005.4 4563.6 5012.92 4569.22 5020.77 4574.02C5028.79 4578.48 5037.97 4580.63 5047 4582.12C5065.04 4585.26 5083.59 4583.61 5100.45 4577.49C5100.62 4577.49 5100.62 4577.16 5100.62 4576.99C5100.62 4576.83 5100.45 4576.66 5100.12 4576.66C5082.91 4580.47 5065.04 4579.97 5048.34 4575.67C5039.99 4573.52 5032.3 4569.88 5024.44 4566.58C5016.42 4563.44 5008.9 4559.3 5000.72 4555.5C5000.55 4555.33 5000.39 4555.5 5000.22 4555.5C5000.06 4555.67 5000.06 4555.83 5000.22 4556.16ZM4967.81 4436.45C4991.36 4410.99 5109.48 4468.03 5127.35 4500.61C5145.39 4533.18 5105.46 4574.51 5105.46 4574.51L5181.98 4589.56C5229.93 4599.15 5261.49 4644.95 5252.48 4692.57C5249.14 4710.26 5245.46 4727.79 5242.12 4741.51V4741.68C5240.94 4746.97 5316.8 4933.31 5336.34 5033.5C5360.57 5016.64 5384.79 4999.77 5409.01 4982.91L5422.88 5001.59L5533.8 5152.22V5152.38C5535.97 5155.53 5537.81 5158.83 5537.98 5162.64C5538.31 5165.78 5537.48 5168.75 5536.31 5171.56L5535.31 5174.21L5528.29 5192.07L5481.35 5309.29L5480.51 5311.11C5476.34 5320.54 5471.82 5329.96 5466.65 5338.89C5447.43 5371.96 5420.37 5399.57 5393.47 5426.85C5354.55 5466.53 5312.29 5508.04 5257.66 5520.27C5220.57 5528.54 5181.65 5522.09 5145.06 5511.51C5098.12 5497.95 5050.5 5475.63 5023.78 5435.12C5006.9 5409.49 4999.73 5378.9 4998.72 5348.15C4998.55 5343.02 4998.55 5337.73 4998.72 5332.44C4999.73 5296.89 5007.56 5261.68 5014.26 5226.62C5029.78 5145.94 5038.98 5064.42 5051.68 4983.4C5058.02 4941.9 5065.37 4900.57 5075.06 4859.73C5079.73 4839.39 5085.09 4819.06 5091.09 4799.05C5092.76 4793.59 5102.45 4773.26 5100.12 4771.6C5030.79 4722.83 4891.13 4623.12 4882.28 4602.13C4870.41 4573.85 4944.25 4461.92 4967.81 4436.45Z" fill="#F9DBCF"/>
<path fill-rule="evenodd" clip-rule="evenodd" d="M5481.35 5309.27C5485.86 5299.18 5489.87 5288.93 5493.88 5278.68C5505.41 5249.74 5516.77 5220.97 5528.29 5192.04L5481.35 5309.27Z" fill="#F9DBCF"/>
<path fill-rule="evenodd" clip-rule="evenodd" d="M5409.01 4982.91L5422.87 5001.59C5418.36 4995.31 5413.68 4989.19 5409.17 4982.91H5409.01Z" fill="#F9DBCF"/>
<path fill-rule="evenodd" clip-rule="evenodd" d="M5469.32 5339.06C5470.65 5337.4 5471.99 5335.59 5473.33 5333.77L5473.66 5333.11C5479.01 5326.16 5484.19 5319.05 5489.53 5311.61L5489.7 5311.45L5506.91 5272.76C5521.11 5239.36 5534.97 5205.96 5548.5 5172.39C5552.68 5162.47 5556.86 5152.39 5560.87 5142.3C5569.55 5120.48 5579.41 5098.98 5587.26 5076.83L5611.32 5010.36C5619.67 4988.37 5616.16 4987.38 5607.31 5009.04L5582.08 5074.84C5573.9 5096.83 5563.71 5118.16 5554.68 5139.82C5551.01 5148.42 5547.17 5156.85 5543.49 5165.45L5540.48 5161.48L5536.31 5171.57L5535.31 5174.21L5528.29 5192.07L5481.35 5309.3L5480.51 5311.12L5469.32 5339.06Z" fill="#F9DBCF"/>
<path fill-rule="evenodd" clip-rule="evenodd" d="M5409.01 4982.91L5422.87 5001.59C5418.36 4995.31 5413.68 4989.19 5409.17 4982.91H5409.01Z" fill="#F9DBCF"/>
<path fill-rule="evenodd" clip-rule="evenodd" d="M5000.22 4555.47C5000.06 4555.63 5000.06 4555.8 5000.22 4556.13C5005.41 4563.57 5012.92 4569.19 5020.77 4573.99C5028.79 4578.45 5037.99 4580.6 5047 4582.09C5065.05 4585.23 5083.59 4583.58 5100.47 4577.46C5100.63 4577.46 5100.63 4577.13 5100.63 4576.96C5100.63 4576.8 5100.47 4576.63 5100.12 4576.63C5082.93 4580.43 5065.05 4579.94 5048.34 4575.64C5039.99 4573.49 5032.3 4569.85 5024.44 4566.54C5016.43 4563.4 5008.92 4559.27 5000.73 4555.47C5000.57 4555.3 5000.39 4555.47 5000.22 4555.47Z" fill="#F9DBCF"/>
<path fill-rule="evenodd" clip-rule="evenodd" d="M5762 5105.42C5762 5105.59 5762.34 5105.75 5762.51 5105.59C5764.85 5104.93 5767.19 5104.26 5769.52 5103.44C5784.06 5098.31 5797.59 5089.71 5808.61 5078.64C5815.13 5072.19 5821.31 5065.24 5825.15 5056.81C5828.83 5048.54 5831.5 5039.62 5831.33 5030.52C5831.33 5030.19 5831.17 5030.03 5830.83 5030.03C5830.67 5030.03 5830.5 5030.19 5830.5 5030.19C5825.99 5038.13 5822.48 5045.9 5817.8 5053.01C5813.29 5060.12 5809.12 5067.56 5803.77 5074.17C5794.42 5085.25 5782.55 5094.68 5769.36 5101.45C5767.02 5102.61 5764.68 5103.77 5762.17 5104.76C5762 5104.93 5761.84 5105.26 5762 5105.42Z" fill="#2A8C79"/>
<path fill-rule="evenodd" clip-rule="evenodd" d="M5543.49 5165.45V5165.61L5548.5 5172.39C5552.68 5162.47 5556.86 5152.39 5560.87 5142.3C5569.55 5120.48 5579.41 5098.98 5587.26 5076.83L5611.32 5010.36C5619.67 4988.37 5616.16 4987.38 5607.31 5009.04L5582.08 5074.84C5573.9 5096.83 5563.71 5118.16 5554.68 5139.82C5551.01 5148.42 5547.17 5156.85 5543.49 5165.45Z" fill="#2A8C79"/>
<path fill-rule="evenodd" clip-rule="evenodd" d="M5409.01 4982.91L5422.87 5001.59C5418.36 4995.31 5413.68 4989.19 5409.17 4982.91H5409.01Z" fill="#2A8C79"/>
<path fill-rule="evenodd" clip-rule="evenodd" d="M5762 5105.42C5762 5105.59 5762.34 5105.75 5762.51 5105.59C5764.85 5104.93 5767.19 5104.26 5769.52 5103.44C5784.06 5098.31 5797.59 5089.71 5808.61 5078.64C5815.13 5072.19 5821.31 5065.24 5825.15 5056.81C5828.83 5048.54 5831.5 5039.62 5831.33 5030.52C5831.33 5030.19 5831.17 5030.03 5830.83 5030.03C5830.67 5030.03 5830.5 5030.19 5830.5 5030.19C5825.99 5038.13 5822.48 5045.9 5817.8 5053.01C5813.29 5060.12 5809.12 5067.56 5803.77 5074.17C5794.42 5085.25 5782.55 5094.68 5769.36 5101.45C5767.02 5102.61 5764.68 5103.77 5762.17 5104.76C5762 5104.93 5761.84 5105.26 5762 5105.42Z" fill="#2A8C79"/>
<path fill-rule="evenodd" clip-rule="evenodd" d="M5307.44 5742.65L5314.62 5725.29L5315.96 5721.49L5320.8 5709.25L5328.16 5691.23L5333.17 5679.16L5354.05 5626.91L5359.06 5614.34L5362.24 5606.57L5367.08 5594.34L5383.28 5554L5388.13 5541.59L5393.81 5527.71L5398.65 5515.47L5469.32 5339.22V5339.05C5470.65 5337.4 5471.99 5335.58 5473.33 5333.76L5472.82 5335.08C5468.65 5346.16 5473.49 5347.98 5478.17 5337.23L5489.53 5311.6L5489.7 5311.44L5506.91 5272.75C5521.1 5239.35 5534.97 5205.95 5548.5 5172.39C5552.68 5162.47 5556.86 5152.38 5560.86 5142.29C5569.55 5120.47 5579.41 5098.97 5587.26 5076.82L5611.32 5010.35C5619.67 4988.36 5616.16 4987.37 5607.31 5009.03L5582.08 5074.83C5573.9 5096.82 5563.71 5118.15 5554.68 5139.81C5551.01 5148.41 5547.17 5156.84 5543.49 5165.44L5540.48 5161.47V5161.31L5533.8 5152.38V5152.21L5422.88 5001.59C5418.36 4995.3 5413.69 4989.19 5409.18 4982.9H5409.01L5408.34 4981.91C5393.81 4961.91 5661.93 4755.23 5686.49 4733.4C5741.79 4683.8 5782.94 4674.52 5796.64 4664.93C5810.34 4655.34 6094.27 4664.93 6094.27 4664.93C6161.26 4678.65 6219.57 4729.27 6267.18 4778.71C6293.08 4805.82 6317.47 4833.6 6340.86 4862.04C6402.5 4936.61 6457.97 5014.48 6520.61 5090.05L6515.6 5094.01V5094.18L6505.24 5102.28L6600.87 5445.37L6733.4 5721.49C6732.9 5721.82 6538.82 5790.43 6510.42 5800.19C6461.31 5817.22 6411.19 5831.11 6360.4 5842.19C6348.38 5844.83 6299.09 5854.42 6286.56 5856.57H6286.23C6178.64 5875.42 6068.72 5883.19 5959.97 5885.18H5959.8C5954.79 5885.01 5871.76 5883.03 5814.62 5880.05C5810.28 5879.72 5730.08 5877.09 5678.51 5869.97C5626.94 5862.84 5556.69 5846.15 5536.31 5842.02C5533.8 5841.36 5531.8 5841.03 5530.46 5840.7C5497.55 5833.59 5464.81 5824.99 5432.4 5815.07C5388.29 5801.84 5344.86 5785.97 5302.43 5767.45C5301.59 5767.12 5300.58 5766.79 5299.75 5766.29C5299.08 5766.13 5298.91 5766.13 5298.42 5765.8L5307.44 5742.65Z" fill="#2A4D52"/>
<path fill-rule="evenodd" clip-rule="evenodd" d="M6388.81 5268.29C6392.98 5269.94 6397.16 5271.43 6401.17 5272.92L6400.5 5271.1C6394.32 5269.44 6390.31 5268.62 6388.81 5268.29Z" fill="#2A8C79"/>
<path fill-rule="evenodd" clip-rule="evenodd" d="M5762 5105.42C5762 5105.59 5762.34 5105.75 5762.51 5105.59C5764.85 5104.93 5767.19 5104.26 5769.52 5103.44C5784.06 5098.31 5797.59 5089.71 5808.61 5078.64C5815.13 5072.19 5821.31 5065.24 5825.15 5056.81C5828.83 5048.54 5831.5 5039.62 5831.33 5030.52C5831.33 5030.19 5831.17 5030.03 5830.83 5030.03C5830.67 5030.03 5830.5 5030.19 5830.5 5030.19C5825.99 5038.13 5822.48 5045.9 5817.8 5053.01C5813.29 5060.12 5809.12 5067.56 5803.77 5074.17C5794.42 5085.25 5782.55 5094.68 5769.36 5101.45C5767.02 5102.61 5764.68 5103.77 5762.17 5104.76C5762 5104.93 5761.84 5105.26 5762 5105.42Z" fill="#2A8C79"/>
<path fill-rule="evenodd" clip-rule="evenodd" d="M5472.83 5335.08C5468.65 5346.16 5473.49 5347.98 5478.17 5337.23L5489.53 5311.61L5489.7 5311.44L5506.91 5272.75C5521.11 5239.35 5534.97 5205.95 5548.5 5172.39C5552.68 5162.47 5556.86 5152.38 5560.87 5142.3C5569.55 5120.47 5579.41 5098.98 5587.26 5076.82L5611.32 5010.35C5619.67 4988.36 5616.16 4987.37 5607.31 5009.03L5582.08 5074.84C5573.9 5096.83 5563.71 5118.16 5554.68 5139.82C5551.01 5148.41 5547.17 5156.85 5543.49 5165.44L5540.48 5161.47L5536.31 5171.56L5535.31 5174.21L5528.29 5192.06L5481.35 5309.29L5480.51 5311.11L5469.32 5339.05C5470.65 5337.4 5471.99 5335.58 5473.33 5333.76L5472.83 5335.08Z" fill="#2A8C79"/>
<path fill-rule="evenodd" clip-rule="evenodd" d="M5769.35 5101.43L5769.52 5103.41C5784.05 5098.29 5797.59 5089.69 5808.61 5078.61C5815.13 5072.16 5821.31 5065.22 5825.15 5056.78C5828.83 5048.52 5831.5 5039.59 5831.33 5030.5C5831.33 5030.16 5831.17 5030 5830.83 5030C5830.66 5030 5830.5 5030.16 5830.5 5030.16C5825.99 5038.1 5822.48 5045.87 5817.8 5052.98C5813.29 5060.09 5809.11 5067.53 5803.77 5074.15C5794.41 5085.22 5782.55 5094.65 5769.35 5101.43Z" fill="#F9DBCF"/>
<path fill-rule="evenodd" clip-rule="evenodd" d="M5655.09 5039.29V5039.45C5660.1 5055.16 5666.28 5070.2 5672.97 5082.77C5679.48 5095.34 5686.33 5105.09 5692.85 5110.05C5722.41 5132.37 5769.36 5099.97 5769.36 5099.97V5101.45C5782.56 5094.68 5794.42 5085.25 5803.77 5074.17C5809.12 5067.56 5813.29 5060.12 5817.8 5053.01C5822.48 5045.9 5825.99 5038.13 5830.5 5030.19C5830.5 5030.19 5830.67 5030.03 5830.84 5030.03C5831.17 5030.03 5831.34 5030.19 5831.34 5030.52C5831.5 5039.62 5828.83 5048.55 5825.16 5056.81C5821.31 5065.24 5815.13 5072.19 5808.62 5078.64C5797.59 5089.72 5784.06 5098.31 5769.52 5103.44L5772.7 5176.52C5773.37 5190.41 5777.21 5203.47 5783.56 5214.88C5795.59 5236.54 5816.47 5252.58 5841.36 5258.03C5848.54 5259.85 5856.06 5260.68 5863.91 5260.35C5873.94 5260.02 5883.96 5259.69 5893.31 5259.19C5904.34 5258.69 5914.36 5258.03 5922.55 5257.21C5932.91 5270.43 5944.94 5284.32 5958.47 5298.87C5961.81 5302.51 5965.32 5306.15 5968.82 5309.79C5979.52 5320.86 5990.88 5332.27 6002.91 5343.85C6006.41 5347.32 6010.09 5350.62 6013.76 5354.26C6021.45 5361.54 6029.47 5368.98 6037.65 5376.58C6043 5381.38 6048.18 5386.17 6053.69 5391.13H6053.86C6156.26 5482.9 6276.04 5573.84 6322.82 5606.9C6334.18 5615.01 6341.2 5619.64 6342.7 5620.13C6401.34 5666.92 6482.86 5674.36 6548.35 5640.3C6562.38 5633.03 6575.75 5623.77 6587.94 5612.69C6645.58 5560.28 6668.3 5394.44 6635.89 5286.31C6636.05 5286.14 6635.89 5285.98 6635.89 5285.98C6630.54 5264.81 6622.86 5246.46 6613.17 5232.74C6611.83 5227.94 6571.9 5169.24 6515.6 5094.18L6505.25 5102.28L6374.78 5206.94L6400.5 5271.1C6417.04 5275.39 6448.45 5284.16 6484.2 5297.38V5297.55C6482.19 5298.21 6480.36 5298.21 6478.52 5297.88C6462.65 5294.74 6435.58 5285.48 6401.17 5272.91C6397.16 5271.43 6392.98 5269.94 6388.81 5268.28C6388.47 5268.12 6388.31 5268.12 6388.31 5268.12C6369.43 5261.17 6348.88 5253.4 6327 5245.3C6305.95 5237.53 6283.9 5229.43 6261.34 5221.16C6245.14 5215.38 6228.77 5209.59 6212.4 5204.13C6151.08 5182.97 6088.61 5163.95 6034.81 5153.37C6013.43 5149.24 5993.72 5146.43 5975.84 5145.27H5975.67C5969.33 5132.54 5960.47 5115.01 5950.11 5094.84C5910.02 5015.81 5847.88 4898.08 5830.67 4887.67C5813.13 4877.09 5752.15 4898.25 5705.37 4918.92C5705.37 4919.08 5705.37 4919.08 5705.21 4918.92C5700.7 4921.07 5696.19 4923.22 5692.01 4925.2C5674.97 4933.14 5661.1 4940.58 5653.59 4945.54C5637.55 4956.12 5642.56 4999.27 5655.09 5039.29Z" fill="#F9DBCF"/>
<path fill-rule="evenodd" clip-rule="evenodd" d="M5000.22 4555.47C5000.06 4555.63 5000.06 4555.8 5000.22 4556.13C5005.41 4563.57 5012.92 4569.19 5020.77 4573.99C5028.79 4578.45 5037.99 4580.6 5047 4582.09C5065.05 4585.23 5083.59 4583.58 5100.47 4577.46C5100.63 4577.46 5100.63 4577.13 5100.63 4576.96C5100.63 4576.8 5100.47 4576.63 5100.12 4576.63C5082.93 4580.43 5065.05 4579.94 5048.34 4575.64C5039.99 4573.49 5032.3 4569.85 5024.44 4566.54C5016.43 4563.4 5008.92 4559.27 5000.73 4555.47C5000.57 4555.3 5000.39 4555.47 5000.22 4555.47Z" fill="#672448"/>
<path fill-rule="evenodd" clip-rule="evenodd" d="M5762 5105.42C5762 5105.59 5762.34 5105.75 5762.51 5105.59C5764.85 5104.93 5767.19 5104.26 5769.52 5103.44C5784.06 5098.31 5797.59 5089.71 5808.61 5078.64C5815.13 5072.19 5821.31 5065.24 5825.15 5056.81C5828.83 5048.54 5831.5 5039.62 5831.33 5030.52C5831.33 5030.19 5831.17 5030.03 5830.83 5030.03C5830.67 5030.03 5830.5 5030.19 5830.5 5030.19C5825.99 5038.13 5822.48 5045.9 5817.8 5053.01C5813.29 5060.12 5809.12 5067.56 5803.77 5074.17C5794.42 5085.25 5782.55 5094.68 5769.36 5101.45C5767.02 5102.61 5764.68 5103.77 5762.17 5104.76C5762 5104.93 5761.84 5105.26 5762 5105.42Z" fill="#672448"/>
<path fill-rule="evenodd" clip-rule="evenodd" d="M5348.58 5040.15C5356.91 5101.44 5363.46 5162.98 5367.64 5224.64C5369.64 5255.47 5370.85 5286.36 5371.13 5317.2C5371.83 5348.05 5371.08 5378.98 5366.19 5409.54C5366.17 5409.65 5366.26 5409.75 5366.35 5409.77C5366.47 5409.79 5366.57 5409.72 5366.6 5409.62C5373.96 5379.4 5374.7 5348.1 5375.3 5317.2C5375.17 5286.19 5373.66 5255.24 5370.97 5224.41C5366.06 5162.68 5358.52 5101.23 5348.99 5040.08C5348.98 5039.98 5348.88 5039.9 5348.76 5039.92C5348.65 5039.93 5348.56 5040.03 5348.58 5040.15Z" fill="#672448"/>
<path fill-rule="evenodd" clip-rule="evenodd" d="M6643.9 5397.93C6625.08 5372.2 6598.98 5352.62 6571.75 5336.21C6544.54 5319.44 6515.04 5306.46 6484.45 5297.33C6484.33 5297.3 6484.21 5297.35 6484.18 5297.47C6484.15 5297.56 6484.2 5297.68 6484.3 5297.71C6513.31 5310.91 6542.27 5323.8 6570.05 5339.05C6597.43 5354.72 6623.84 5373.27 6643.57 5398.18C6643.64 5398.27 6643.77 5398.27 6643.87 5398.22C6643.95 5398.14 6643.97 5398.01 6643.9 5397.93Z" fill="#672448"/>
<path fill-rule="evenodd" clip-rule="evenodd" d="M5478.17 5337.23L5489.53 5311.6L5489.7 5311.44L5506.9 5272.75C5521.1 5239.35 5534.97 5205.95 5548.5 5172.39C5552.68 5162.47 5556.85 5152.38 5560.86 5142.29C5569.55 5120.47 5579.41 5098.97 5587.26 5076.82L5611.31 5010.35C5619.67 4988.36 5616.16 4987.37 5607.3 5009.03L5582.08 5074.83C5573.89 5096.83 5563.7 5118.15 5554.68 5139.81C5551.01 5148.41 5547.16 5156.84 5543.49 5165.44V5165.61C5528.45 5200.16 5513.58 5234.72 5499.05 5269.61L5473.66 5333.1L5473.32 5333.76L5472.82 5335.08C5468.65 5346.16 5473.49 5347.98 5478.17 5337.23Z" fill="#2A8C79"/>
<path fill-rule="evenodd" clip-rule="evenodd" d="M6317.03 5139.72L6361.3 5194.94C6361.63 5195.44 6361.96 5196.1 6362.47 5196.6C6364.81 5196.76 6367.31 5196.76 6369.65 5197.09C6368.31 5195.27 6366.98 5193.46 6365.47 5191.64L6320.37 5137.24C6305.5 5118.72 6302.66 5121.2 6317.03 5139.72Z" fill="#2A4D52"/>
<path fill-rule="evenodd" clip-rule="evenodd" d="M6692.07 5633.62C6692.07 5633.62 6692.08 5633.61 6690.7 5629.71C6689.33 5625.82 6689.32 5625.82 6689.32 5625.82L6689.21 5625.86L6688.84 5625.98L6687.37 5626.49C6686.07 5626.94 6684.11 5627.6 6681.53 5628.46C6676.37 5630.17 6668.71 5632.66 6658.72 5635.76C6638.73 5641.95 6609.42 5650.58 6572.2 5660.29C6497.74 5679.71 6391.6 5703.46 6264.95 5720.78C6011.59 5755.42 5676.39 5764.27 5348.45 5661.37L5345.97 5669.26C5675.5 5772.66 6012.04 5763.7 6266.07 5728.97C6393.1 5711.6 6499.57 5687.78 6574.28 5668.29C6611.64 5658.54 6641.07 5649.88 6661.16 5643.65C6671.21 5640.54 6678.93 5638.03 6684.14 5636.31C6686.74 5635.44 6688.72 5634.77 6690.05 5634.31L6691.56 5633.79L6691.94 5633.66L6692.07 5633.62Z" fill="#EDFBFB"/>
<path fill-rule="evenodd" clip-rule="evenodd" d="M6712.25 5686.44L6709.5 5678.65L6702.17 5681.22C6697.69 5682.79 6691.58 5684.93 6685.08 5687.19C6672.03 5691.71 6657.51 5696.69 6651.23 5698.6C6189.85 5839.28 5746.36 5842.78 5320.67 5709.21L5318.19 5717.09C5745.61 5851.2 6190.8 5847.63 6653.64 5706.51C6660.11 5704.54 6674.8 5699.5 6687.79 5695C6694.31 5692.74 6700.42 5690.6 6704.91 5689.03L6712.25 5686.44Z" fill="#EDFBFB"/>
<path fill-rule="evenodd" clip-rule="evenodd" d="M5029.16 4003.11C5040.9 3992.03 5055.61 3984.92 5070.99 3980.96C5005.05 3026.53 6366.86 2887.66 6440.85 3840.58C6441.08 3843.06 6441.13 3845.54 6441.18 3848.02C6514.36 3882.48 6570.23 3953.06 6579.08 4034.03C6603.09 4202.43 6411.11 4336.04 6255.01 4287.83C6210.13 4357.95 6153.87 4417.38 6087.7 4462.1C6090.86 4546.96 6095.68 4671.44 6098.93 4755.09C6087.48 4765.21 6073.58 4775.14 6059.73 4782.53C6029.49 4800.34 5996.46 4813.83 5962.84 4824.2V4824.37H5962.68V4824.2C5916.56 4833.92 5818.75 4871.55 5801.14 4808.01V4574.04C5467.48 4643.18 5184.61 4515.16 5099.1 4162.34C5022.97 4167.68 4970.31 4056.34 5029.16 4003.11Z" fill="#F9DBCF"/>
<path fill-rule="evenodd" clip-rule="evenodd" d="M6253.21 4063.74L6255.03 4067.88L6258.67 4065.56C6269.58 4058.78 6282.97 4055.31 6296.03 4055.15C6309.1 4054.98 6323.15 4058.12 6332.24 4067.22C6342 4076.14 6342.5 4091.19 6339.02 4103.59C6334.72 4116.16 6323.81 4126.41 6310.58 4129.71L6310.92 4131.2C6324.8 4128.39 6336.71 4117.98 6341.83 4104.75C6346.13 4091.52 6346.3 4074.99 6335.55 4064.07C6325.3 4053.16 6310.09 4049.52 6296.2 4049.19C6283.3 4048.86 6270.41 4051.18 6258.83 4057.13C6252.55 4038.78 6254.7 4018.6 6265.61 4003.39C6277.35 3986.86 6296.37 3976.28 6315.71 3969.17C6335.39 3962.22 6356.38 3958.26 6377.05 3958.59C6397.72 3958.75 6417.89 3964.37 6435.58 3973.8C6471.3 3993.64 6487.34 4035.8 6486.67 4076.97C6486.18 4118.47 6471.46 4159.97 6446.17 4194.69L6447.32 4195.85C6462.7 4180.47 6475.1 4161.96 6484.03 4141.78C6493.45 4121.78 6499.07 4099.79 6500.23 4077.47C6501.39 4055.15 6498.91 4032 6489.32 4010.83C6480.23 3989.67 6463.53 3971.15 6443.02 3960.57C6422.36 3950.32 6399.54 3945.03 6377.05 3945.69C6354.57 3946.02 6332.58 3950.65 6311.91 3958.75C6291.41 3967.02 6270.9 3978.76 6258.01 3998.1C6244.61 4017.28 6243.95 4043.41 6253.21 4063.74Z" fill="#672448"/>
<path fill-rule="evenodd" clip-rule="evenodd" d="M5116.49 4162.95C5124.76 4163.61 5133.02 4162.95 5140.96 4160.8C5143.11 4160.3 5162.79 4154.68 5155.68 4150.71C5154.19 4149.89 5152.53 4150.22 5150.88 4150.38C5149.39 4150.55 5147.9 4150.88 5146.25 4151.04C5136.83 4152.86 5127.9 4156.5 5117.32 4155.84C5113.02 4155.51 5112.03 4162.62 5116.49 4162.95Z" fill="#672448"/>
<path fill-rule="evenodd" clip-rule="evenodd" d="M5577.13 4191.39C5577.13 4272.4 5642.77 4338.05 5723.96 4338.05C5804.97 4338.05 5870.61 4272.4 5870.61 4191.39C5870.61 4110.37 5804.97 4044.56 5723.96 4044.56C5642.77 4044.56 5577.13 4110.37 5577.13 4191.39Z" fill="#F2C0B6"/>
<path fill-rule="evenodd" clip-rule="evenodd" d="M5801.67 4679.31C5844.49 4663.11 5982.72 4563.41 6044.06 4502.4C6058.28 4488.34 6087.37 4461.89 6087.37 4461.89C6087.37 4461.89 5932.12 4547.53 5802.16 4573.33C5801.34 4572.83 5801.67 4679.31 5801.67 4679.31Z" fill="#F2C0B6"/>
<mask id="mask0_49_59" style="mask-type:alpha" maskUnits="userSpaceOnUse" x="5252" y="3090" width="1383" height="1372">
<path fill-rule="evenodd" clip-rule="evenodd" d="M6634.2 3090.83H5252.38V4461.9H6634.2V3090.83Z" fill="white"/>
</mask>
<g mask="url(#mask0_49_59)">
<path fill-rule="evenodd" clip-rule="evenodd" d="M5252.42 3416.25C5266.59 3400.49 5288.46 3378.27 5306.43 3358.28C5338.28 3322.83 5372.75 3289.76 5409.46 3259.37C5487.3 3194.87 5527.38 3174.58 5623.43 3141.88C5874.63 3056.36 6094.02 3077.39 6314.1 3211.72C6428.94 3281.82 6533.6 3388.88 6587.36 3541.54C6632.31 3669.2 6647.92 3820.89 6620.89 3988.55C6601.26 4110.22 6545.57 4227.7 6454.72 4312.24C6406.03 4357.54 6338.42 4403.6 6274.94 4423.26C6211.45 4442.94 6205.45 4445.2 6088.49 4461.9C6134.12 4421.44 6200.67 4367.94 6241.2 4307.42C6244.77 4302.1 6248.55 4286.43 6254.95 4286.43C6256.01 4286.43 6270.15 4291.8 6278.13 4293.22C6427.87 4320.11 6602.24 4196.76 6579.06 4034.11C6563.84 3927.34 6474.39 3825.3 6358.67 3846.6C6319.63 3853.78 6277.82 3873.73 6246.37 3897.49C6219.72 3917.63 6198.01 3946.66 6194.17 3979.85C6207.22 3865.35 6147.81 3726.84 6086.04 3634.4C5987 3486.09 5825.63 3377.95 5647.72 3354.64C5513.82 3337 5407.69 3338.87 5276.09 3404.41C5271.03 3406.8 5251.44 3417.32 5252.42 3416.25Z" fill="#F2C0B6"/>
</g>
<path fill-rule="evenodd" clip-rule="evenodd" d="M5063.99 3860.97C5064.32 3860.31 5064.66 3859.81 5065.32 3859.15C5069.45 3854.19 5081.02 3848.24 5097.56 3841.95L5123.68 3682.89C5123.68 3682.89 5200.4 3730.51 5258.11 3796.48C5307.05 3784.75 5345.9 3776.48 5345.9 3776.48C5327.05 3692.32 5310.35 3638.58 5309.03 3633.95C5313.16 3639.24 5357.15 3695.96 5401.95 3776.48H5708.33C5665.51 3685.71 5639.22 3614.44 5637.73 3609.98C5639.88 3614.11 5677.25 3680.08 5736.94 3776.48H5803.07C5796.46 3679.59 5781.58 3615.43 5780.42 3610.47C5784.22 3614.44 5856.97 3693.15 5916.33 3796.32C5932.87 3811.86 5950.72 3825.75 5969.57 3837.99C6018.84 3869.73 6075.56 3889.41 6136.24 3893.04C6115.57 3988.28 6144.5 4105.84 6144.5 4105.84C6144.5 4105.84 6157.07 4061.03 6187.66 4000.68C6196.78 3982.51 6207.53 3962.9 6220.07 3942.68C6242.88 3905.81 6275.39 3875.78 6314 3856.06C6314 3856.06 6426.9 3826.01 6490.04 3881.9C6490.04 3881.9 6543.64 3934.05 6557.86 3971.75C6587.29 4049.46 6572.08 4139.24 6509.58 4206.04C6497.51 4218.93 6484.28 4230.34 6470.06 4240.1C6405.74 4285.07 6322.74 4298.63 6247.02 4279.12C6228.99 4307.39 6209.32 4333.68 6187.66 4357.82C6154.76 4395.02 6125.87 4432.03 6085.36 4459.64C6063.37 4474.85 6040.55 4486.97 6016.41 4499.2C6008.48 4556.91 5988.09 4610.79 5971.06 4665.69C5966.1 4682.06 5960.48 4698.09 5954.53 4713.97C5950.23 4725.38 5945.76 4736.62 5941.13 4747.7C5941.3 4747.86 5941.13 4747.86 5940.97 4748.03C5936.34 4758.94 5931.54 4769.69 5926.25 4780.27C5922.95 4787.38 5919.31 4794.49 5915.67 4801.6C5921.62 4794.98 5927.41 4788.21 5933.2 4780.93C5947.25 4763.4 5960.64 4744.39 5973.21 4724.88C5983.13 4709.34 5992.55 4693.46 6001.32 4677.76C6006.61 4668.33 6011.57 4659.07 6016.36 4649.98C6053.4 4579.21 6075.89 4518.86 6075.89 4518.86C6075.89 4518.86 6086.3 4571.61 6072.58 4648.16C6070.27 4661.22 6067.29 4675.11 6063.32 4689.5C6059.35 4704.05 6054.56 4719.09 6048.61 4734.63C6044.8 4744.56 6040.5 4754.64 6035.71 4764.89C6033.72 4769.03 6031.74 4773.32 6029.59 4777.62C6020.66 4795.65 6010.08 4814 5997.68 4832.52C6115.24 4838.47 6232.63 4844.26 6350.35 4846.74C6379.79 4847.4 6409.22 4847.73 6438.65 4847.89C6451.38 4848.06 6468.74 4851.2 6481.14 4848.06C6495.36 4844.42 6492.38 4840.29 6493.54 4825.24C6497.34 4779.61 6504.29 4734.14 6513.71 4689.17C6515.53 4680.57 6520.49 4668.99 6520.49 4660.07C6520.99 4669.16 6526.94 4751 6587.46 4853.52C6592.25 4853.85 6597.38 4854.01 6602.34 4854.34C6623.83 4855.5 6646.15 4854.34 6669.13 4850.87C6720.06 4843.93 6774.13 4826.9 6828.19 4803.25C6835.96 4799.78 6843.9 4796.14 6851.67 4792.5C7117.05 4666.68 7371.84 4388.9 7245.85 4329.22C6984.23 4204.93 6827.68 3966.47 6738.13 3768.79C6712.97 3713.27 6693.51 3607.68 6683.22 3547.59C6680.71 3532.85 6677.5 3518.18 6673.45 3503.63C6663.55 3468.25 6647.51 3433.68 6627.82 3400.62C6603.53 3359.94 6573.91 3321.58 6544.48 3287.69C6490.91 3225.52 6404.93 3136.73 6314.67 3096.22C6266.06 3070.76 6211.5 3056.37 6153.96 3056.37C6105.35 3056.37 6059.22 3066.63 6016.73 3084.98C6081.36 3010.9 6173.46 2926.58 6291.36 2869.87C6433.87 2801.09 6126.83 2760.91 6011.92 2869.54C5959.68 2918.97 5932.55 3000.49 5918.51 3074.73C5905.45 2980.98 5902.46 2865.24 5932.07 2747.35C5970.42 2594.08 5742.9 2804.06 5752.84 2961.96C5754.66 2990.07 5762.6 3018.51 5774.83 3046.12C5732.98 3016.2 5686.54 2993.71 5640.57 2987.76C5442 2961.96 5187.7 3179.55 5187.7 3179.55C5187.7 3179.55 5240.28 3169.3 5323.45 3165.5C5121.73 3219.07 4974.87 3450.09 4982.65 3667.52C4985.29 3744.4 5008.6 3814.18 5063.99 3860.97Z" fill="#561D3E"/>
<path fill-rule="evenodd" clip-rule="evenodd" d="M5561.46 3704.99C5564.6 3708.29 5568.9 3707.8 5572.21 3705.48C5573.86 3704.32 5577.17 3702.84 5579.48 3702.34C5582.79 3701.51 5584.94 3701.35 5588.41 3701.51C5590.89 3701.84 5594.03 3702.51 5597.01 3703.83C5597.17 3703.99 5598.33 3704.49 5598.33 3704.49C5599.16 3704.99 5599.82 3705.48 5600.48 3705.98C5601.97 3706.97 5602.3 3707.14 5603.13 3708.13C5612.05 3717.06 5612.72 3731.77 5605.44 3741.86C5603.13 3745.33 5604.61 3750.45 5607.92 3752.6C5611.56 3754.92 5616.02 3753.6 5618.34 3750.12C5629.42 3734.58 5627.76 3710.28 5613.87 3697.05C5599.49 3683.49 5577.83 3682.5 5562.12 3693.91C5558.65 3696.39 5558.98 3702.17 5561.46 3704.99Z" fill="#561D3E"/>
<path fill-rule="evenodd" clip-rule="evenodd" d="M5311.75 4331.36C5372.35 4339.23 5435.62 4317.4 5478.3 4267.68C5481.95 4263.43 5481.46 4257.02 5477.21 4253.36C5472.98 4249.71 5466.56 4250.16 5462.87 4254.46C5402.89 4324.31 5297.23 4332.35 5227.38 4272.39C5223.14 4268.76 5216.73 4269.2 5213.04 4273.49C5209.39 4277.75 5209.88 4284.17 5214.13 4287.82C5242.8 4312.41 5276.83 4326.83 5311.75 4331.36Z" fill="#561D3E"/>
<path fill-rule="evenodd" clip-rule="evenodd" d="M5395.87 3997.22C5407.75 3996.98 5414.35 3987.82 5415.69 3977.38C5416.35 3972.16 5419.3 3963.18 5422.4 3957.86C5426.62 3950.02 5430.08 3945.59 5436.49 3939.19C5441.48 3934.99 5448.26 3930.1 5456.03 3926.69C5456.65 3926.66 5459.64 3925.3 5459.64 3925.3C5462.04 3924.57 5464.15 3924.18 5466.29 3923.76C5470.8 3922.64 5471.71 3922.29 5475.07 3922.44C5507.95 3920.9 5537.47 3945.47 5544.13 3977.2C5546.76 3987.75 5559.26 3993.88 5569.19 3991.29C5580.06 3988.33 5585.33 3977.42 5582.7 3966.85C5572.2 3918.22 5522.45 3878.72 5472.59 3882.28C5421.2 3886.21 5381.27 3926.21 5375.68 3976.51C5374.36 3987.55 5386.1 3997.08 5395.87 3997.22Z" fill="#561D3E"/>
</svg>
